<svg xmlns="http://www.w3.org/2000/svg" xmlns:xlink="http://www.w3.org/1999/xlink" version="1.1" id="Layer_1" x="0px" y="0px" width="100%" viewBox="0 0 651 739" enable-background="new 0 0 651 739" xml:space="preserve">
<path fill="#FFFFFF" opacity="1.000000" stroke="none" d=" M343.000000,740.000000   C228.666672,740.000000 114.833336,740.000000 1.000000,740.000000   C1.000000,493.666656 1.000000,247.333328 1.000000,1.000000   C218.000000,1.000000 435.000000,1.000000 652.000000,1.000000   C652.000000,247.333328 652.000000,493.666656 652.000000,740.000000   C549.166687,740.000000 446.333344,740.000000 343.000000,740.000000  M590.289490,545.614502   C590.289490,545.614502 590.231873,545.742676 590.040161,545.051453   C589.365967,544.861755 588.691833,544.672119 588.035889,544.007019   C588.022156,543.691345 588.018311,543.375488 587.987549,542.351196   C584.382690,538.565063 580.777771,534.778870 576.638489,530.574768   C575.003845,529.157532 573.464905,527.607666 571.717590,526.346558   C564.871765,521.405579 557.960083,516.555786 550.958557,511.034393   C549.929810,509.944214 548.901062,508.854034 547.687683,507.032104   C545.786133,494.873749 541.079529,484.051758 531.238464,474.581543   C534.732971,475.555786 536.926880,476.323944 539.184509,476.769714   C548.816528,478.671356 558.218262,478.451904 564.368042,469.498993   C573.497009,456.208862 574.034973,436.868195 559.289795,424.447601   C556.159851,421.811035 552.662476,419.610779 548.445435,416.568146   C551.314697,416.319244 553.349548,415.982483 555.381226,416.000061   C559.510803,416.035706 562.539307,414.531342 563.698669,410.369110   C564.848938,406.239319 563.077759,402.989258 559.641785,401.077911   C556.797058,399.495453 553.523499,398.186554 550.325134,397.851288   C545.278198,397.322205 540.135010,397.710510 535.032593,397.710510   C534.898499,397.302094 534.764404,396.893677 534.630310,396.485229   C535.952393,395.432770 537.250000,394.347778 538.600586,393.333252   C546.908752,387.092224 553.749817,379.801147 556.033997,369.206665   C559.735779,352.036865 549.201477,340.831329 532.015198,343.767120   C527.663574,344.510498 523.372742,345.609467 518.516968,346.661346   C531.166626,331.155792 533.516174,324.328033 528.515564,315.331665   C518.713440,297.696625 504.377319,297.599854 488.003235,306.656952   C488.784363,302.790436 489.604889,300.076263 489.844147,297.311768   C490.901184,285.099579 487.618774,271.494812 475.940857,266.173004   C476.404449,264.867493 476.712555,263.479309 477.355865,262.269379   C483.396362,250.907944 486.555939,238.799942 486.188477,225.948624   C485.933411,217.027252 483.323151,208.978348 475.030762,203.023407   C475.193329,201.881668 475.265259,200.718307 475.531708,199.601349   C482.043915,172.301910 484.202026,144.721756 475.475708,117.739037   C461.661774,75.024963 431.890198,46.788544 390.558258,30.926804   C368.542725,22.478016 346.571442,21.626663 328.285736,39.434689   C323.870331,36.374130 319.912354,32.988968 315.415070,30.633556   C301.890778,23.550350 287.664948,24.433905 273.619446,28.564419   C245.443878,36.850342 223.505051,54.212479 205.572433,76.952507   C197.416931,87.294365 190.415924,98.386070 186.115250,111.737450   C179.610565,129.497055 177.465652,147.916763 179.042145,166.620850   C180.012909,178.138214 182.434982,189.533249 183.525818,201.200867   C174.095779,205.841309 169.408081,213.747467 168.877182,223.919769   C168.046494,239.835785 171.978455,254.565460 181.126068,267.782806   C181.921783,268.932526 182.304031,270.368469 182.308228,272.078033   C174.492386,282.342590 174.531387,293.705475 177.219116,305.816559   C177.090622,305.935272 176.962143,306.053986 176.127838,306.032776   C169.329880,302.254700 162.226898,299.402679 154.298889,301.160736   C136.189148,305.176697 129.441895,325.823792 141.457581,340.095367   C143.127487,342.078796 144.829163,344.035431 147.312286,346.933777   C141.093872,345.451935 136.571457,344.121033 131.956604,343.327820   C122.633766,341.725403 115.197098,345.364594 111.189034,353.386566   C106.684708,365.793152 109.854042,376.382507 118.975563,386.040649   C119.453491,386.424103 119.931412,386.807556 120.741409,387.808197   C123.909538,390.456512 127.077675,393.104858 129.875793,396.135651   C129.759109,396.269257 129.642441,396.402863 128.913956,396.920197   C126.384598,396.924164 123.725311,396.422699 121.351807,397.032898   C115.678429,398.491364 109.551743,399.519043 104.706268,402.503601   C99.503960,405.707977 101.098900,413.261017 106.913376,415.626251   C109.621140,416.727722 112.686295,416.950562 115.622772,417.578827   C93.175148,435.125183 88.468498,455.066620 103.104607,471.712250   C103.715858,472.149078 104.327110,472.585907 105.312378,473.605682   C113.555946,479.843109 122.745651,477.402618 133.118683,475.738892   C126.334435,483.526001 121.405029,490.816925 119.242477,499.972168   C113.136887,503.860168 107.031296,507.748169 100.260071,511.898102   C91.733154,518.612183 83.206238,525.326233 74.039200,532.077271   C70.685631,535.731384 67.332069,539.385559 63.978607,543.518921   C63.957695,543.838989 63.958630,544.159058 63.408714,544.567688   C63.232468,544.646729 63.056221,544.725830 62.220081,544.999023   C57.414021,551.679077 52.607964,558.359131 47.142677,565.105896   C45.092129,569.060608 43.041580,573.015320 40.498375,577.450134   C37.695435,583.809082 34.892494,590.168091 31.971846,596.831787   C31.950184,597.164734 31.928524,597.497620 31.401701,598.348816   C30.345003,602.036194 29.288305,605.723511 28.095358,610.170105   C26.771063,616.709656 25.446768,623.249146 23.947071,630.625183   C23.413952,634.597351 22.880833,638.569519 22.291658,643.407410   C22.128754,649.630615 21.965847,655.853821 21.267157,662.673645   C21.568813,666.464050 21.870470,670.254517 21.930082,674.946655   C22.255695,681.665039 22.581310,688.383484 22.932644,695.632507   C30.540825,695.632507 37.317802,695.632507 44.996235,695.845825   C45.995705,695.866882 46.995174,695.906311 47.994644,695.906311   C184.492767,695.908264 320.990875,695.911682 457.489014,695.904419   C511.821533,695.901550 566.154114,695.920776 620.486511,695.815430   C630.035767,695.796936 630.035278,695.534790 630.221375,685.286804   C630.213257,684.543457 630.205078,683.800049 630.566345,682.362244   C630.595093,679.621277 630.623840,676.880310 630.884094,673.224548   C630.892029,669.480835 630.899963,665.737183 631.007324,661.079712   C630.618347,654.740112 630.229370,648.400452 629.968384,641.206787   C629.360291,636.824219 628.752197,632.441650 628.019470,627.233215   C626.716248,621.426147 625.413025,615.619141 624.074280,609.036926   C622.774475,605.028137 621.474609,601.019348 620.102173,596.475708   C619.946533,596.156128 619.790894,595.836487 619.491638,594.781677   C616.741089,588.759583 613.990540,582.737549 611.169250,576.001465   C608.926392,571.979004 606.683533,567.956543 604.123169,563.281555   C599.755432,557.535706 595.387634,551.789917 590.824768,545.692932   C590.824768,545.692932 590.429932,545.618958 590.289490,545.614502  z"/>
<path fill="#362736" opacity="1.000000" stroke="none" d=" M186.696350,111.226143   C190.415924,98.386070 197.416931,87.294365 205.572433,76.952507   C223.505051,54.212479 245.443878,36.850342 273.619446,28.564419   C287.664948,24.433905 301.890778,23.550350 315.415070,30.633556   C319.912354,32.988968 323.870331,36.374130 328.285736,39.434689   C346.571442,21.626663 368.542725,22.478016 390.558258,30.926804   C431.890198,46.788544 461.661774,75.024963 475.475708,117.739037   C484.202026,144.721756 482.043915,172.301910 475.531708,199.601349   C475.265259,200.718307 475.193329,201.881668 474.812256,203.645050   C468.124908,220.398788 461.719116,236.556854 455.095551,252.625153   C454.385529,254.347565 452.406860,255.547028 450.995209,256.588440   C444.243073,227.907211 444.114319,199.239944 446.361176,170.499542   C446.654663,166.745483 445.841736,165.639481 442.550537,164.689911   C424.442963,159.465622 406.928436,152.729126 390.562256,143.270050   C373.138672,133.199875 357.123474,121.320587 345.290741,104.797554   C338.948853,95.941833 333.659668,86.332245 328.005646,77.240135   C327.956970,77.340225 327.523529,78.044022 327.257385,78.806252   C321.769073,94.524849 312.427734,107.841797 300.757080,119.409042   C285.454620,134.575882 267.283234,145.610413 247.477173,153.936768   C242.603882,155.985443 237.494049,157.471512 232.116180,159.144073   C231.270493,158.908005 230.722321,158.849442 230.344162,158.564911   C218.124435,149.371338 206.533783,139.449982 197.066895,127.378090   C193.136154,122.365730 190.125443,116.631889 186.696350,111.226143  z"/>
<path fill="#281F2A" opacity="1.000000" stroke="none" d=" M476.107422,266.714294   C487.618774,271.494812 490.901184,285.099579 489.844147,297.311768   C489.604889,300.076263 488.784363,302.790436 488.003235,306.656952   C504.377319,297.599854 518.713440,297.696625 528.515564,315.331665   C533.516174,324.328033 531.166626,331.155792 518.516968,346.661346   C523.372742,345.609467 527.663574,344.510498 532.015198,343.767120   C549.201477,340.831329 559.735779,352.036865 556.033997,369.206665   C553.749817,379.801147 546.908752,387.092224 538.600586,393.333252   C537.250000,394.347778 535.952393,395.432770 534.630310,396.485229   C534.764404,396.893677 534.898499,397.302094 535.032593,397.710510   C540.135010,397.710510 545.278198,397.322205 550.325134,397.851288   C553.523499,398.186554 556.797058,399.495453 559.641785,401.077911   C563.077759,402.989258 564.848938,406.239319 563.698669,410.369110   C562.539307,414.531342 559.510803,416.035706 555.381226,416.000061   C553.349548,415.982483 551.314697,416.319244 548.445435,416.568146   C552.662476,419.610779 556.159851,421.811035 559.289795,424.447601   C574.034973,436.868195 573.497009,456.208862 564.368042,469.498993   C558.218262,478.451904 548.816528,478.671356 539.184509,476.769714   C536.926880,476.323944 534.732971,475.555786 531.238464,474.581543   C541.079529,484.051758 545.786133,494.873749 547.432190,507.439209   C542.111023,505.187469 537.045288,502.528656 531.768677,499.612427   C515.009094,492.607819 498.460449,485.860626 481.592834,478.938232   C475.092743,476.847565 468.965668,474.729034 462.716736,473.069061   C455.210205,471.074982 447.599915,469.471436 439.866089,467.379761   C432.724884,465.008087 425.764709,462.911316 418.776123,460.914154   C410.380951,458.515076 403.449585,454.040710 398.233215,446.523254   C396.044983,442.468018 393.999634,438.737305 391.924805,434.629944   C390.296844,428.704681 388.744873,423.142090 387.071167,417.616333   C386.579193,415.992126 385.742126,414.472382 384.966370,412.508606   C384.560242,410.189240 384.099854,408.276337 383.968506,406.341095   C383.460083,398.851105 383.056427,391.353943 382.820740,383.578918   C389.044159,378.624695 395.433960,374.354950 401.007935,369.202637   C418.662323,352.883972 430.591095,332.695679 439.015991,310.393280   C442.693298,300.658661 445.628296,290.643585 449.334961,280.830505   C458.996490,281.418213 465.804291,276.879211 471.769440,270.473450   C473.065948,269.081177 474.653778,267.960205 476.107422,266.714294  z"/>
<path fill="#281F2A" opacity="1.000000" stroke="none" d=" M104.938362,473.022705   C104.327110,472.585907 103.715858,472.149078 103.039215,470.989380   C103.171997,464.034698 100.457657,458.819183 97.432938,452.513428   C97.432938,450.075928 97.432938,446.374664 97.432938,443.890015   C99.969955,441.720032 102.234497,440.435730 103.544434,438.504089   C105.344009,435.850464 106.420563,432.706512 107.973564,429.419983   C107.845123,429.239410 107.177872,428.301331 106.510620,427.363251   C107.581512,427.423431 108.659897,427.423218 109.721916,427.554901   C113.013603,427.963074 117.735298,424.819672 117.986511,422.363586   C118.154121,420.724823 119.344513,419.205994 119.609947,417.558228   C119.973938,415.298523 120.302017,412.870178 119.787453,410.719360   C119.605202,409.957550 116.929771,409.566315 115.352730,409.411285   C112.117233,409.093384 108.843491,409.152588 105.613953,408.797638   C105.031120,408.733582 104.175110,407.446106 104.146767,406.696899   C104.032578,403.678925 109.644356,399.839966 112.191093,401.434662   C119.729408,406.154724 126.529205,402.024628 132.987106,400.826782   C132.987106,398.033905 132.838959,395.962128 133.018341,393.919098   C133.376968,389.834747 132.272476,386.907928 127.621078,386.785736   C125.222366,386.722687 122.813583,387.043579 120.409348,387.190979   C119.931412,386.807556 119.453491,386.424103 118.944427,385.324829   C118.942177,382.623444 119.004150,380.637665 118.993706,378.652283   C118.963478,372.905487 118.081841,372.055176 111.861992,372.364532   C111.861992,368.162903 111.878685,363.991333 111.855415,359.819946   C111.842514,357.508484 111.762779,355.197418 111.713173,352.886169   C115.197098,345.364594 122.633766,341.725403 131.956604,343.327820   C136.571457,344.121033 141.093872,345.451935 147.312286,346.933777   C144.829163,344.035431 143.127487,342.078796 141.457581,340.095367   C129.441895,325.823792 136.189148,305.176697 154.298889,301.160736   C162.226898,299.402679 169.329880,302.254700 176.608276,306.366730   C177.363571,306.700378 177.638428,306.700043 177.913269,306.699707   C177.820648,306.298767 177.728027,305.897858 177.635406,305.496918   C174.531387,293.705475 174.492386,282.342590 182.948273,271.952881   C191.049713,277.749634 198.896118,282.580475 209.309296,281.113647   C213.025009,292.143433 215.946793,303.097473 220.087067,313.569794   C229.577896,337.575714 243.253616,358.799347 263.632294,375.200317   C266.329071,377.370667 268.974670,379.604523 271.474579,382.245453   C270.822571,392.986450 270.339966,403.290985 269.507629,413.618652   C266.672516,412.707489 265.597900,413.894043 265.058990,416.203400   C263.599243,422.458466 262.054810,428.693756 260.329529,435.179138   C258.058838,439.483307 256.002563,443.545227 253.754425,447.625549   C253.296249,448.066528 253.029907,448.489075 252.485535,449.083252   C246.774948,456.383087 238.912292,459.379120 230.755829,461.884247   C224.498276,463.806152 218.247421,465.749847 211.578369,467.807556   C197.505692,471.684204 183.848236,475.437164 169.812256,479.178955   C163.954956,481.067078 158.476181,482.966400 152.998138,484.459534   C153.264648,479.842285 151.695816,477.736664 147.428345,479.812408   C145.047302,480.970551 142.820694,482.614990 140.845917,484.396576   C138.419128,486.585938 136.543030,486.874969 135.075943,483.636505   C134.292236,481.906525 133.773804,480.056366 133.099976,478.160004   C134.976990,477.318512 136.365036,476.696228 138.962845,475.531586   C136.356033,474.322998 134.889389,473.250153 133.285446,472.973572   C128.592880,472.164368 123.856430,471.558929 119.114922,471.107239   C116.944092,470.900482 114.038132,470.401123 112.669197,471.514465   C110.107925,473.597504 107.706345,473.537567 104.938362,473.022705  z"/>
<path fill="#ff7383" opacity="1.000000" stroke="none" d=" M630.196899,683.056702   C630.205078,683.800049 630.213257,684.543457 629.740051,685.735291   C628.914429,686.522522 628.232178,686.913391 628.275208,687.192444   C629.355957,694.208557 625.091370,694.120789 619.944092,694.118164   C438.388306,694.025818 256.832489,694.041077 75.276634,694.034912   C67.449013,694.034668 59.621384,693.974060 52.053490,693.672485   C63.617443,690.258057 74.929764,687.141479 86.223526,683.958923   C96.551384,681.048584 106.859192,678.067078 117.459137,675.093872   C118.454407,674.883179 119.166397,674.695496 120.278656,674.400818   C121.779396,674.200562 122.879883,674.107239 124.447449,674.072205   C290.591278,674.133118 456.268036,674.135193 621.944763,674.144226   C624.274231,674.144348 626.603638,674.231140 628.966248,674.694214   C629.398560,677.759460 629.797729,680.408081 630.196899,683.056702  z"/>
<path fill="#ff7383" opacity="1.000000" stroke="none" d=" M74.679321,532.040344   C83.206238,525.326233 91.733154,518.612183 101.048828,511.912170   C102.835289,511.967560 103.833008,512.044983 104.830719,512.045044   C252.094040,512.048889 399.357361,512.048096 546.620667,512.030029   C548.104736,512.029846 549.588806,511.796661 551.072876,511.672180   C557.960083,516.555786 564.871765,521.405579 571.717590,526.346558   C573.464905,527.607666 575.003845,529.157532 576.656494,531.153198   C575.031494,531.868713 573.388367,532.125549 571.745300,532.125732   C411.051392,532.144104 250.357483,532.143921 89.663582,532.138855   C84.668831,532.138733 79.674072,532.074585 74.679321,532.040344  z"/>
<path fill="#ff7383" opacity="1.000000" stroke="none" d=" M47.801899,565.039185   C52.607964,558.359131 57.414021,551.679077 62.832115,545.235107   C65.409462,545.648254 67.374756,545.980225 69.340088,545.980469   C240.977356,546.003418 412.614624,546.001648 584.251892,545.989319   C586.245239,545.989197 588.238525,545.828430 590.231873,545.742676   C590.231873,545.742676 590.289490,545.614502 590.207764,545.935059   C590.073242,546.481567 590.020386,546.707642 589.563843,546.958130   C579.347717,549.331299 569.495972,551.528503 559.732544,554.065918   C546.470764,557.512512 533.276672,561.219299 519.626282,564.869385   C517.484985,564.967407 515.770996,565.010620 513.585632,565.021790   C511.615204,564.969849 510.116058,564.932617 508.616943,564.932556   C357.843231,564.931702 207.069504,564.933044 56.295780,564.939636   C53.464485,564.939758 50.633190,565.004578 47.801899,565.039185  z"/>
<path fill="#ff7383" opacity="1.000000" stroke="none" d=" M629.840332,642.060913   C630.229370,648.400452 630.618347,654.740112 630.496704,661.546814   C492.489227,662.023743 354.992310,662.037292 217.495407,662.038330   C201.330368,662.038452 185.165344,661.969116 169.246399,661.666748   C175.671051,659.599731 181.844086,657.778687 188.029266,655.999817   C204.035004,651.396484 220.046082,646.811768 236.451584,642.131470   C238.194382,641.914307 239.540619,641.785339 241.349655,641.770752   C244.141983,641.923523 246.471527,641.995361 248.801056,641.995483   C323.211334,641.999390 397.621643,641.987732 472.031921,641.997437   C524.634766,642.004333 577.237549,642.038757 629.840332,642.060913  z"/>
<path fill="#ff7383" opacity="1.000000" stroke="none" d=" M32.089554,596.527039   C34.892494,590.168091 37.695435,583.809082 41.211716,577.262634   C175.608582,577.090027 309.292084,577.101379 442.975616,577.127869   C451.960724,577.129639 460.945801,577.245911 469.648010,577.527100   C455.216003,581.545654 441.036163,585.236389 426.930725,589.192505   C419.842529,591.180359 412.889618,593.650635 405.474976,595.917725   C403.722137,595.961182 402.369843,595.989746 400.629700,596.010071   C398.836029,596.330322 397.430267,596.658752 395.757324,597.060303   C395.309631,597.172241 395.129089,597.211060 394.558929,597.182373   C393.389313,597.194580 392.609283,597.274231 391.528625,597.326843   C390.834320,597.226807 390.440613,597.153870 389.760620,596.766724   C388.001160,596.300842 386.527954,596.016663 385.054718,596.016418   C270.400818,595.996399 155.746933,595.993958 41.093067,596.044250   C39.379059,596.044983 37.665348,596.721802 35.640163,597.167358   C34.903561,597.209717 34.478294,597.167786 33.934486,596.870239   C33.503166,596.420898 33.190384,596.227051 32.688873,596.169922   C32.500145,596.306580 32.089558,596.527039 32.089554,596.527039  z"/>
<path fill="#ff7383" opacity="1.000000" stroke="none" d=" M624.109802,609.812073   C625.413025,615.619141 626.716248,621.426147 627.928955,628.021240   C626.000366,629.178711 624.162354,629.870544 622.324036,629.871399   C514.879272,629.923767 407.434479,629.922363 299.989685,629.910156   C294.330597,629.909546 288.671539,629.770935 283.300354,629.486755   C298.375244,625.132446 313.182922,621.059998 327.940338,616.812988   C335.349274,614.680908 342.666840,612.231323 350.414062,609.867065   C351.841980,609.686523 352.881500,609.564148 354.373596,609.594849   C355.490662,609.787048 356.155151,609.860718 356.819672,609.860657   C445.916382,609.847961 535.013062,609.829895 624.109802,609.812073  z"/>
<path fill="#C7A8AA" opacity="1.000000" stroke="none" d=" M169.000305,661.931946   C185.165344,661.969116 201.330368,662.038452 217.495407,662.038330   C354.992310,662.037292 492.489227,662.023743 630.447021,662.003662   C630.899963,665.737183 630.892029,669.480835 630.478943,673.675232   C629.693542,674.176453 629.313354,674.226990 628.933105,674.277466   C626.603638,674.231140 624.274231,674.144348 621.944763,674.144226   C456.268036,674.135193 290.591278,674.133118 124.702896,673.799927   C137.596115,669.735657 150.700958,666.001892 164.232574,662.187012   C166.106339,662.047913 167.553314,661.989929 169.000305,661.931946  z"/>
<path fill="#ff7383" opacity="1.000000" stroke="none" d=" M350.025696,609.925232   C342.666840,612.231323 335.349274,614.680908 327.940338,616.812988   C313.182922,621.059998 298.375244,625.132446 282.898621,629.567871   C280.846252,629.904541 279.483612,629.950195 277.640015,629.958496   C262.685669,629.904175 248.212280,629.878052 233.738876,629.871704   C163.866745,629.841125 93.994614,629.815857 24.122475,629.788696   C25.446768,623.249146 26.771063,616.709656 28.555796,609.796509   C31.338657,609.535767 33.661068,609.747009 35.983509,609.747375   C130.182693,609.763733 224.381866,609.755920 318.581055,609.768066   C329.062592,609.769409 339.544159,609.870422 350.025696,609.925232  z"/>
<path fill="#FFDEDD" opacity="1.000000" stroke="none" d=" M74.359261,532.058838   C79.674072,532.074585 84.668831,532.138733 89.663582,532.138855   C250.357483,532.143921 411.051392,532.144104 571.745300,532.125732   C573.388367,532.125549 575.031494,531.868713 576.923706,531.362183   C580.777771,534.778870 584.382690,538.565063 587.541687,542.681641   C518.645874,543.007446 450.195892,542.995483 381.745911,543.000122   C275.823456,543.007324 169.900970,543.025940 63.978508,543.039673   C67.332069,539.385559 70.685631,535.731384 74.359261,532.058838  z"/>
<path fill="#FFE1E0" opacity="1.000000" stroke="none" d=" M469.930908,577.308960   C460.945801,577.245911 451.960724,577.129639 442.975616,577.127869   C309.292084,577.101379 175.608582,577.090027 41.458046,577.022583   C43.041580,573.015320 45.092129,569.060608 47.472286,565.072510   C50.633190,565.004578 53.464485,564.939758 56.295780,564.939636   C207.069504,564.933044 357.843231,564.931702 508.616943,564.932556   C510.116058,564.932617 511.615204,564.969849 513.324097,565.281006   C511.953033,566.056519 510.382416,566.577393 508.789825,567.019165   C496.849823,570.331299 484.905518,573.627808 472.583008,576.970703   C471.445923,577.111145 470.688416,577.210022 469.930908,577.308960  z"/>
<path fill="#FFDFDF" opacity="1.000000" stroke="none" d=" M551.015747,511.353302   C549.588806,511.796661 548.104736,512.029846 546.620667,512.030029   C399.357361,512.048096 252.094040,512.048889 104.830719,512.045044   C103.833008,512.044983 102.835289,511.967560 101.381645,511.781189   C107.031296,507.748169 113.136887,503.860168 119.775101,499.881836   C120.307732,499.791473 120.656204,499.870972 121.153412,499.896362   C223.109558,499.931732 324.568481,499.949432 426.027435,499.947388   C461.344818,499.946655 496.662231,499.897095 531.979614,499.869843   C537.045288,502.528656 542.111023,505.187469 547.524536,507.805115   C548.901062,508.854034 549.929810,509.944214 551.015747,511.353302  z"/>
<path fill="#C7A8A9" opacity="1.000000" stroke="none" d=" M278.120941,629.995850   C279.483612,629.950195 280.846252,629.904541 282.610687,629.777710   C288.671539,629.770935 294.330597,629.909546 299.989685,629.910156   C407.434479,629.922363 514.879272,629.923767 622.324036,629.871399   C624.162354,629.870544 626.000366,629.178711 627.991272,628.434204   C628.752197,632.441650 629.360291,636.824219 629.904419,641.633850   C577.237549,642.038757 524.634766,642.004333 472.031921,641.997437   C397.621643,641.987732 323.211334,641.999390 248.801056,641.995483   C246.471527,641.995361 244.141983,641.923523 241.620422,641.543457   C242.674728,640.786743 243.912109,640.342041 245.168823,639.961243   C256.150879,636.632935 267.136414,633.316101 278.120941,629.995850  z"/>
<path fill="#FFE1E0" opacity="1.000000" stroke="none" d=" M350.414062,609.867065   C339.544159,609.870422 329.062592,609.769409 318.581055,609.768066   C224.381866,609.755920 130.182693,609.763733 35.983509,609.747375   C33.661068,609.747009 31.338657,609.535767 28.623920,609.416870   C29.288305,605.723511 30.345003,602.036194 32.038837,598.294861   C34.959724,598.493958 37.243408,598.967651 39.527241,598.968384   C152.645828,599.004456 265.764435,598.994446 378.882996,599.044312   C380.933746,599.045227 382.984222,599.708557 384.775360,600.330933   C374.317566,603.546570 364.119293,606.494202 353.921021,609.441833   C352.881500,609.564148 351.841980,609.686523 350.414062,609.867065  z"/>
<path fill="#ff7383" opacity="1.000000" stroke="none" d=" M169.246399,661.666748   C167.553314,661.989929 166.106339,662.047913 163.785553,662.126099   C115.875488,662.123230 68.839211,662.100159 21.802940,662.077026   C21.965847,655.853821 22.128754,649.630615 22.733793,642.808655   C24.836184,642.138794 26.496431,642.005798 28.156696,642.005615   C95.796051,641.997559 163.435394,642.000000 231.074753,642.013000   C232.734863,642.013306 234.394928,642.147705 236.055023,642.219604   C220.046082,646.811768 204.035004,651.396484 188.029266,655.999817   C181.844086,657.778687 175.671051,659.599731 169.246399,661.666748  z"/>
<path fill="#ff7383" opacity="1.000000" stroke="none" d=" M469.648010,577.527100   C470.688416,577.210022 471.445923,577.111145 473.050751,577.039490   C518.025696,577.072815 562.153259,577.082947 606.280884,577.069458   C607.934021,577.068909 609.586975,576.838684 611.240051,576.715454   C613.990540,582.737549 616.741089,588.759583 619.391113,595.265015   C619.290588,595.748413 618.980896,596.019531 618.682373,596.033569   C617.918518,596.372070 617.453186,596.696533 616.591675,597.065063   C615.134277,597.078552 614.073181,597.048035 612.783569,596.743347   C611.033386,596.651062 609.511597,596.832947 607.523621,597.061279   C588.270752,597.116638 569.484131,597.143616 550.697510,597.130676   C509.468140,597.102234 468.238800,597.053589 426.744263,596.725403   C423.983368,596.628906 421.487671,596.820190 418.620331,597.057251   C417.501862,597.072510 416.755035,597.041870 415.724670,596.715088   C412.252655,596.246826 409.064087,596.074829 405.875549,595.902832   C412.889618,593.650635 419.842529,591.180359 426.930725,589.192505   C441.036163,585.236389 455.216003,581.545654 469.648010,577.527100  z"/>
<path fill="#29202B" opacity="1.000000" stroke="none" d=" M186.405792,111.481796   C190.125443,116.631889 193.136154,122.365730 197.066895,127.378090   C206.533783,139.449982 218.124435,149.371338 230.344162,158.564911   C230.722321,158.849442 231.270493,158.908005 231.851669,159.414932   C226.959717,161.492020 221.884445,163.053146 216.993500,165.062912   C215.476730,165.686142 213.419998,167.494614 213.378159,168.816406   C213.011322,180.403793 213.769806,192.066711 212.770813,203.583740   C211.600983,217.070511 209.059219,230.442307 206.917496,243.832779   C206.753387,244.858841 205.043137,245.637619 204.012848,246.200317   C201.529266,241.349564 198.714325,236.986938 196.715240,232.277969   C192.326248,221.939377 188.350128,211.425522 184.205429,200.983215   C182.434982,189.533249 180.012909,178.138214 179.042145,166.620850   C177.465652,147.916763 179.610565,129.497055 186.405792,111.481796  z"/>
<path fill="#CDA6A6" opacity="1.000000" stroke="none" d=" M427.009430,597.013184   C468.238800,597.053589 509.468140,597.102234 550.697510,597.130676   C569.484131,597.143616 588.270752,597.116638 607.941345,597.094055   C610.220886,597.059387 611.616455,597.038452 613.012024,597.017456   C614.073181,597.048035 615.134277,597.078552 616.926880,597.096191   C618.105591,597.056030 618.552795,597.028748 619.293579,597.019287   C619.782959,597.028320 619.978821,597.019470 620.174744,597.010559   C621.474609,601.019348 622.774475,605.028137 624.092041,609.424500   C535.013062,609.829895 445.916382,609.847961 356.819672,609.860657   C356.155151,609.860718 355.490662,609.787048 354.373596,609.594849   C364.119293,606.494202 374.317566,603.546570 385.106018,600.315186   C386.134308,599.974243 386.572479,599.917175 387.251404,599.813477   C387.796509,599.616333 388.032532,599.393372 388.554443,599.105286   C389.972290,598.757263 391.035858,598.401978 392.408936,598.046143   C393.461761,597.780273 394.205139,597.515015 394.948517,597.249817   C395.129089,597.211060 395.309631,597.172241 396.167542,597.093933   C398.214417,597.026794 399.583923,596.999207 401.420532,597.019226   C406.594482,597.048279 411.301331,597.029785 416.008179,597.011230   C416.755035,597.041870 417.501862,597.072510 419.064697,597.090210   C422.256927,597.055969 424.633179,597.034607 427.009430,597.013184  z"/>
<path fill="#FFE0DF" opacity="1.000000" stroke="none" d=" M236.451584,642.131470   C234.394928,642.147705 232.734863,642.013306 231.074753,642.013000   C163.435394,642.000000 95.796051,641.997559 28.156696,642.005615   C26.496431,642.005798 24.836184,642.138794 22.761822,642.375793   C22.880833,638.569519 23.413952,634.597351 24.034775,630.206909   C93.994614,629.815857 163.866745,629.841125 233.738876,629.871704   C248.212280,629.878052 262.685669,629.904175 277.640015,629.958496   C267.136414,633.316101 256.150879,636.632935 245.168823,639.961243   C243.912109,640.342041 242.674728,640.786743 241.157623,641.429077   C239.540619,641.785339 238.194382,641.914307 236.451584,642.131470  z"/>
<path fill="#853F39" opacity="1.000000" stroke="none" d=" M183.865631,201.092041   C188.350128,211.425522 192.326248,221.939377 196.715240,232.277969   C198.714325,236.986938 201.529266,241.349564 203.994629,246.684082   C204.220795,249.468735 204.338470,251.452515 204.647247,253.406082   C206.092255,262.548340 207.589905,271.682281 209.068741,280.819183   C198.896118,282.580475 191.049713,277.749634 183.233307,271.749573   C182.304031,270.368469 181.921783,268.932526 181.126068,267.782806   C171.978455,254.565460 168.046494,239.835785 168.877182,223.919769   C169.408081,213.747467 174.095779,205.841309 183.865631,201.092041  z"/>
<path fill="#854039" opacity="1.000000" stroke="none" d=" M476.024109,266.443634   C474.653778,267.960205 473.065948,269.081177 471.769440,270.473450   C465.804291,276.879211 458.996490,281.418213 449.359802,280.423798   C449.425568,277.066132 450.100433,274.205750 450.331421,271.309937   C450.711182,266.548401 450.803314,261.763885 451.016693,256.989075   C452.406860,255.547028 454.385529,254.347565 455.095551,252.625153   C461.719116,236.556854 468.124908,220.398788 474.902039,204.038757   C483.323151,208.978348 485.933411,217.027252 486.188477,225.948624   C486.555939,238.799942 483.396362,250.907944 477.355865,262.269379   C476.712555,263.479309 476.404449,264.867493 476.024109,266.443634  z"/>
<path fill="#FFDFDE" opacity="1.000000" stroke="none" d=" M21.535049,662.375366   C68.839211,662.100159 115.875488,662.123230 163.358795,662.207275   C150.700958,666.001892 137.596115,669.735657 124.235809,673.741638   C122.879883,674.107239 121.779396,674.200562 119.933334,674.295288   C118.476913,674.385254 117.766083,674.473694 116.599174,674.441650   C113.811600,674.283569 111.480164,674.217712 109.148598,674.212830   C80.156456,674.151733 51.164288,674.099487 22.172127,674.044922   C21.870470,670.254517 21.568813,666.464050 21.535049,662.375366  z"/>
<path fill="#C7A9AB" opacity="1.000000" stroke="none" d=" M611.204651,576.358459   C609.586975,576.838684 607.934021,577.068909 606.280884,577.069458   C562.153259,577.082947 518.025696,577.072815 473.430298,576.997925   C484.905518,573.627808 496.849823,570.331299 508.789825,567.019165   C510.382416,566.577393 511.953033,566.056519 513.795410,565.312988   C515.770996,565.010620 517.484985,564.967407 520.086731,564.926453   C547.233582,564.940063 573.492737,564.969055 599.751770,564.918762   C601.315308,564.915771 602.877747,564.277039 604.440674,563.934082   C606.683533,567.956543 608.926392,571.979004 611.204651,576.358459  z"/>
<path fill="#ff7383" opacity="1.000000" stroke="none" d=" M22.051105,674.495789   C51.164288,674.099487 80.156456,674.151733 109.148598,674.212830   C111.480164,674.217712 113.811600,674.283569 116.616982,674.582275   C117.090866,674.843384 117.175850,675.116943 117.175842,675.116943   C106.859192,678.067078 96.551384,681.048584 86.223526,683.958923   C74.929764,687.141479 63.617443,690.258057 51.673660,693.683411   C48.720997,694.519775 46.407894,695.076172 44.094784,695.632568   C37.317802,695.632507 30.540825,695.632507 22.932644,695.632507   C22.581310,688.383484 22.255695,681.665039 22.051105,674.495789  z"/>
<path fill="#ff7383" opacity="1.000000" stroke="none" d=" M44.545509,695.739197   C46.407894,695.076172 48.720997,694.519775 51.413929,693.952515   C59.621384,693.974060 67.449013,694.034668 75.276634,694.034912   C256.832489,694.041077 438.388306,694.025818 619.944092,694.118164   C625.091370,694.120789 629.355957,694.208557 628.275208,687.192444   C628.232178,686.913391 628.914429,686.522522 629.644470,686.095337   C630.035278,695.534790 630.035767,695.796936 620.486511,695.815430   C566.154114,695.920776 511.821533,695.901550 457.489014,695.904419   C320.990875,695.911682 184.492767,695.908264 47.994644,695.906311   C46.995174,695.906311 45.995705,695.866882 44.545509,695.739197  z"/>
<path fill="#FFF0F1" opacity="1.000000" stroke="none" d=" M63.978558,543.279297   C169.900970,543.025940 275.823456,543.007324 381.745911,543.000122   C450.195892,542.995483 518.645874,543.007446 587.560059,543.035767   C588.018311,543.375488 588.022156,543.691345 587.562195,544.311462   C585.756470,544.633057 584.424438,544.665161 583.092407,544.665222   C412.050232,544.669373 241.008072,544.671753 69.965904,544.664978   C67.971069,544.664856 65.976242,544.543701 63.981411,544.479065   C63.958630,544.159058 63.957695,543.838989 63.978558,543.279297  z"/>
<path fill="#ff7383" opacity="1.000000" stroke="none" d=" M604.281921,563.607849   C602.877747,564.277039 601.315308,564.915771 599.751770,564.918762   C573.492737,564.969055 547.233582,564.940063 520.513977,564.871582   C533.276672,561.219299 546.470764,557.512512 559.732544,554.065918   C569.495972,551.528503 579.347717,549.331299 589.790161,546.878540   C590.703735,546.599731 590.903625,546.356262 591.019897,546.044067   C595.387634,551.789917 599.755432,557.535706 604.281921,563.607849  z"/>
<path fill="#FFEFF0" opacity="1.000000" stroke="none" d=" M387.010651,599.860046   C386.572479,599.917175 386.134308,599.974243 385.365479,600.047119   C382.984222,599.708557 380.933746,599.045227 378.882996,599.044312   C265.764435,598.994446 152.645828,599.004456 39.527241,598.968384   C37.243408,598.967651 34.959724,598.493958 32.291420,598.035767   C31.928524,597.497620 31.950184,597.164734 32.030701,596.679443   C32.089558,596.527039 32.500145,596.306580 32.690872,596.500122   C33.272076,596.837708 33.662552,596.981812 34.053028,597.125854   C34.478294,597.167786 34.903561,597.209717 36.110130,597.228027   C151.282639,597.213806 265.673828,597.224548 380.065033,597.226318   C383.392334,597.226379 386.719604,597.131531 390.046906,597.080933   C390.440613,597.153870 390.834320,597.226807 391.578125,597.506836   C391.928192,597.713867 392.099457,598.046692 392.099457,598.046692   C391.035858,598.401978 389.972290,598.757263 388.306152,599.145386   C387.381287,599.312744 387.150299,599.540039 387.010651,599.860046  z"/>
<path fill="#281F2A" opacity="1.000000" stroke="none" d=" M120.575378,387.499573   C122.813583,387.043579 125.222366,386.722687 127.621078,386.785736   C132.272476,386.907928 133.376968,389.834747 133.018341,393.919098   C132.838959,395.962128 132.987106,398.033905 132.987106,400.826782   C126.529205,402.024628 119.729408,406.154724 112.191093,401.434662   C109.644356,399.839966 104.032578,403.678925 104.146767,406.696899   C104.175110,407.446106 105.031120,408.733582 105.613953,408.797638   C108.843491,409.152588 112.117233,409.093384 115.352730,409.411285   C116.929771,409.566315 119.605202,409.957550 119.787453,410.719360   C120.302017,412.870178 119.973938,415.298523 119.609947,417.558228   C119.344513,419.205994 118.154121,420.724823 117.986511,422.363586   C117.735298,424.819672 113.013603,427.963074 109.721916,427.554901   C108.659897,427.423218 107.581512,427.423431 106.510620,427.363251   C107.177872,428.301331 107.845123,429.239410 107.973564,429.419983   C106.420563,432.706512 105.344009,435.850464 103.544434,438.504089   C102.234497,440.435730 99.969955,441.720032 97.432938,443.890015   C97.432938,446.374664 97.432938,450.075928 97.432938,452.513428   C100.457657,458.819183 103.171997,464.034698 102.956726,470.713257   C88.468498,455.066620 93.175148,435.125183 115.622772,417.578827   C112.686295,416.950562 109.621140,416.727722 106.913376,415.626251   C101.098900,413.261017 99.503960,405.707977 104.706268,402.503601   C109.551743,399.519043 115.678429,398.491364 121.351807,397.032898   C123.725311,396.422699 126.384598,396.924164 129.463455,396.856567   C130.309265,396.618561 130.605560,396.444153 130.901855,396.269775   C130.683167,396.097595 130.464478,395.925385 130.245789,395.753174   C127.077675,393.104858 123.909538,390.456512 120.575378,387.499573  z"/>
<path fill="#ff7383" opacity="1.000000" stroke="none" d=" M63.695061,544.523376   C65.976242,544.543701 67.971069,544.664856 69.965904,544.664978   C241.008072,544.671753 412.050232,544.669373 583.092407,544.665222   C584.424438,544.665161 585.756470,544.633057 587.553101,544.549194   C588.691833,544.672119 589.365967,544.861755 590.135986,545.397095   C588.238525,545.828430 586.245239,545.989197 584.251892,545.989319   C412.614624,546.001648 240.977356,546.003418 69.340088,545.980469   C67.374756,545.980225 65.409462,545.648254 63.162064,545.138000   C63.056221,544.725830 63.232468,544.646729 63.695061,544.523376  z"/>
<path fill="#281F2A" opacity="1.000000" stroke="none" d=" M120.656204,499.870972   C120.656204,499.870972 120.307732,499.791473 120.132126,499.829132   C121.405029,490.816925 126.334435,483.526001 133.118683,475.738892   C122.745651,477.402618 113.555946,479.843109 105.125374,473.314209   C107.706345,473.537567 110.107925,473.597504 112.669197,471.514465   C114.038132,470.401123 116.944092,470.900482 119.114922,471.107239   C123.856430,471.558929 128.592880,472.164368 133.285446,472.973572   C134.889389,473.250153 136.356033,474.322998 138.962845,475.531586   C136.365036,476.696228 134.976990,477.318512 133.099976,478.160004   C133.773804,480.056366 134.292236,481.906525 135.075943,483.636505   C136.543030,486.874969 138.419128,486.585938 140.845917,484.396576   C142.820694,482.614990 145.047302,480.970551 147.428345,479.812408   C151.695816,477.736664 153.264648,479.842285 152.689926,484.648804   C141.806061,490.119873 131.231140,494.995422 120.656204,499.870972  M129.173676,484.497253   C129.861328,484.867554 130.548965,485.237885 131.236603,485.608215   C131.386902,485.041901 131.537201,484.475586 131.687500,483.909271   C130.901855,483.879608 130.116211,483.849976 129.173676,484.497253  M126.527672,494.314545   C125.979736,493.975281 125.431801,493.636047 124.883865,493.296814   C124.748779,493.571472 124.613693,493.846161 124.478600,494.120819   C125.015175,494.326202 125.551758,494.531555 126.527672,494.314545  z"/>
<path fill="#281F2A" opacity="1.000000" stroke="none" d=" M111.451103,353.136353   C111.762779,355.197418 111.842514,357.508484 111.855415,359.819946   C111.878685,363.991333 111.861992,368.162903 111.861992,372.364532   C118.081841,372.055176 118.963478,372.905487 118.993706,378.652283   C119.004150,380.637665 118.942177,382.623444 118.865372,385.104431   C109.854042,376.382507 106.684708,365.793152 111.451103,353.136353  z"/>
<path fill="#ff7383" opacity="1.000000" stroke="none" d=" M628.966248,674.694153   C629.313354,674.226990 629.693542,674.176453 630.363159,674.132629   C630.623840,676.880310 630.595093,679.621277 630.381592,682.709473   C629.797729,680.408081 629.398560,677.759460 628.966248,674.694153  z"/>
<path fill="#ff7383" opacity="1.000000" stroke="none" d=" M590.922363,545.868530   C590.903625,546.356262 590.703735,546.599731 590.193848,546.854126   C590.020386,546.707642 590.073242,546.481567 590.277954,545.937256   C590.429932,545.618958 590.824768,545.692932 590.922363,545.868530  z"/>
<path fill="#ff7383" opacity="1.000000" stroke="none" d=" M620.138428,596.743164   C619.978821,597.019470 619.782959,597.028320 619.291870,596.773743   C618.996521,596.510376 618.980896,596.019531 618.980896,596.019531   C618.980896,596.019531 619.290588,595.748413 619.462891,595.632690   C619.790894,595.836487 619.946533,596.156128 620.138428,596.743164  z"/>
<path fill="#A9534F" opacity="1.000000" stroke="none" d=" M450.995209,256.588440   C450.803314,261.763885 450.711182,266.548401 450.331421,271.309937   C450.100433,274.205750 449.425568,277.066132 448.925232,280.349152   C445.628296,290.643585 442.693298,300.658661 439.015991,310.393280   C430.591095,332.695679 418.662323,352.883972 401.007935,369.202637   C395.433960,374.354950 389.044159,378.624695 382.481567,383.628174   C373.354309,387.310974 365.025269,392.142303 356.131073,393.658630   C343.834473,395.755035 331.114441,395.400726 318.571533,396.009033   C308.266144,396.508789 298.550018,393.768005 289.143829,389.986389   C283.178833,387.588257 277.468536,384.556519 271.643982,381.808960   C268.974670,379.604523 266.329071,377.370667 263.632294,375.200317   C243.253616,358.799347 229.577896,337.575714 220.087067,313.569794   C215.946793,303.097473 213.025009,292.143433 209.309296,281.113647   C207.589905,271.682281 206.092255,262.548340 204.647247,253.406082   C204.338470,251.452515 204.220795,249.468735 204.033325,247.015106   C205.043137,245.637619 206.753387,244.858841 206.917496,243.832779   C209.059219,230.442307 211.600983,217.070511 212.770813,203.583740   C213.769806,192.066711 213.011322,180.403793 213.378159,168.816406   C213.419998,167.494614 215.476730,165.686142 216.993500,165.062912   C221.884445,163.053146 226.959717,161.492020 232.228455,159.487091   C237.494049,157.471512 242.603882,155.985443 247.477173,153.936768   C267.283234,145.610413 285.454620,134.575882 300.757080,119.409042   C312.427734,107.841797 321.769073,94.524849 327.257385,78.806252   C327.523529,78.044022 327.956970,77.340225 328.005646,77.240135   C333.659668,86.332245 338.948853,95.941833 345.290741,104.797554   C357.123474,121.320587 373.138672,133.199875 390.562256,143.270050   C406.928436,152.729126 424.442963,159.465622 442.550537,164.689911   C445.841736,165.639481 446.654663,166.745483 446.361176,170.499542   C444.114319,199.239944 444.243073,227.907211 450.995209,256.588440  M342.709381,292.942413   C347.230621,289.357910 351.879608,285.917175 356.185730,282.090607   C357.301422,281.099182 358.087494,278.731506 357.759857,277.281982   C355.360413,266.666992 352.707458,256.106964 349.960907,245.574829   C349.412659,243.472427 348.119293,241.564346 347.169495,239.566666   C346.160370,241.271149 345.860016,242.711761 346.065308,244.076294   C347.535767,253.850967 348.824249,263.667938 350.787231,273.346405   C351.594147,277.324829 350.909851,280.136139 348.435089,283.172577   C345.974670,286.191437 344.107513,289.693817 341.684784,293.096405   C341.794861,293.070526 341.904938,293.044617 342.709381,292.942413  M363.846466,189.021362   C382.723602,176.513199 401.462982,178.074356 420.132446,189.530548   C421.744995,190.520050 423.510376,191.260529 426.053619,192.545593   C425.578186,190.877716 425.500092,190.250397 425.232941,189.717911   C418.387939,176.075302 402.017517,166.831726 387.163116,169.255051   C375.721954,171.121521 366.794098,177.133530 362.427887,188.996826   C362.473633,189.209702 362.519379,189.422562 362.565125,189.635422   C362.758881,189.477905 362.952637,189.320404 363.846466,189.021362  M294.111664,327.368805   C299.196106,329.414612 304.151337,331.903931 309.387299,333.429749   C332.633301,340.203979 355.044861,339.478790 375.629578,325.013855   C377.539612,323.671661 379.222015,322.005493 380.951965,320.539062   C348.572510,320.539062 316.658356,320.539062 284.744232,320.539062   C284.676117,320.983978 284.608032,321.428864 284.539948,321.873779   C287.509125,323.593750 290.478333,325.313721 294.111664,327.368805  M287.263519,178.210663   C275.876282,169.132263 263.480469,165.798828 249.632935,171.994293   C241.830704,175.485031 236.378021,181.301208 233.560547,189.983643   C255.204636,173.864365 276.004181,179.431076 296.569458,192.668777   C296.890381,192.042145 297.211334,191.415512 297.532288,190.788879   C294.298431,186.739487 291.064606,182.690094 287.263519,178.210663  M393.970062,214.191254   C385.439331,211.866470 377.721405,213.129227 371.776001,220.054474   C367.295166,225.273773 365.932739,234.320969 368.494324,239.607086   C368.779449,237.813812 368.945953,236.351273 369.250519,234.918060   C371.243164,225.541092 376.555054,219.767624 383.941040,218.902283   C395.138855,217.590378 402.510864,222.486542 406.929108,234.176453   C407.585052,235.911942 408.219391,237.655609 408.863739,239.395508   C409.194580,226.404343 404.865295,219.215561 393.970062,214.191254  M277.028137,221.109299   C286.379974,224.144485 289.794373,232.318680 293.447052,240.340393   C293.385162,230.955475 290.810944,222.704620 282.308685,217.909653   C274.836212,213.695450 266.957642,213.663116 259.673126,218.659866   C251.732773,224.106506 251.335510,232.267273 252.207108,241.244217   C258.929657,221.761597 262.474884,218.818008 277.028137,221.109299  z"/>
<path fill="#ff7383" opacity="1.000000" stroke="none" d=" M121.153412,499.896362   C131.231140,494.995422 141.806061,490.119873 152.689209,485.055054   C158.476181,482.966400 163.954956,481.067078 170.136658,479.404266   C171.995438,479.730499 173.151260,479.898773 174.307098,479.898834   C275.250092,479.904724 376.193054,479.901184 477.136047,479.859100   C478.728088,479.858429 480.319916,479.372772 481.911865,479.113403   C498.460449,485.860626 515.009094,492.607819 531.768677,499.612427   C496.662231,499.897095 461.344818,499.946655 426.027435,499.947388   C324.568481,499.949432 223.109558,499.931732 121.153412,499.896362  z"/>
<path fill="#ff7383" opacity="1.000000" stroke="none" d=" M211.993591,467.683868   C218.247421,465.749847 224.498276,463.806152 230.755829,461.884247   C238.912292,459.379120 246.774948,456.383087 252.971252,449.109131   C300.254639,448.977203 346.774292,449.006561 393.293793,448.938049   C394.870850,448.935730 396.446472,447.948212 398.052032,447.240356   C398.081268,447.060852 398.376099,446.847809 398.376099,446.847809   C403.449585,454.040710 410.380951,458.515076 418.776123,460.914154   C425.764709,462.911316 432.724884,465.008087 439.399719,467.371948   C363.399048,467.683380 287.696320,467.683624 211.993591,467.683868  z"/>
<path fill="#FEDEDD" opacity="1.000000" stroke="none" d=" M211.578369,467.807556   C287.696320,467.683624 363.399048,467.683380 439.568176,467.690979   C447.599915,469.471436 455.210205,471.074982 462.716736,473.069061   C468.965668,474.729034 475.092743,476.847565 481.592834,478.938202   C480.319916,479.372772 478.728088,479.858429 477.136047,479.859100   C376.193054,479.901184 275.250092,479.904724 174.307098,479.898834   C173.151260,479.898773 171.995438,479.730499 170.515198,479.415466   C183.848236,475.437164 197.505692,471.684204 211.578369,467.807556  z"/>
<path fill="#863F38" opacity="1.000000" stroke="none" d=" M271.474579,382.245453   C277.468536,384.556519 283.178833,387.588257 289.143829,389.986389   C298.550018,393.768005 308.266144,396.508789 318.571533,396.009033   C331.114441,395.400726 343.834473,395.755035 356.131073,393.658630   C365.025269,392.142303 373.354309,387.310974 382.274567,383.908752   C383.056427,391.353943 383.460083,398.851105 383.968506,406.341095   C384.099854,408.276337 384.560242,410.189240 384.571930,412.595276   C371.032318,415.010712 357.845276,417.910919 344.536407,418.667450   C319.506622,420.090210 294.471222,419.360016 269.857361,413.595490   C270.339966,403.290985 270.822571,392.986450 271.474579,382.245453  z"/>
<path fill="#ff7383" opacity="1.000000" stroke="none" d=" M269.507629,413.618652   C294.471222,419.360016 319.506622,420.090210 344.536407,418.667450   C357.845276,417.910919 371.032318,415.010712 384.668762,412.991455   C385.742126,414.472382 386.579193,415.992126 387.071167,417.616333   C388.744873,423.142090 390.296844,428.704681 391.459686,434.640808   C347.530670,434.997894 304.037323,434.967407 260.543945,434.936890   C262.054810,428.693756 263.599243,422.458466 265.058990,416.203400   C265.597900,413.894043 266.672516,412.707489 269.507629,413.618652  z"/>
<path fill="#FFE0DF" opacity="1.000000" stroke="none" d=" M260.329529,435.179138   C304.037323,434.967407 347.530670,434.997894 391.489197,435.017517   C393.999634,438.737305 396.044983,442.468018 398.233215,446.523254   C398.376099,446.847809 398.081268,447.060852 397.582703,447.201355   C350.862488,447.325287 304.640869,447.305664 258.419220,447.305359   C256.928253,447.305328 255.437271,447.502136 253.946289,447.607147   C256.002563,443.545227 258.058838,439.483307 260.329529,435.179138  z"/>
<path fill="#ff7383" opacity="1.000000" stroke="none" d=" M253.754425,447.625549   C255.437271,447.502136 256.928253,447.305328 258.419220,447.305359   C304.640869,447.305664 350.862488,447.325287 397.553467,447.380859   C396.446472,447.948212 394.870850,448.935730 393.293793,448.938049   C346.774292,449.006561 300.254639,448.977203 253.249298,448.937500   C253.029907,448.489075 253.296249,448.066528 253.754425,447.625549  z"/>
<path fill="#FFFFFF" opacity="1.000000" stroke="none" d=" M177.427261,305.656738   C177.728027,305.897858 177.820648,306.298767 177.913269,306.699707   C177.638428,306.700043 177.363571,306.700378 176.961182,306.436707   C176.962143,306.053986 177.090622,305.935272 177.427261,305.656738  z"/>
<path fill="#ff7383" opacity="1.000000" stroke="none" d=" M117.459137,675.093872   C117.175850,675.116943 117.090866,674.843384 117.073059,674.702759   C117.766083,674.473694 118.476913,674.385254 119.533066,674.402222   C119.166397,674.695496 118.454407,674.883179 117.459137,675.093872  z"/>
<path fill="#ff7383" opacity="1.000000" stroke="none" d=" M389.760620,596.766724   C386.719604,597.131531 383.392334,597.226379 380.065033,597.226318   C265.673828,597.224548 151.282639,597.213806 36.421463,597.143677   C37.665348,596.721802 39.379059,596.044983 41.093067,596.044250   C155.746933,595.993958 270.400818,595.996399 385.054718,596.016418   C386.527954,596.016663 388.001160,596.300842 389.760620,596.766724  z"/>
<path fill="#ff7383" opacity="1.000000" stroke="none" d=" M415.724670,596.715088   C411.301331,597.029785 406.594482,597.048279 401.438354,596.781006   C400.989044,596.495300 401.017578,596.018250 401.017578,596.018250   C402.369843,595.989746 403.722137,595.961182 405.474976,595.917725   C409.064087,596.074829 412.252655,596.246826 415.724670,596.715088  z"/>
<path fill="#ff7383" opacity="1.000000" stroke="none" d=" M400.629700,596.010071   C401.017578,596.018250 400.989044,596.495300 400.971252,596.733521   C399.583923,596.999207 398.214417,597.026794 396.434692,597.020752   C397.430267,596.658752 398.836029,596.330322 400.629700,596.010071  z"/>
<path fill="#FFB8B2" opacity="1.000000" stroke="none" d=" M392.408936,598.046143   C392.099457,598.046692 391.928192,597.713867 391.878723,597.533875   C392.609283,597.274231 393.389313,597.194580 394.558929,597.182373   C394.205139,597.515015 393.461761,597.780273 392.408936,598.046143  z"/>
<path fill="#ff7383" opacity="1.000000" stroke="none" d=" M33.934486,596.870239   C33.662552,596.981812 33.272076,596.837708 32.879601,596.363464   C33.190384,596.227051 33.503166,596.420898 33.934486,596.870239  z"/>
<path fill="#ff7383" opacity="1.000000" stroke="none" d=" M426.744263,596.725464   C424.633179,597.034607 422.256927,597.055969 419.436310,597.044434   C421.487671,596.820190 423.983368,596.628906 426.744263,596.725464  z"/>
<path fill="#ff7383" opacity="1.000000" stroke="none" d=" M612.783569,596.743286   C611.616455,597.038452 610.220886,597.059387 608.407593,597.047546   C609.511597,596.832947 611.033386,596.651062 612.783569,596.743286  z"/>
<path fill="#ff7383" opacity="1.000000" stroke="none" d=" M618.682373,596.033569   C618.980896,596.019531 618.996521,596.510376 618.998291,596.755920   C618.552795,597.028748 618.105591,597.056030 617.323120,597.052185   C617.453186,596.696533 617.918518,596.372070 618.682373,596.033569  z"/>
<path fill="#FFE1E0" opacity="1.000000" stroke="none" d=" M387.251404,599.813477   C387.150299,599.540039 387.381287,599.312744 387.951935,599.138184   C388.032532,599.393372 387.796509,599.616333 387.251404,599.813477  z"/>
<path fill="#FFFFFF" opacity="1.000000" stroke="none" d=" M130.060791,395.944397   C130.464478,395.925385 130.683167,396.097595 130.901855,396.269775   C130.605560,396.444153 130.309265,396.618561 129.769363,396.664703   C129.642441,396.402863 129.759109,396.269257 130.060791,395.944397  z"/>
<path fill="#281F2A" opacity="1.000000" stroke="none" d=" M129.252121,484.158783   C130.116211,483.849976 130.901855,483.879608 131.687500,483.909271   C131.537201,484.475586 131.386902,485.041901 131.236603,485.608215   C130.548965,485.237885 129.861328,484.867554 129.252121,484.158783  z"/>
<path fill="#281F2A" opacity="1.000000" stroke="none" d=" M126.308006,494.525726   C125.551758,494.531555 125.015175,494.326202 124.478600,494.120819   C124.613693,493.846161 124.748779,493.571472 124.883865,493.296814   C125.431801,493.636047 125.979736,493.975281 126.308006,494.525726  z"/>
<path fill="#FDFBFB" opacity="1.000000" stroke="none" d=" M293.779602,327.201233   C290.478333,325.313721 287.509125,323.593750 284.539948,321.873779   C284.608032,321.428864 284.676117,320.983978 284.744232,320.539062   C316.658356,320.539062 348.572510,320.539062 380.951965,320.539062   C379.222015,322.005493 377.539612,323.671661 375.629578,325.013855   C355.044861,339.478790 332.633301,340.203979 309.387299,333.429749   C304.151337,331.903931 299.196106,329.414612 293.779602,327.201233  z"/>
<path fill="#392836" opacity="1.000000" stroke="none" d=" M287.547119,178.425690   C291.064606,182.690094 294.298431,186.739487 297.532288,190.788879   C297.211334,191.415512 296.890381,192.042145 296.569458,192.668777   C276.004181,179.431076 255.204636,173.864365 233.560547,189.983643   C236.378021,181.301208 241.830704,175.485031 249.632935,171.994293   C263.480469,165.798828 275.876282,169.132263 287.547119,178.425690  z"/>
<path fill="#382836" opacity="1.000000" stroke="none" d=" M362.716156,188.731613   C366.794098,177.133530 375.721954,171.121521 387.163116,169.255051   C402.017517,166.831726 418.387939,176.075302 425.232941,189.717911   C425.500092,190.250397 425.578186,190.877716 426.053619,192.545593   C423.510376,191.260529 421.744995,190.520050 420.132446,189.530548   C401.462982,178.074356 382.723602,176.513199 363.390442,188.982742   C362.934418,188.944122 362.716156,188.731613 362.716156,188.731613  z"/>
<path fill="#874039" opacity="1.000000" stroke="none" d=" M341.980164,292.984131   C344.107513,289.693817 345.974670,286.191437 348.435089,283.172577   C350.909851,280.136139 351.594147,277.324829 350.787231,273.346405   C348.824249,263.667938 347.535767,253.850967 346.065308,244.076294   C345.860016,242.711761 346.160370,241.271149 347.169495,239.566666   C348.119293,241.564346 349.412659,243.472427 349.960907,245.574829   C352.707458,256.106964 355.360413,266.666992 357.759857,277.281982   C358.087494,278.731506 357.301422,281.099182 356.185730,282.090607   C351.879608,285.917175 347.230621,289.357910 342.354401,292.971100   C341.999420,292.999786 341.980164,292.984131 341.980164,292.984131  z"/>
<path fill="#3E2B37" opacity="1.000000" stroke="none" d=" M394.343445,214.326172   C404.865295,219.215561 409.194580,226.404343 408.863739,239.395508   C408.219391,237.655609 407.585052,235.911942 406.929108,234.176453   C402.510864,222.486542 395.138855,217.590378 383.941040,218.902283   C376.555054,219.767624 371.243164,225.541092 369.250519,234.918060   C368.945953,236.351273 368.779449,237.813812 368.494324,239.607086   C365.932739,234.320969 367.295166,225.273773 371.776001,220.054474   C377.721405,213.129227 385.439331,211.866470 394.343445,214.326172  z"/>
<path fill="#3D2A37" opacity="1.000000" stroke="none" d=" M276.631165,221.041031   C262.474884,218.818008 258.929657,221.761597 252.207108,241.244217   C251.335510,232.267273 251.732773,224.106506 259.673126,218.659866   C266.957642,213.663116 274.836212,213.695450 282.308685,217.909653   C290.810944,222.704620 293.385162,230.955475 293.447052,240.340393   C289.794373,232.318680 286.379974,224.144485 276.631165,221.041031  z"/>
<path fill="#382836" opacity="1.000000" stroke="none" d=" M363.040405,189.053497   C362.952637,189.320404 362.758881,189.477905 362.565125,189.635437   C362.519379,189.422562 362.473633,189.209702 362.572021,188.864227   C362.716156,188.731613 362.934418,188.944122 363.040405,189.053497  z"/>
<path fill="#874039" opacity="1.000000" stroke="none" d=" M342.007202,293.009277   C341.904938,293.044617 341.794861,293.070526 341.832458,293.040283   C341.980164,292.984131 341.999420,292.999786 342.007202,293.009277  z"/>
</svg>