<svg xmlns="http://www.w3.org/2000/svg" xmlns:xlink="http://www.w3.org/1999/xlink" version="1.1" id="Layer_1" x="0px" y="0px" width="100%" viewBox="0 0 624 817" enable-background="new 0 0 624 817" xml:space="preserve">
<path fill="#FFFFFF" opacity="1.000000" stroke="none" d=" M318.000000,818.000000   C212.000000,818.000000 106.500000,818.000000 1.000000,818.000000   C1.000000,545.666687 1.000000,273.333344 1.000000,1.000000   C209.000000,1.000000 417.000000,1.000000 625.000000,1.000000   C625.000000,273.333344 625.000000,545.666687 625.000000,818.000000   C522.833313,818.000000 420.666656,818.000000 318.000000,818.000000  M446.413177,262.954895   C452.900726,235.383057 453.046936,207.981400 445.100067,180.569229   C436.915314,152.336548 420.983459,131.895950 391.183716,123.783371   C387.796692,101.932838 376.172028,84.957130 359.607330,71.053741   C339.795685,54.425068 316.260895,48.472885 291.004272,47.931419   C273.048859,47.546490 258.142548,54.213219 247.024200,68.392136   C240.360321,76.890396 234.223541,85.808685 228.000107,94.644035   C218.039001,108.785721 205.367844,119.294083 188.786804,124.857109   C185.349976,126.010178 182.143906,127.851089 178.102982,129.546234   C166.772278,135.565552 156.678925,142.777222 152.280762,156.287903   C152.185715,156.858551 152.090668,157.429199 151.639908,158.356415   C151.621292,158.523270 151.602676,158.690109 151.186234,159.442520   C146.546127,175.380981 144.727478,191.536926 146.934341,208.103729   C148.283905,218.234833 147.667664,228.279861 143.732315,238.561096   C137.705215,245.804794 131.676315,253.046997 125.651581,260.292664   C120.970116,265.922852 116.293877,271.557404 111.615318,277.190002   C111.935928,277.532043 112.256531,277.874084 112.577133,278.216156   C113.250526,277.954254 114.102951,277.871338 114.570526,277.403687   C121.937737,270.035004 129.060730,262.410370 136.637085,255.265762   C144.874161,247.498123 151.073395,238.618134 152.537201,227.258530   C153.400269,220.560913 153.026917,213.709106 153.316101,206.931183   C153.729919,197.231628 154.241150,187.536240 155.340942,177.945984   C155.764542,177.987305 156.188156,178.028610 156.603821,178.858322   C156.068405,185.425064 154.977600,192.005386 155.137909,198.555099   C155.339203,206.780045 156.905167,214.964737 157.272491,223.194031   C157.877838,236.755951 152.888062,248.194778 143.034058,257.546387   C139.653824,260.754272 136.376007,264.073730 133.127335,267.415985   C112.340569,288.801514 109.776894,314.872711 126.270432,339.638824   C130.503067,345.994446 135.492188,351.843262 140.061966,357.978394   C143.633942,362.773926 147.546585,367.402985 150.413528,372.599426   C151.836258,375.178192 152.502502,379.433899 151.361893,381.960968   C144.437820,397.301666 125.839333,398.907745 116.218452,385.244446   C114.083519,382.212494 112.396439,378.865204 110.332176,375.373932   C105.997856,393.846954 121.831619,420.153137 144.093781,426.026367   C170.217651,432.918304 201.203262,412.656555 207.740387,385.186005   C210.278305,389.840698 212.816223,394.495422 215.340790,399.969574   C211.819244,421.357391 197.594833,433.425659 179.009033,441.753540   C197.977325,437.371582 212.230072,427.133301 220.777878,409.074371   C221.484192,409.958557 222.260620,410.795959 222.886307,411.733978   C232.261276,425.788574 243.649704,437.838654 257.895691,447.895233   C257.379974,455.521332 257.385559,463.227905 256.224121,470.754364   C254.560608,481.534363 252.044708,492.182892 249.387558,503.382355   C244.604248,518.888977 234.142700,528.149719 218.458282,531.951477   C211.876358,533.546875 205.439697,535.741577 198.111633,537.695312   C190.442612,539.852234 182.773590,542.009216 174.308609,544.129944   C168.953934,545.792664 163.442230,547.072510 158.274857,549.191956   C144.398560,554.883362 130.669540,560.933838 116.183807,566.992920   C112.677925,568.896912 109.122292,570.715332 105.673805,572.718140   C70.600426,593.088196 43.937859,620.984558 29.549307,659.396057   C17.355907,691.947449 15.046261,725.689087 19.157814,760.802429   C20.706964,761.123352 22.255875,761.723755 23.805300,761.725098   C93.527466,761.785339 163.249680,761.794617 232.971878,761.794434   C234.293289,761.794434 235.614700,761.608948 237.839996,761.796753   C244.833237,761.759521 251.826492,761.722229 259.775330,761.841553   C292.840668,761.866760 325.906006,761.921509 358.971344,761.905334   C376.414185,761.896790 393.856964,761.764832 411.872162,761.822083   C412.260712,761.812317 412.649292,761.802551 413.949982,761.982239   C420.774414,761.968445 427.598846,761.943176 434.423279,761.942749   C490.191589,761.939148 545.959961,761.958069 601.728088,761.857971   C603.489868,761.854797 605.249512,760.640869 607.097717,759.143494   C609.197449,741.425537 609.171509,723.741272 607.244507,705.973083   C604.630859,681.872192 598.336548,658.987976 586.435181,637.787659   C572.705383,613.330322 553.671692,593.919312 529.633484,578.400635   C514.458191,570.643127 499.568237,562.242004 484.011322,555.345276   C472.895630,550.417419 460.885010,547.508240 448.625366,543.328552   C440.880371,541.238403 433.135345,539.148254 424.625763,536.766663   C417.016144,534.523621 409.364777,532.411865 401.807190,530.005371   C391.691437,526.784302 383.759827,520.718872 379.839111,510.639557   C376.565704,502.224152 374.057831,493.510956 371.172577,484.066193   C370.128815,472.704224 369.085022,461.342255 368.443512,449.454132   C375.242035,444.167328 382.533508,439.399261 388.745880,433.495636   C406.801758,416.337280 418.312225,394.937775 426.820221,371.818970   C429.838501,363.617432 432.311798,355.215332 435.894409,347.019836   C446.006927,347.392578 453.201660,342.079620 459.086761,334.687012   C466.766602,325.039886 470.332275,313.580414 471.774811,301.601868   C474.043091,282.766113 468.991425,268.235626 447.756073,264.128693   C447.270142,264.034729 446.805176,263.832214 446.413177,262.954895  z"/>
<path fill="#FFAD9F" opacity="1.000000" stroke="none" d=" M257.925354,447.025055   C243.649704,437.838654 232.261276,425.788574 222.886307,411.733978   C222.260620,410.795959 221.484192,409.958557 220.458954,408.623596   C223.248764,399.918457 224.741730,391.312653 223.071625,382.683533   C221.279312,373.422852 218.443176,364.362335 216.010773,355.228271   C214.985016,351.376343 213.720200,347.586456 212.751389,343.721405   C210.867096,336.204193 213.569946,330.260071 218.655197,324.658722   C224.871918,317.811096 230.461304,310.393951 236.660461,303.297180   C237.516510,304.297333 238.034073,305.223419 238.583649,306.206787   C239.388275,303.458405 240.047440,300.706116 240.996964,298.057922   C243.789612,290.269318 249.288620,286.155975 257.053955,286.168457   C266.299652,286.183289 272.182465,291.280579 276.015991,299.220520   C277.191406,301.655029 278.210846,304.164886 279.727692,307.606781   C279.372223,292.313812 272.221924,283.041077 260.289886,281.333679   C253.224625,280.322693 247.290146,282.977051 241.960358,286.747070   C242.604446,279.238586 243.142944,272.148163 243.819855,264.617096   C244.650330,258.084412 245.342361,251.992355 246.470215,245.890579   C260.232849,245.649506 271.236206,252.448898 282.952057,258.368744   C278.680878,245.174896 264.329712,235.498672 248.975296,234.594818   C252.377594,217.781784 264.970825,209.908325 279.876190,208.386261   C296.172791,206.722168 311.743958,202.812637 327.477661,198.283875   C349.707489,191.885284 367.889954,180.913559 381.069672,162.234131   C381.197205,163.151291 381.285461,163.643768 381.337830,164.140045   C384.669403,195.705719 399.573212,220.260986 425.881287,237.999146   C426.997711,238.751907 427.777100,240.648438 427.927551,242.093933   C430.421600,266.051147 432.781036,290.022339 435.192566,313.988220   C435.733795,319.367279 436.358337,324.737976 436.966858,330.542847   C436.337463,336.283722 435.685669,341.594269 435.033875,346.904785   C432.311798,355.215332 429.838501,363.617432 426.820221,371.818970   C418.312225,394.937775 406.801758,416.337280 388.745880,433.495636   C382.533508,439.399261 375.242035,444.167328 367.883606,449.751129   C364.082977,451.689148 360.915619,453.499176 357.589294,454.942932   C339.726105,462.696320 321.077301,463.692169 301.888214,462.206024   C285.748840,460.956055 271.293823,455.808472 257.925354,447.025055  M328.640411,358.754425   C330.905670,357.093811 333.086792,355.300812 335.452057,353.797485   C342.440460,349.355774 345.946533,343.720428 342.312286,335.345032   C341.997223,334.618958 342.211304,333.680573 341.992096,332.892975   C339.632904,324.418060 337.236084,315.953644 334.849518,307.486389   C334.320404,307.621338 333.791260,307.756256 333.262146,307.891205   C331.861908,318.479187 333.927979,328.829834 336.712677,338.905426   C337.989868,343.526581 336.771606,346.276245 334.105072,349.530701   C331.740204,352.417023 329.999298,355.814606 327.682220,359.091187   C327.792358,359.066101 327.902527,359.040985 328.640411,358.754425  M348.467987,255.352753   C349.978394,254.690338 351.589386,254.192520 352.983704,253.340195   C367.674713,244.359711 382.677551,243.574692 398.061218,251.459656   C402.561554,253.766312 407.076904,256.043640 411.833405,258.460449   C408.081390,246.532227 393.492676,235.724960 380.678284,235.070663   C365.264801,234.283676 354.753632,241.612427 347.950104,254.894226   C347.950104,254.894226 347.857880,254.795639 348.467987,255.352753  M317.506714,386.101990   C301.995178,386.101990 286.483673,386.101990 270.972137,386.101990   C297.833466,408.396454 346.890747,409.149017 366.424530,386.102814   C350.294952,386.102814 334.399872,386.102814 317.506714,386.101990  M354.983704,302.222687   C355.223572,301.256744 355.447479,300.286469 355.705841,299.325500   C357.677948,291.990753 361.175415,286.068512 369.492126,284.773102   C378.530762,283.365204 385.484802,286.612091 390.100006,294.485687   C391.884552,297.530151 393.206848,300.845551 394.804382,304.172150   C395.868835,295.103729 390.977234,285.692352 383.239655,281.703552   C375.749939,277.842529 365.540497,278.839478 359.813629,283.991089   C354.238770,289.005981 351.872772,298.282379 354.597778,305.002502   C354.722839,304.173553 354.817841,303.543701 354.983704,302.222687  z"/>
<path fill="#bbcafa" opacity="1.000000" stroke="none" d=" M175.104584,544.166199   C182.773590,542.009216 190.442612,539.852234 198.801773,537.922485   C214.284302,546.648132 229.922348,553.368347 246.557007,556.870972   C263.907349,560.524414 281.572601,562.682373 299.222534,565.842224   C308.859711,566.382935 318.374390,566.591980 327.890167,566.701782   C328.235077,566.705750 328.591278,565.732056 329.367188,565.092407   C347.086578,561.929626 364.564636,559.662903 381.621063,555.618164   C397.098511,551.947815 411.892334,545.819092 425.390350,537.058105   C433.135345,539.148254 440.880371,541.238403 448.862854,543.961182   C449.010162,545.588562 448.991577,546.595825 448.819214,547.576111   C445.229126,567.993042 441.658875,588.413513 438.004364,608.818909   C435.601532,622.235413 433.072296,635.629211 430.255402,649.084229   C415.822205,653.393127 401.778656,657.808960 387.634430,661.874512   C362.035126,669.232666 336.389740,676.431946 310.737457,683.604004   C286.186554,690.468140 261.602417,697.213440 236.862640,703.689575   C226.125366,676.147278 215.534195,648.935730 204.998276,621.702820   C195.003616,595.868896 185.066818,570.012634 175.104584,544.166199  z"/>
<path fill="#853F38" opacity="1.000000" stroke="none" d=" M246.034393,245.900299   C245.342361,251.992355 244.650330,258.084412 243.522141,264.673340   C241.329803,267.193665 239.980026,266.501465 238.273499,264.841309   C225.051208,251.978363 212.512741,238.567505 202.836609,222.714890   C195.031204,209.927124 189.088028,196.363571 184.963486,181.954529   C180.037811,164.746674 178.553131,147.172043 178.831482,129.375000   C182.143906,127.851089 185.349976,126.010178 188.786804,124.857109   C205.367844,119.294083 218.039001,108.785721 228.000107,94.644035   C234.223541,85.808685 240.360321,76.890396 247.024200,68.392136   C258.142548,54.213219 273.048859,47.546490 291.004272,47.931419   C316.260895,48.472885 339.795685,54.425068 359.607330,71.053741   C376.172028,84.957130 387.796692,101.932838 391.155823,124.611137   C390.663757,131.113235 391.085724,137.048340 389.511749,142.396042   C387.532990,149.119110 383.920898,155.361450 381.013611,161.811249   C367.889954,180.913559 349.707489,191.885284 327.477661,198.283875   C311.743958,202.812637 296.172791,206.722168 279.876190,208.386261   C264.970825,209.908325 252.377594,217.781784 248.709839,234.846405   C247.667664,238.957428 246.851028,242.428864 246.034393,245.900299  z"/>
<path fill="#ff7383" opacity="1.000000" stroke="none" d=" M19.073341,760.011292   C15.046261,725.689087 17.355907,691.947449 29.549307,659.396057   C43.937859,620.984558 70.600426,593.088196 105.673805,572.718140   C109.122292,570.715332 112.677925,568.896912 116.692909,567.233826   C129.763947,587.583130 142.358459,607.671204 154.880661,627.804321   C177.649796,664.412415 200.412933,701.024414 223.088715,737.690369   C227.606506,744.995483 231.721771,752.549500 235.551697,759.992493   C163.078278,760.001282 91.075813,760.006287 19.073341,760.011292  z"/>
<path fill="#6F3939" opacity="1.000000" stroke="none" d=" M178.467224,129.460617   C178.553131,147.172043 180.037811,164.746674 184.963486,181.954529   C189.088028,196.363571 195.031204,209.927124 202.836609,222.714890   C212.512741,238.567505 225.051208,251.978363 238.273499,264.841309   C239.980026,266.501465 241.329803,267.193665 243.383728,265.113953   C243.142944,272.148163 242.604446,279.238586 241.734009,287.030243   C239.708694,292.895325 238.015335,298.059204 236.321960,303.223083   C230.461304,310.393951 224.871918,317.811096 218.655197,324.658722   C213.569946,330.260071 210.867096,336.204193 212.751389,343.721405   C213.720200,347.586456 214.985016,351.376343 216.010773,355.228271   C218.443176,364.362335 221.279312,373.422852 223.071625,382.683533   C224.741730,391.312653 223.248764,399.918457 220.128571,408.542694   C212.230072,427.133301 197.977325,437.371582 179.009033,441.753540   C197.594833,433.425659 211.819244,421.357391 215.530533,399.188019   C216.936966,385.056763 213.458008,372.777557 207.103241,359.814240   C207.103241,369.051758 207.103241,376.977356 207.103241,384.902985   C201.203262,412.656555 170.217651,432.918304 144.093781,426.026367   C121.831619,420.153137 105.997856,393.846954 110.332176,375.373932   C112.396439,378.865204 114.083519,382.212494 116.218452,385.244446   C125.839333,398.907745 144.437820,397.301666 151.361893,381.960968   C152.502502,379.433899 151.836258,375.178192 150.413528,372.599426   C147.546585,367.402985 143.633942,362.773926 140.061966,357.978394   C135.492188,351.843262 130.503067,345.994446 126.270432,339.638824   C109.776894,314.872711 112.340569,288.801514 133.127335,267.415985   C136.376007,264.073730 139.653824,260.754272 143.034058,257.546387   C152.888062,248.194778 157.877838,236.755951 157.272491,223.194031   C156.905167,214.964737 155.339203,206.780045 155.137909,198.555099   C154.977600,192.005386 156.068405,185.425064 156.773636,178.072968   C157.812653,172.066879 158.682022,166.846207 159.548752,161.625076   C159.555984,161.581451 159.528000,161.531998 159.516464,161.485260   C159.140030,161.394760 158.763580,161.304276 158.387146,161.213776   C157.161697,166.755539 155.936249,172.297302 154.710785,177.839066   C154.241150,187.536240 153.729919,197.231628 153.316101,206.931183   C153.026917,213.709106 153.400269,220.560913 152.537201,227.258530   C151.073395,238.618134 144.874161,247.498123 136.637085,255.265762   C129.060730,262.410370 121.937737,270.035004 114.570526,277.403687   C114.102951,277.871338 113.250526,277.954254 112.577133,278.216156   C112.256531,277.874084 111.935928,277.532043 111.615318,277.190002   C116.293877,271.557404 120.970116,265.922852 125.651581,260.292664   C131.676315,253.046997 137.705215,245.804794 144.286438,238.211914   C149.732437,231.017532 150.427414,222.754227 149.553894,215.225540   C147.631866,198.659882 147.355453,182.400970 151.359665,166.139557   C151.927521,163.833450 151.533096,161.290359 151.584061,158.856964   C151.602676,158.690109 151.621292,158.523270 152.125061,158.139984   C152.644653,157.247025 152.679108,156.570511 152.713562,155.893997   C156.678925,142.777222 166.772278,135.565552 178.467224,129.460617  M200.261627,331.109314   C200.604324,332.626312 200.947006,334.143280 201.575317,336.924591   C202.232101,327.729858 206.174530,321.582642 211.349091,315.931335   C215.928055,310.930450 220.225311,305.668884 224.560272,300.450409   C225.236191,299.636719 225.450089,298.439270 226.168610,296.725159   C220.438538,301.499023 215.573944,305.742554 210.505844,309.727203   C203.795822,315.002747 200.277695,321.751312 200.261627,331.109314  M226.585800,295.602570   C226.585800,295.602570 226.486832,295.703674 226.585800,295.602570  z"/>
<path fill="#ff7383" opacity="1.000000" stroke="none" d=" M530.033936,578.939270   C553.671692,593.919312 572.705383,613.330322 586.435181,637.787659   C598.336548,658.987976 604.630859,681.872192 607.244507,705.973083   C609.171509,723.741272 609.197449,741.425537 606.584595,759.581177   C547.401245,760.036255 488.730988,760.053711 430.176239,759.739624   C441.006683,739.922791 451.714050,720.433228 462.438446,700.953003   C477.256531,674.036865 492.055817,647.110229 506.925964,620.222839   C514.558228,606.422729 522.326904,592.698059 530.033936,578.939270  z"/>
<path fill="#ff7383" opacity="1.000000" stroke="none" d=" M529.833740,578.669922   C522.326904,592.698059 514.558228,606.422729 506.925964,620.222839   C492.055817,647.110229 477.256531,674.036865 462.438446,700.953003   C451.714050,720.433228 441.006683,739.922791 429.862366,760.017578   C423.967926,761.015564 418.502869,761.404175 413.037842,761.792786   C412.649292,761.802551 412.260712,761.812317 411.588928,761.420471   C411.465698,759.678650 411.625702,758.338440 411.943726,756.605652   C415.562042,736.307739 419.038910,716.405273 422.477448,696.496155   C425.209229,680.679382 427.894012,664.854492 430.599670,649.033203   C433.072296,635.629211 435.601532,622.235413 438.004364,608.818909   C441.658875,588.413513 445.229126,567.993042 448.819214,547.576111   C448.991577,546.595825 449.010162,545.588562 449.187012,544.146057   C460.885010,547.508240 472.895630,550.417419 484.011322,555.345276   C499.568237,562.242004 514.458191,570.643127 529.833740,578.669922  z"/>
<path fill="#FFAD9F" opacity="1.000000" stroke="none" d=" M299.100159,565.494141   C281.572601,562.682373 263.907349,560.524414 246.557007,556.870972   C229.922348,553.368347 214.284302,546.648132 199.214447,537.906738   C205.439697,535.741577 211.876358,533.546875 218.458282,531.951477   C234.142700,528.149719 244.604248,518.888977 249.883789,503.406921   C259.679962,502.201263 269.005432,501.136627 278.274780,499.707977   C300.801636,496.235992 323.303253,492.600159 345.813263,489.019104   C354.281677,487.671906 362.745178,486.293732 371.210907,484.929657   C374.057831,493.510956 376.565704,502.224152 379.839111,510.639557   C383.759827,520.718872 391.691437,526.784302 401.807190,530.005371   C409.364777,532.411865 417.016144,534.523621 425.008057,536.912354   C411.892334,545.819092 397.098511,551.947815 381.621063,555.618164   C364.564636,559.662903 347.086578,561.929626 328.925995,565.059204   C318.406586,565.263062 308.753387,565.378601 299.100159,565.494141  z"/>
<path fill="#ff7383" opacity="1.000000" stroke="none" d=" M236.022644,759.988770   C231.721771,752.549500 227.606506,744.995483 223.088715,737.690369   C200.412933,701.024414 177.649796,664.412415 154.880661,627.804321   C142.358459,607.671204 129.763947,587.583130 117.042023,567.158203   C130.669540,560.933838 144.398560,554.883362 158.274857,549.191956   C163.442230,547.072510 168.953934,545.792664 174.706604,544.148071   C185.066818,570.012634 195.003616,595.868896 204.998276,621.702820   C215.534195,648.935730 226.125366,676.147278 236.936737,704.041138   C244.215759,722.825500 251.250427,740.936768 258.305847,759.260315   C258.442841,759.745972 258.631195,759.954163 258.886017,760.114380   C258.880341,760.131714 258.862213,760.165100 258.833038,760.417725   C258.809143,761.008606 258.814453,761.346802 258.819733,761.684998   C251.826492,761.722229 244.833237,761.759521 237.376694,761.415405   C236.616470,760.685608 236.319565,760.337158 236.022644,759.988770  z"/>
<path fill="#AA5450" opacity="1.000000" stroke="none" d=" M381.069641,162.234131   C383.920898,155.361450 387.532990,149.119110 389.511749,142.396042   C391.085724,137.048340 390.663757,131.113235 391.178223,125.010971   C420.983459,131.895950 436.915314,152.336548 445.100067,180.569229   C453.046936,207.981400 452.900726,235.383057 446.274139,263.765137   C445.085754,279.755707 444.499725,294.988861 442.777252,310.092407   C442.001007,316.898956 438.958649,323.447113 436.944489,330.112518   C436.358337,324.737976 435.733795,319.367279 435.192566,313.988220   C432.781036,290.022339 430.421600,266.051147 427.927551,242.093933   C427.777100,240.648438 426.997711,238.751907 425.881287,237.999146   C399.573212,220.260986 384.669403,195.705719 381.337830,164.140045   C381.285461,163.643768 381.197205,163.151291 381.069641,162.234131  z"/>
<path fill="#E28A80" opacity="1.000000" stroke="none" d=" M371.191742,484.497925   C362.745178,486.293732 354.281677,487.671906 345.813263,489.019104   C323.303253,492.600159 300.801636,496.235992 278.274780,499.707977   C269.005432,501.136627 259.679962,502.201263 250.136398,503.159485   C252.044708,492.182892 254.560608,481.534363 256.224121,470.754364   C257.385559,463.227905 257.379974,455.521332 257.910522,447.460144   C271.293823,455.808472 285.748840,460.956055 301.888214,462.206024   C321.077301,463.692169 339.726105,462.696320 357.589294,454.942932   C360.915619,453.499176 364.082977,451.689148 367.682465,450.014221   C369.085022,461.342255 370.128815,472.704224 371.191742,484.497925  z"/>
<path fill="#E28A80" opacity="1.000000" stroke="none" d=" M436.966858,330.542847   C438.958649,323.447113 442.001007,316.898956 442.777252,310.092407   C444.499725,294.988861 445.085754,279.755707 446.232788,264.127869   C446.805176,263.832214 447.270142,264.034729 447.756073,264.128693   C468.991425,268.235626 474.043091,282.766113 471.774811,301.601868   C470.332275,313.580414 466.766602,325.039886 459.086761,334.687012   C453.201660,342.079620 446.006927,347.392578 435.464142,346.962311   C435.685669,341.594269 436.337463,336.283722 436.966858,330.542847  z"/>
<path fill="#ff7383" opacity="1.000000" stroke="none" d=" M235.551697,759.992493   C236.319565,760.337158 236.616470,760.685608 236.924744,761.271973   C235.614700,761.608948 234.293289,761.794434 232.971878,761.794434   C163.249680,761.794617 93.527466,761.785339 23.805300,761.725098   C22.255875,761.723755 20.706964,761.123352 19.115578,760.406860   C91.075813,760.006287 163.078278,760.001282 235.551697,759.992493  z"/>
<path fill="#ff7383" opacity="1.000000" stroke="none" d=" M413.493896,761.887512   C418.502869,761.404175 423.967926,761.015564 429.746826,760.349060   C488.730988,760.053711 547.401245,760.036255 606.540771,760.005127   C605.249512,760.640869 603.489868,761.854797 601.728088,761.857971   C545.959961,761.958069 490.191589,761.939148 434.423279,761.942749   C427.598846,761.943176 420.774414,761.968445 413.493896,761.887512  z"/>
<path fill="#bbcafa" opacity="1.000000" stroke="none" d=" M259.297546,761.763306   C258.814453,761.346802 258.809143,761.008606 259.311462,760.380005   C307.613708,760.070251 355.408356,760.027527 403.202881,760.081726   C406.558411,760.085510 409.649384,760.059509 411.785736,756.998230   C411.625702,758.338440 411.465698,759.678650 411.302734,761.353760   C393.856964,761.764832 376.414185,761.896790 358.971344,761.905334   C325.906006,761.921509 292.840668,761.866760 259.297546,761.763306  z"/>
<path fill="#744040" opacity="1.000000" stroke="none" d=" M151.385147,159.149750   C151.533096,161.290359 151.927521,163.833450 151.359665,166.139557   C147.355453,182.400970 147.631866,198.659882 149.553894,215.225540   C150.427414,222.754227 149.732437,231.017532 144.494232,237.933929   C147.667664,228.279861 148.283905,218.234833 146.934341,208.103729   C144.727478,191.536926 146.546127,175.380981 151.385147,159.149750  z"/>
<path fill="#F6A395" opacity="1.000000" stroke="none" d=" M207.421814,385.044495   C207.103241,376.977356 207.103241,369.051758 207.103241,359.814240   C213.458008,372.777557 216.936966,385.056763 215.537216,398.778290   C212.816223,394.495422 210.278305,389.840698 207.421814,385.044495  z"/>
<path fill="#E7DEDE" opacity="1.000000" stroke="none" d=" M155.025879,177.892517   C155.936249,172.297302 157.161697,166.755539 158.387146,161.213776   C158.763580,161.304276 159.140030,161.394760 159.516464,161.485260   C159.528000,161.531998 159.555984,161.581451 159.548752,161.625076   C158.682022,166.846207 157.812653,172.066879 156.777603,177.678772   C156.188156,178.028610 155.764542,177.987305 155.025879,177.892517  z"/>
<path fill="#744040" opacity="1.000000" stroke="none" d=" M152.497162,156.090942   C152.679108,156.570511 152.644653,157.247025 152.302917,157.961700   C152.090668,157.429199 152.185715,156.858551 152.497162,156.090942  z"/>
<path fill="#FFFDFD" opacity="1.000000" stroke="none" d=" M318.005737,386.102417   C334.399872,386.102814 350.294952,386.102814 366.424530,386.102814   C346.890747,409.149017 297.833466,408.396454 270.972137,386.101990   C286.483673,386.101990 301.995178,386.101990 318.005737,386.102417  z"/>
<path fill="#3A2A38" opacity="1.000000" stroke="none" d=" M347.828644,254.889877   C354.753632,241.612427 365.264801,234.283676 380.678284,235.070663   C393.492676,235.724960 408.081390,246.532227 411.833405,258.460449   C407.076904,256.043640 402.561554,253.766312 398.061218,251.459656   C382.677551,243.574692 367.674713,244.359711 352.983704,253.340195   C351.589386,254.192520 349.978394,254.690338 348.172424,255.102905   C347.876831,254.853058 347.828644,254.889877 347.828644,254.889877  z"/>
<path fill="#392937" opacity="1.000000" stroke="none" d=" M246.470230,245.890579   C246.851028,242.428864 247.667664,238.957428 248.749741,235.234406   C264.329712,235.498672 278.680878,245.174896 282.952057,258.368744   C271.236206,252.448898 260.232849,245.649506 246.470230,245.890579  z"/>
<path fill="#412E3B" opacity="1.000000" stroke="none" d=" M354.948303,302.568268   C354.817841,303.543701 354.722839,304.173553 354.597778,305.002502   C351.872772,298.282379 354.238770,289.005981 359.813629,283.991089   C365.540497,278.839478 375.749939,277.842529 383.239655,281.703552   C390.977234,285.692352 395.868835,295.103729 394.804382,304.172150   C393.206848,300.845551 391.884552,297.530151 390.100006,294.485687   C385.484802,286.612091 378.530762,283.365204 369.492126,284.773102   C361.175415,286.068512 357.677948,291.990753 355.705841,299.325500   C355.447479,300.286469 355.223572,301.256744 354.948303,302.568268  z"/>
<path fill="#402E3A" opacity="1.000000" stroke="none" d=" M236.660461,303.297180   C238.015335,298.059204 239.708694,292.895325 241.628418,287.448242   C247.290146,282.977051 253.224625,280.322693 260.289886,281.333679   C272.221924,283.041077 279.372223,292.313812 279.727692,307.606781   C278.210846,304.164886 277.191406,301.655029 276.015991,299.220520   C272.182465,291.280579 266.299652,286.183289 257.053955,286.168457   C249.288620,286.155975 243.789612,290.269318 240.996964,298.057922   C240.047440,300.706116 239.388275,303.458405 238.583649,306.206787   C238.034073,305.223419 237.516510,304.297333 236.660461,303.297180  z"/>
<path fill="#E28A80" opacity="1.000000" stroke="none" d=" M327.982941,358.986481   C329.999298,355.814606 331.740204,352.417023 334.105072,349.530701   C336.771606,346.276245 337.989868,343.526581 336.712677,338.905426   C333.927979,328.829834 331.861908,318.479187 333.262146,307.891205   C333.791260,307.756256 334.320404,307.621338 334.849518,307.486389   C337.236084,315.953644 339.632904,324.418060 341.992096,332.892975   C342.211304,333.680573 341.997223,334.618958 342.312286,335.345032   C345.946533,343.720428 342.440460,349.355774 335.452057,353.797485   C333.086792,355.300812 330.905670,357.093811 328.319977,358.877075   C327.999542,358.999725 327.982941,358.986481 327.982941,358.986481  z"/>
<path fill="#E28A80" opacity="1.000000" stroke="none" d=" M328.006104,359.007812   C327.902527,359.040985 327.792358,359.066101 327.832581,359.038818   C327.982941,358.986481 327.999542,358.999725 328.006104,359.007812  z"/>
<path fill="#3A2A38" opacity="1.000000" stroke="none" d=" M347.867371,254.824341   C347.857880,254.795639 347.950104,254.894226 347.889374,254.892059   C347.828644,254.889877 347.876831,254.853058 347.867371,254.824341  z"/>
<path fill="#bbcafa" opacity="1.000000" stroke="none" d=" M411.943726,756.605652   C409.649384,760.059509 406.558411,760.085510 403.202881,760.081726   C355.408356,760.027527 307.613708,760.070251 259.340637,760.127319   C258.862213,760.165100 258.880341,760.131714 258.858582,759.902344   C258.736176,759.391174 258.552277,759.182861 258.285095,759.048096   C251.250427,740.936768 244.215759,722.825500 237.106995,704.362549   C261.602417,697.213440 286.186554,690.468140 310.737457,683.604004   C336.389740,676.431946 362.035126,669.232666 387.634430,661.874512   C401.778656,657.808960 415.822205,653.393127 430.255402,649.084229   C427.894012,664.854492 425.209229,680.679382 422.477448,696.496155   C419.038910,716.405273 415.562042,736.307739 411.943726,756.605652  z"/>
<path fill="#bbcafa" opacity="1.000000" stroke="none" d=" M299.222534,565.842163   C308.753387,565.378601 318.406586,565.263062 328.501038,565.180725   C328.591278,565.732056 328.235077,566.705750 327.890167,566.701782   C318.374390,566.591980 308.859711,566.382935 299.222534,565.842163  z"/>
<path fill="#F6A596" opacity="1.000000" stroke="none" d=" M200.258667,330.705048   C200.277695,321.751312 203.795822,315.002747 210.505844,309.727203   C215.573944,305.742554 220.438538,301.499023 226.168610,296.725159   C225.450089,298.439270 225.236191,299.636719 224.560272,300.450409   C220.225311,305.668884 215.928055,310.930450 211.349091,315.931335   C206.174530,321.582642 202.232101,327.729858 201.575317,336.924591   C200.947006,334.143280 200.604324,332.626312 200.258667,330.705048  z"/>
<path fill="#F6A596" opacity="1.000000" stroke="none" d=" M226.536316,295.653137   C226.486832,295.703674 226.585800,295.602570 226.536316,295.653137  z"/>
<path fill="#bbcafa" opacity="1.000000" stroke="none" d=" M258.305847,759.260315   C258.552277,759.182861 258.736176,759.391174 258.864258,759.885071   C258.631195,759.954163 258.442841,759.745972 258.305847,759.260315  z"/>
</svg>