<svg xmlns="http://www.w3.org/2000/svg" xmlns:xlink="http://www.w3.org/1999/xlink" version="1.1" id="Layer_1" x="0px" y="0px" width="100%" viewBox="0 0 705 777" enable-background="new 0 0 705 777" xml:space="preserve">
<path fill="#FFFFFF" opacity="1.000000" stroke="none" d=" M374.000000,778.000000   C249.333328,778.000000 125.166664,778.000000 1.000000,778.000000   C1.000000,519.000000 1.000000,260.000000 1.000000,1.000000   C236.000000,1.000000 471.000000,1.000000 706.000000,1.000000   C706.000000,260.000000 706.000000,519.000000 706.000000,778.000000   C595.500000,778.000000 485.000000,778.000000 374.000000,778.000000  M213.426300,516.798706   C211.675949,516.213623 209.592117,514.699768 208.227722,515.189636   C196.725220,519.319458 185.354279,523.815735 173.188644,528.419373   C162.627777,533.717102 151.746979,538.467041 141.565521,544.414246   C109.938141,562.888489 84.494560,587.476929 68.453873,620.920654   C54.203587,650.631592 49.829418,682.207703 51.032795,714.789978   C51.256767,720.854126 51.833199,726.905273 52.234394,732.778381   C257.714905,732.778381 462.288055,732.778381 666.817688,732.778381   C676.764771,645.490356 644.191650,570.726868 549.673706,529.830017   C538.185242,525.307617 526.648071,520.903503 515.233704,516.201111   C511.017639,514.464294 507.456360,514.440674 503.660828,517.445435   C497.287292,515.618042 490.910736,513.801025 484.540894,511.960754   C474.370667,509.022430 464.204895,506.068573 454.060547,502.184845   C453.824524,498.871765 453.861481,495.512238 453.307190,492.253265   C450.206451,474.021881 440.941071,458.702881 430.239441,444.092346   C428.121674,441.201111 425.940002,438.356720 423.540833,435.161896   C425.228333,434.691437 426.325867,434.367432 427.432770,434.079559   C450.923706,427.970642 471.157196,416.358185 487.416107,398.213715   C497.140259,387.361877 504.797516,375.122894 506.277893,360.400574   C507.217041,351.060852 505.993408,341.503632 506.099609,331.315552   C508.736481,314.496155 515.542114,299.620819 526.024292,286.160583   C534.754822,274.949615 541.703918,262.568298 546.359131,249.061646   C553.823364,227.404831 554.055420,206.279785 539.121216,187.490036   C529.393494,175.250900 522.855530,161.637833 517.943726,147.034302   C512.583130,131.096527 507.645386,115.004105 501.828491,99.235405   C494.861176,80.348022 484.657654,63.465645 467.866547,51.506145   C449.347534,38.316013 428.151947,34.189060 405.931641,33.859592   C386.721954,33.574764 369.557922,37.650345 359.361755,56.670811   C352.656799,43.398441 341.884430,36.247875 327.974335,34.974346   C317.311005,33.998070 306.389008,34.019783 295.735382,35.104073   C262.865936,38.449421 237.592926,54.220795 223.536469,84.538681   C215.403000,102.081474 209.685501,120.770096 203.295212,139.087646   C197.690918,155.152176 192.543076,171.415863 181.399750,184.728424   C167.692230,201.104324 164.595428,219.616165 169.466141,239.911667   C173.866226,258.246246 183.101913,274.216980 194.439392,288.947723   C206.548965,304.681641 212.935059,322.185974 212.877914,342.826874   C209.518372,359.189941 213.876190,373.902435 222.983994,387.336151   C239.644653,411.910126 263.137756,426.670776 291.553345,434.111572   C293.361206,434.584930 295.192047,434.970398 297.503510,435.511841   C293.704498,439.052185 290.374237,441.821869 287.430603,444.954865   C272.212128,461.152374 262.624786,479.528870 265.009369,503.181793   C248.047668,507.845154 231.085953,512.508484 213.426300,516.798706  z"/>
<path fill="#7b95f2" opacity="1.000000" stroke="none" d=" M550.103638,530.294922   C644.191650,570.726868 676.764771,645.490356 666.817688,732.778381   C462.288055,732.778381 257.714905,732.778381 52.234394,732.778381   C51.833199,726.905273 51.256767,720.854126 51.032795,714.789978   C49.829418,682.207703 54.203587,650.631592 68.453873,620.920654   C84.494560,587.476929 109.938141,562.888489 141.565521,544.414246   C151.746979,538.467041 162.627777,533.717102 173.575562,528.724426   C175.734802,531.590210 177.133957,534.542480 179.341415,536.646667   C191.472763,548.210510 205.346252,557.133362 220.696991,563.946960   C258.863251,580.887573 299.052124,588.290527 340.502655,590.051208   C342.968140,590.155884 345.416809,590.657104 347.967773,591.385864   C351.390900,614.264526 354.719543,636.731140 358.048157,659.197815   C358.418091,659.200745 358.788025,659.203674 359.157959,659.206604   C365.553589,636.165894 371.949219,613.125183 378.786560,590.069946   C386.342682,589.712036 393.468475,589.521484 400.569397,588.995361   C418.891479,587.637695 436.896088,584.506042 454.831665,580.387329   C479.452057,574.733582 502.985291,566.564636 524.412598,553.133911   C534.160828,547.023621 544.259705,540.955688 550.103638,530.294922  M355.554993,677.029053   C354.456177,679.235474 352.828644,681.338623 352.372742,683.670715   C351.523834,688.013245 352.926178,692.007263 356.583649,694.676270   C360.962250,697.871582 366.432739,697.841370 370.563324,694.576416   C374.044037,691.825256 375.740265,688.080688 374.682953,683.541138   C372.541504,674.346924 365.333832,671.646790 355.554993,677.029053  z"/>
<path fill="#A9534F" opacity="1.000000" stroke="none" d=" M213.072723,342.005249   C212.935059,322.185974 206.548965,304.681641 194.439392,288.947723   C183.101913,274.216980 173.866226,258.246246 169.466141,239.911667   C164.595428,219.616165 167.692230,201.104324 181.399750,184.728424   C192.543076,171.415863 197.690918,155.152176 203.295212,139.087646   C209.685501,120.770096 215.403000,102.081474 223.536469,84.538681   C237.592926,54.220795 262.865936,38.449421 295.735382,35.104073   C306.389008,34.019783 317.311005,33.998070 327.974335,34.974346   C341.884430,36.247875 352.656799,43.398441 359.361755,56.670811   C369.557922,37.650345 386.721954,33.574764 405.931641,33.859592   C428.151947,34.189060 449.347534,38.316013 467.866547,51.506145   C484.657654,63.465645 494.861176,80.348022 501.828491,99.235405   C507.645386,115.004105 512.583130,131.096527 517.943726,147.034302   C522.855530,161.637833 529.393494,175.250900 539.121216,187.490036   C554.055420,206.279785 553.823364,227.404831 546.359131,249.061646   C541.703918,262.568298 534.754822,274.949615 526.024292,286.160583   C515.542114,299.620819 508.736481,314.496155 505.600159,331.754700   C498.435638,341.518738 490.631927,349.737366 480.970581,355.968842   C475.156311,359.719025 470.695740,364.118683 467.521240,370.602936   C456.354980,393.411072 440.275726,412.009979 418.127289,424.989777   C416.804688,425.764862 415.842621,427.155151 414.363922,428.147766   C412.592834,428.430481 411.083801,428.636353 409.761139,429.246368   C380.698151,442.650665 350.773621,442.985321 320.370819,435.003998   C314.500153,433.462830 308.846405,431.095337 302.935455,428.796692   C301.487091,427.473969 300.191528,426.469055 298.905365,425.452271   C292.681702,420.532196 285.824310,416.220215 280.378418,410.552307   C270.705261,400.484955 261.990936,389.295868 257.250458,376.067078   C252.448044,362.665558 244.515625,353.701172 230.647690,349.691620   C224.557693,347.930786 218.917282,344.614990 213.072723,342.005249  M445.890076,203.741287   C445.941681,206.617859 445.993286,209.494415 445.992126,213.339035   C446.347748,235.632156 455.880402,246.338791 476.853088,246.984283   C481.926392,247.989227 486.999695,248.994156 492.680542,250.290909   C494.387177,251.491074 496.093811,252.691223 497.800446,253.891373   C497.602112,254.154114 497.403778,254.416855 497.205444,254.679596   C495.516052,254.157089 493.826630,253.634583 491.644897,252.527832   C486.312897,251.707779 480.980865,250.887741 474.783234,250.052368   C460.634979,250.367310 448.990479,245.750916 443.757385,231.727448   C441.078369,224.548340 440.490204,216.588989 438.989319,208.067719   C438.962433,204.685104 438.935577,201.302490 438.786377,197.011749   C438.231659,182.740524 437.602905,168.471680 437.139954,154.197479   C436.474579,133.683136 425.309814,121.052803 406.977051,113.814034   C392.474030,108.087463 377.386902,105.522568 361.794189,105.520172   C348.583191,105.518143 335.313171,104.334305 322.177887,105.243317   C308.936951,106.159645 296.681671,110.818176 286.753540,120.418404   C276.801239,130.041977 274.704437,142.666077 273.235535,155.386139   C271.446655,170.877487 270.314148,186.445297 268.962280,201.985641   C268.787109,203.999176 268.997070,206.046219 268.846558,208.725647   C268.220612,210.804016 267.594666,212.882385 266.684814,215.637894   C266.066315,217.329208 265.521484,219.051880 264.817139,220.706650   C260.813080,230.113480 254.988907,237.479630 243.201492,239.037277   C239.107559,239.364944 235.013626,239.692627 230.235565,239.701309   C228.312469,239.708191 226.250626,239.261948 224.490417,239.800842   C217.085815,242.067795 212.096832,247.324081 208.520874,253.928665   C200.188766,269.317535 204.338013,297.977966 216.873505,310.161102   C222.511490,315.640656 229.121307,319.536774 237.685394,318.724884   C236.096329,306.809387 234.573685,295.391998 233.798447,283.994568   C238.555847,281.988403 243.313263,279.982269 248.540955,278.570648   C252.697678,293.257416 256.357086,308.109253 261.160065,322.581543   C265.410950,335.390259 271.365997,347.598938 280.653503,357.661194   C282.772949,359.957489 286.945831,362.434296 289.346283,361.782257   C291.528412,361.189545 293.164368,356.614075 294.016571,353.512787   C295.726746,347.288940 296.275726,340.732361 298.150818,334.570831   C300.691010,326.223846 306.261536,320.055084 315.193207,318.937012   C322.874542,317.975433 330.792847,317.888489 338.519043,318.506409   C357.202911,320.000763 375.862854,321.905853 394.474792,324.128235   C401.151245,324.925415 407.895966,326.479431 414.188171,328.820618   C421.612549,331.583008 424.935425,337.902863 425.023071,345.778656   C425.082306,351.103485 424.874817,356.431732 424.960693,361.755676   C425.033691,366.281158 427.185822,369.076019 431.834656,370.207611   C438.811218,371.905792 444.515533,369.383362 447.824463,363.854095   C452.559906,355.941162 456.887756,347.554962 459.831665,338.844299   C467.300232,316.745941 470.442352,293.668671 474.018738,271.293213   C479.696777,273.540131 485.374817,275.787079 491.077820,278.937164   C489.673309,291.863403 488.268799,304.789642 486.820892,318.115234   C494.059479,317.561096 499.596069,313.701996 503.539642,308.418488   C514.892822,293.207977 517.502441,276.055695 512.038940,258.026855   C509.078766,248.258698 502.292816,241.570374 491.144653,239.006790   C486.130768,239.002686 481.116913,238.998596 475.319305,239.020782   C465.929413,237.328506 459.303375,232.132843 455.521057,223.360550   C454.342224,220.626526 453.228363,217.864471 452.064697,214.290207   C451.370789,211.472565 450.676880,208.654938 450.039795,204.945541   C449.304230,196.092575 448.568665,187.239624 447.833099,178.386658   C447.152618,178.409424 446.472168,178.432175 445.791687,178.454926   C445.791687,186.579651 445.791687,194.704361 445.890076,203.741287  M326.866028,346.376953   C323.547729,346.620941 320.229401,346.864960 316.277588,347.155548   C349.700806,370.456757 394.706177,367.028656 412.068695,346.376617   C384.255615,346.376617 356.026550,346.376617 326.866028,346.376953  z"/>
<path fill="#FEAD9F" opacity="1.000000" stroke="none" d=" M378.344849,590.084473   C371.949219,613.125183 365.553589,636.165894 359.157959,659.206604   C358.788025,659.203674 358.418091,659.200745 358.048157,659.197815   C354.719543,636.731140 351.390900,614.264526 348.018158,590.974854   C346.989624,583.438293 345.926178,576.734985 345.054474,570.006775   C344.627411,566.710449 343.304016,565.202881 339.682831,565.012146   C316.180847,563.774170 293.409119,558.759277 271.420044,550.504517   C250.482101,542.644409 230.959747,532.171326 214.124237,517.171814   C231.085953,512.508484 248.047668,507.845154 265.649963,503.011017   C282.071564,499.769226 290.625580,489.097473 296.221130,474.887390   C302.090271,474.304077 307.510956,473.775055 312.894287,472.989960   C329.548981,470.560974 346.199097,468.096710 362.832916,465.529144   C380.935364,462.734924 399.017548,459.809631 417.271912,457.285889   C419.706879,465.047943 421.435730,472.688293 424.367828,479.834961   C429.775970,493.016907 439.542664,501.227478 454.037231,503.121307   C464.204895,506.068573 474.370667,509.022430 484.540894,511.960754   C490.910736,513.801025 497.287292,515.618042 503.768005,517.990967   C492.661377,525.957825 481.937866,534.295776 470.132172,540.610535   C445.254608,553.917236 418.331604,561.110657 390.296143,564.062744   C386.780151,564.433044 384.691345,565.650574 383.847260,569.441528   C382.300873,576.386536 380.209167,583.210205 378.344849,590.084473  z"/>
<path fill="#273062" opacity="1.000000" stroke="none" d=" M378.786560,590.069946   C380.209167,583.210205 382.300873,576.386536 383.847260,569.441528   C384.691345,565.650574 386.780151,564.433044 390.296143,564.062744   C418.331604,561.110657 445.254608,553.917236 470.132172,540.610535   C481.937866,534.295776 492.661377,525.957825 504.060242,518.229370   C507.456360,514.440674 511.017639,514.464294 515.233704,516.201111   C526.648071,520.903503 538.185242,525.307617 549.888672,530.062500   C544.259705,540.955688 534.160828,547.023621 524.412598,553.133911   C502.985291,566.564636 479.452057,574.733582 454.831665,580.387329   C436.896088,584.506042 418.891479,587.637695 400.569397,588.995361   C393.468475,589.521484 386.342682,589.712036 378.786560,590.069946  z"/>
<path fill="#273062" opacity="1.000000" stroke="none" d=" M213.775269,516.985229   C230.959747,532.171326 250.482101,542.644409 271.420044,550.504517   C293.409119,558.759277 316.180847,563.774170 339.682831,565.012146   C343.304016,565.202881 344.627411,566.710449 345.054474,570.006775   C345.926178,576.734985 346.989624,583.438293 347.923676,590.562866   C345.416809,590.657104 342.968140,590.155884 340.502655,590.051208   C299.052124,588.290527 258.863251,580.887573 220.696991,563.946960   C205.346252,557.133362 191.472763,548.210510 179.341415,536.646667   C177.133957,534.542480 175.734802,531.590210 173.953156,528.615723   C185.354279,523.815735 196.725220,519.319458 208.227722,515.189636   C209.592117,514.699768 211.675949,516.213623 213.775269,516.985229  z"/>
<path fill="#864039" opacity="1.000000" stroke="none" d=" M295.755554,474.824493   C290.625580,489.097473 282.071564,499.769226 265.964966,502.739014   C262.624786,479.528870 272.212128,461.152374 287.430603,444.954865   C290.374237,441.821869 293.704498,439.052185 297.503510,435.511841   C295.192047,434.970398 293.361206,434.584930 291.553345,434.111572   C263.137756,426.670776 239.644653,411.910126 222.983994,387.336151   C213.876190,373.902435 209.518372,359.189941 212.975311,342.416077   C218.917282,344.614990 224.557693,347.930786 230.647690,349.691620   C244.515625,353.701172 252.448044,362.665558 257.250458,376.067078   C261.990936,389.295868 270.705261,400.484955 280.378418,410.552307   C285.824310,416.220215 292.681702,420.532196 298.905365,425.452271   C300.191528,426.469055 301.487091,427.473969 302.927643,429.246704   C302.773804,445.296722 300.362061,460.239899 295.755554,474.824493  z"/>
<path fill="#864039" opacity="1.000000" stroke="none" d=" M454.048889,502.653076   C439.542664,501.227478 429.775970,493.016907 424.367828,479.834961   C421.435730,472.688293 419.706879,465.047943 417.302490,456.859070   C416.350769,446.811646 415.531769,437.535400 414.712769,428.259155   C415.842621,427.155151 416.804688,425.764862 418.127289,424.989777   C440.275726,412.009979 456.354980,393.411072 467.521240,370.602936   C470.695740,364.118683 475.156311,359.719025 480.970581,355.968842   C490.631927,349.737366 498.435638,341.518738 505.420227,332.118896   C505.993408,341.503632 507.217041,351.060852 506.277893,360.400574   C504.797516,375.122894 497.140259,387.361877 487.416107,398.213715   C471.157196,416.358185 450.923706,427.970642 427.432770,434.079559   C426.325867,434.367432 425.228333,434.691437 423.540833,435.161896   C425.940002,438.356720 428.121674,441.201111 430.239441,444.092346   C440.941071,458.702881 450.206451,474.021881 453.307190,492.253265   C453.861481,495.512238 453.824524,498.871765 454.048889,502.653076  z"/>
<path fill="#273062" opacity="1.000000" stroke="none" d=" M355.848328,676.780396   C365.333832,671.646790 372.541504,674.346924 374.682953,683.541138   C375.740265,688.080688 374.044037,691.825256 370.563324,694.576416   C366.432739,697.841370 360.962250,697.871582 356.583649,694.676270   C352.926178,692.007263 351.523834,688.013245 352.372742,683.670715   C352.828644,681.338623 354.456177,679.235474 355.848328,676.780396  z"/>
<path fill="#FFAD9E" opacity="1.000000" stroke="none" d=" M244.038544,239.013107   C254.988907,237.479630 260.813080,230.113480 264.817139,220.706650   C265.521484,219.051880 266.066315,217.329208 267.155212,215.177338   C288.907166,199.962906 309.215302,205.808548 329.952148,219.293030   C319.833099,195.601974 287.844208,184.274750 269.028656,208.077728   C268.997070,206.046219 268.787109,203.999176 268.962280,201.985641   C270.314148,186.445297 271.446655,170.877487 273.235535,155.386139   C274.704437,142.666077 276.801239,130.041977 286.753540,120.418404   C296.681671,110.818176 308.936951,106.159645 322.177887,105.243317   C335.313171,104.334305 348.583191,105.518143 361.794189,105.520172   C377.386902,105.522568 392.474030,108.087463 406.977051,113.814034   C425.309814,121.052803 436.474579,133.683136 437.139954,154.197479   C437.602905,168.471680 438.231659,182.740524 438.485687,197.430756   C419.211884,190.564606 398.368988,198.824722 394.364563,216.011871   C408.473724,206.654541 422.984253,202.543747 438.957062,208.982285   C440.490204,216.588989 441.078369,224.548340 443.757385,231.727448   C448.990479,245.750916 460.634979,250.367310 475.236389,250.460739   C474.973450,257.456512 474.257324,264.043884 473.541199,270.631287   C470.442352,293.668671 467.300232,316.745941 459.831665,338.844299   C456.887756,347.554962 452.559906,355.941162 447.824463,363.854095   C444.515533,369.383362 438.811218,371.905792 431.834656,370.207611   C427.185822,369.076019 425.033691,366.281158 424.960693,361.755676   C424.874817,356.431732 425.082306,351.103485 425.023071,345.778656   C424.935425,337.902863 421.612549,331.583008 414.188171,328.820618   C407.895966,326.479431 401.151245,324.925415 394.474792,324.128235   C375.862854,321.905853 357.202911,320.000763 338.519043,318.506409   C330.792847,317.888489 322.874542,317.975433 315.193207,318.937012   C306.261536,320.055084 300.691010,326.223846 298.150818,334.570831   C296.275726,340.732361 295.726746,347.288940 294.016571,353.512787   C293.164368,356.614075 291.528412,361.189545 289.346283,361.782257   C286.945831,362.434296 282.772949,359.957489 280.653503,357.661194   C271.365997,347.598938 265.410950,335.390259 261.160065,322.581543   C256.357086,308.109253 252.697678,293.257416 248.347778,277.846710   C246.643448,265.745911 245.132294,254.369064 243.702698,242.665970   C243.700745,241.905975 243.617218,241.472229 243.605499,240.697861   C243.797699,239.909195 243.918121,239.461151 244.038544,239.013107  M367.736725,318.951752   C374.136444,315.444550 380.512207,311.892487 386.947052,308.450989   C389.743347,306.955475 390.288269,304.692810 389.944824,301.792114   C388.254730,287.516724 386.848877,273.204132 384.920135,258.961884   C383.729828,250.172287 381.782745,241.485184 380.175415,232.752060   C379.774384,232.799759 379.373322,232.847458 378.972290,232.895157   C378.972290,236.921112 378.719879,240.965790 379.016541,244.969757   C380.213745,261.128662 380.903931,277.370361 383.162292,293.386810   C384.336945,301.717590 382.070190,306.700195 375.370972,310.967346   C372.170319,313.006012 369.746948,316.265015 366.485474,318.993286   C366.211395,319.126190 365.937286,319.259064 365.663177,319.391937   C366.114716,319.269409 366.566284,319.146881 367.736725,318.951752  M441.339600,261.493317   C438.593170,244.494400 427.308533,236.272751 412.599762,240.001053   C404.479156,242.059418 396.575684,253.578308 400.484467,263.926453   C402.544952,255.059769 404.828491,246.145889 415.624054,244.582733   C430.877350,242.374100 436.651184,252.915771 441.471954,264.629639   C441.471954,263.816803 441.471954,263.003967 441.339600,261.493317  M324.366791,257.230469   C319.771393,244.382660 309.208649,238.436798 297.153595,241.911972   C287.066376,244.819870 281.998810,254.675003 284.451630,266.687317   C285.296173,263.690369 285.934814,260.667572 286.993927,257.800110   C290.965973,247.046387 303.008240,242.356369 312.598358,248.540604   C316.546265,251.086441 319.268219,255.686890 322.176758,259.626740   C323.644165,261.614441 324.283691,264.213348 325.297546,266.535919   C325.544159,266.451813 325.790741,266.367737 326.037354,266.283630   C325.565033,263.516907 325.092682,260.750183 324.366791,257.230469  z"/>
<path fill="#E2897F" opacity="1.000000" stroke="none" d=" M414.363953,428.147766   C415.531769,437.535400 416.350769,446.811646 417.139160,456.514679   C399.017548,459.809631 380.935364,462.734924 362.832916,465.529144   C346.199097,468.096710 329.548981,470.560974 312.894287,472.989960   C307.510956,473.775055 302.090271,474.304077 296.221130,474.887390   C300.362061,460.239899 302.773804,445.296722 303.084778,429.559082   C308.846405,431.095337 314.500153,433.462830 320.370819,435.003998   C350.773621,442.985321 380.698151,442.650665 409.761139,429.246368   C411.083801,428.636353 412.592834,428.430481 414.363953,428.147766  z"/>
<path fill="#E1897F" opacity="1.000000" stroke="none" d=" M233.051041,283.974609   C234.573685,295.391998 236.096329,306.809387 237.685394,318.724884   C229.121307,319.536774 222.511490,315.640656 216.873505,310.161102   C204.338013,297.977966 200.188766,269.317535 208.520874,253.928665   C212.096832,247.324081 217.085815,242.067795 224.490417,239.800842   C226.250626,239.261948 228.312469,239.708191 230.581146,240.327484   C231.634842,255.293976 232.342941,269.634277 233.051041,283.974609  z"/>
<path fill="#E1887F" opacity="1.000000" stroke="none" d=" M492.034363,239.005219   C502.292816,241.570374 509.078766,248.258698 512.038940,258.026855   C517.502441,276.055695 514.892822,293.207977 503.539642,308.418488   C499.596069,313.701996 494.059479,317.561096 486.820892,318.115234   C488.268799,304.789642 489.673309,291.863403 491.215088,278.095642   C491.614014,269.206757 491.875610,261.159424 492.137238,253.112061   C493.826630,253.634583 495.516052,254.157089 497.205444,254.679596   C497.403778,254.416855 497.602112,254.154114 497.800446,253.891373   C496.093811,252.691223 494.387177,251.491074 492.381439,249.686951   C492.066345,245.723740 492.050354,242.364487 492.034363,239.005219  z"/>
<path fill="#FCFAFA" opacity="1.000000" stroke="none" d=" M327.331757,346.376770   C356.026550,346.376617 384.255615,346.376617 412.068695,346.376617   C394.706177,367.028656 349.700806,370.456757 316.277588,347.155548   C320.229401,346.864960 323.547729,346.620941 327.331757,346.376770  z"/>
<path fill="#3C2B39" opacity="1.000000" stroke="none" d=" M268.937622,208.401688   C287.844208,184.274750 319.833099,195.601974 329.952148,219.293030   C309.215302,205.808548 288.907166,199.962906 267.297180,214.838776   C267.594666,212.882385 268.220612,210.804016 268.937622,208.401688  z"/>
<path fill="#874039" opacity="1.000000" stroke="none" d=" M233.424744,283.984589   C232.342941,269.634277 231.634842,255.293976 230.923218,240.486969   C235.013626,239.692627 239.107559,239.364944 243.620026,239.025192   C243.918121,239.461151 243.797699,239.909195 243.467560,240.873154   C243.378952,241.923447 243.500046,242.457840 243.621124,242.992218   C245.132294,254.369064 246.643448,265.745911 248.112640,277.549438   C243.313263,279.982269 238.555847,281.988403 233.424744,283.984589  z"/>
<path fill="#3C2B39" opacity="1.000000" stroke="none" d=" M438.973206,208.524994   C422.984253,202.543747 408.473724,206.654541 394.364563,216.011871   C398.368988,198.824722 419.211884,190.564606 438.546875,197.884811   C438.935577,201.302490 438.962433,204.685104 438.973206,208.524994  z"/>
<path fill="#874039" opacity="1.000000" stroke="none" d=" M491.891052,252.819946   C491.875610,261.159424 491.614014,269.206757 491.202606,277.644073   C485.374817,275.787079 479.696777,273.540131 473.779968,270.962250   C474.257324,264.043884 474.973450,257.456512 475.669220,250.468399   C480.980865,250.887741 486.312897,251.707779 491.891052,252.819946  z"/>
<path fill="#FDAA9B" opacity="1.000000" stroke="none" d=" M475.946350,246.982269   C455.880402,246.338791 446.347748,235.632156 446.373169,212.988007   C448.531067,213.463074 450.307892,214.289169 452.084747,215.115265   C453.228363,217.864471 454.342224,220.626526 455.521057,223.360550   C459.303375,232.132843 465.929413,237.328506 475.800415,239.445877   C476.169800,242.241409 476.058075,244.611832 475.946350,246.982269  z"/>
<path fill="#874039" opacity="1.000000" stroke="none" d=" M476.399719,246.983276   C476.058075,244.611832 476.169800,242.241409 476.192261,239.432739   C481.116913,238.998596 486.130768,239.002686 491.589508,239.006012   C492.050354,242.364487 492.066345,245.723740 492.077667,249.541046   C486.999695,248.994156 481.926392,247.989227 476.399719,246.983276  z"/>
<path fill="#FCA697" opacity="1.000000" stroke="none" d=" M445.791687,202.829071   C445.791687,194.704361 445.791687,186.579651 445.791687,178.454926   C446.472168,178.432175 447.152618,178.409424 447.833099,178.386658   C448.568665,187.239624 449.304230,196.092575 449.748291,205.217834   C448.235077,204.603119 447.013367,203.716095 445.791687,202.829071  z"/>
<path fill="#3C2B39" opacity="1.000000" stroke="none" d=" M445.840881,203.285187   C447.013367,203.716095 448.235077,204.603119 449.719879,205.663727   C450.676880,208.654938 451.370789,211.472565 452.074707,214.702728   C450.307892,214.289169 448.531067,213.463074 446.399567,212.503998   C445.993286,209.494415 445.941681,206.617859 445.840881,203.285187  z"/>
<path fill="#E38A80" opacity="1.000000" stroke="none" d=" M366.971558,318.971313   C369.746948,316.265015 372.170319,313.006012 375.370972,310.967346   C382.070190,306.700195 384.336945,301.717590 383.162292,293.386810   C380.903931,277.370361 380.213745,261.128662 379.016541,244.969757   C378.719879,240.965790 378.972290,236.921112 378.972290,232.895157   C379.373322,232.847458 379.774384,232.799759 380.175415,232.752060   C381.782745,241.485184 383.729828,250.172287 384.920135,258.961884   C386.848877,273.204132 388.254730,287.516724 389.944824,301.792114   C390.288269,304.692810 389.743347,306.955475 386.947052,308.450989   C380.512207,311.892487 374.136444,315.444550 367.366577,318.974182   C366.996429,318.996613 366.971558,318.971313 366.971558,318.971313  z"/>
<path fill="#412F3B" opacity="1.000000" stroke="none" d=" M441.405762,261.842224   C441.471954,263.003967 441.471954,263.816803 441.471954,264.629639   C436.651184,252.915771 430.877350,242.374100 415.624054,244.582733   C404.828491,246.145889 402.544952,255.059769 400.484467,263.926453   C396.575684,253.578308 404.479156,242.059418 412.599762,240.001053   C427.308533,236.272751 438.593170,244.494400 441.405762,261.842224  z"/>
<path fill="#402E3A" opacity="1.000000" stroke="none" d=" M324.493591,257.606934   C325.092682,260.750183 325.565033,263.516907 326.037354,266.283630   C325.790741,266.367737 325.544159,266.451813 325.297546,266.535919   C324.283691,264.213348 323.644165,261.614441 322.176758,259.626740   C319.268219,255.686890 316.546265,251.086441 312.598358,248.540604   C303.008240,242.356369 290.965973,247.046387 286.993927,257.800110   C285.934814,260.667572 285.296173,263.690369 284.451630,266.687317   C281.998810,254.675003 287.066376,244.819870 297.153595,241.911972   C309.208649,238.436798 319.771393,244.382660 324.493591,257.606934  z"/>
<path fill="#E38A80" opacity="1.000000" stroke="none" d=" M367.007141,319.010498   C366.566284,319.146881 366.114716,319.269409 365.663177,319.391937   C365.937286,319.259064 366.211395,319.126190 366.728516,318.982300   C366.971558,318.971313 366.996429,318.996613 367.007141,319.010498  z"/>
<path fill="#A9534F" opacity="1.000000" stroke="none" d=" M243.702698,242.665970   C243.500046,242.457840 243.378952,241.923447 243.395782,241.213776   C243.617218,241.472229 243.700745,241.905975 243.702698,242.665970  z"/>
</svg>