<svg xmlns="http://www.w3.org/2000/svg" xmlns:xlink="http://www.w3.org/1999/xlink" version="1.1" id="Layer_1" x="0px" y="0px" width="100%" viewBox="0 0 630 772" enable-background="new 0 0 630 772" xml:space="preserve">
<path fill="#FFFFFF" opacity="1.000000" stroke="none" d=" M321.000000,773.000000   C214.000000,773.000000 107.500000,773.000000 1.000000,773.000000   C1.000000,515.666687 1.000000,258.333344 1.000000,1.000000   C211.000000,1.000000 421.000000,1.000000 631.000000,1.000000   C631.000000,258.333344 631.000000,515.666687 631.000000,773.000000   C527.833313,773.000000 424.666656,773.000000 321.000000,773.000000  M237.900375,500.916992   C237.900375,500.916992 237.857468,500.805481 237.305634,500.915894   C237.140518,501.234924 236.975418,501.553986 236.913620,501.907013   C236.913620,501.907013 236.867599,501.808502 236.314728,501.919983   C236.146606,502.237915 235.978485,502.555878 235.912354,502.899689   C235.912354,502.899689 235.867294,502.804596 235.310715,502.909943   C235.139694,503.224213 234.968689,503.538452 234.915894,503.885712   C234.915894,503.885712 234.844040,503.786194 234.277573,503.869293   C234.109650,504.185333 233.941727,504.501373 233.886917,504.814514   C233.886917,504.814514 233.827469,504.718201 233.205292,504.694397   C232.753113,505.085571 232.300934,505.476715 231.930191,505.910553   C231.930191,505.910553 231.932678,505.818634 231.332184,505.892365   C230.858948,506.243042 230.385727,506.593719 229.977768,506.983887   C229.977768,506.983887 229.976013,506.907593 229.365540,507.038818   C229.070526,507.327484 228.775497,507.616150 228.245773,507.791931   C228.245773,507.791931 228.022308,507.925720 227.252151,508.006714   C222.572525,509.708893 217.892899,511.411072 212.460999,513.143188   C209.939133,513.974548 207.417267,514.805908 204.086868,515.710266   C195.294418,518.163940 186.453766,520.458191 177.718521,523.100952   C150.766006,531.254944 124.580376,541.190613 100.265572,557.039734   C91.615730,563.757385 82.466995,569.930603 74.419426,577.305481   C57.433365,592.871704 44.224785,611.265808 35.470856,633.448853   C21.009037,667.970947 19.470568,704.058655 22.441944,740.701233   C22.643034,743.181030 23.660662,744.016479 26.664598,743.323181   C46.840313,743.374207 67.016052,743.466431 87.191727,743.454346   C94.458633,743.450012 101.725380,743.195007 109.925896,743.159241   C215.986664,743.167603 322.047455,743.187683 428.108215,743.177551   C461.405670,743.174377 494.703156,743.089539 528.673889,743.264709   C530.466187,743.227356 532.258484,743.190063 534.974426,743.271484   C560.284302,743.404724 585.594666,743.481873 610.903259,743.740906   C614.118774,743.773804 615.511292,742.652405 615.681335,739.602783   C615.894104,735.786804 616.142639,731.972900 616.375610,728.158081   C617.483826,710.011780 617.198242,691.932617 613.886597,673.197876   C610.327454,651.582581 603.773193,631.006104 592.554138,612.070679   C578.482666,588.320862 559.682922,569.233093 535.547546,554.484314   C505.482483,535.574707 472.178467,524.834167 437.671814,515.338074   C434.362427,514.268921 431.113434,512.928223 427.733459,512.176331   C410.756287,508.399658 400.418945,497.565369 395.887177,481.309753   C393.051178,471.137024 391.257751,460.645630 389.515503,450.210571   C388.866180,446.321503 387.529907,445.919861 384.317749,447.080109   C382.009094,447.914062 379.546478,448.321960 377.068329,448.081207   C376.963165,446.397461 376.858002,444.713745 376.857971,442.494354   C376.813446,442.317932 376.768890,442.141541 376.807190,441.232147   C376.739777,440.500977 376.672394,439.769836 376.726074,438.496399   C376.663513,438.322052 376.600952,438.147736 376.665710,437.226807   C376.624512,436.471588 376.583313,435.716370 376.792847,434.203003   C377.780273,432.501495 378.407562,430.379059 379.818176,429.172150   C385.602600,424.222839 392.096649,420.027618 397.477020,414.694794   C417.392303,394.955475 429.638519,370.676239 438.005981,344.222260   C439.641449,339.051666 441.388611,333.916382 443.919403,328.902893   C453.149841,329.133270 460.349548,324.896912 465.862701,318.007874   C477.121277,303.939392 481.262054,287.559601 479.858704,269.813141   C479.226105,261.813751 475.430084,255.250092 468.749817,250.203583   C467.920410,248.484833 467.090973,246.766098 466.217926,244.956940   C464.419281,246.137421 463.318420,246.859924 462.247620,246.766983   C465.691315,234.139771 469.450592,221.588394 472.508087,208.868347   C477.676514,187.366165 482.532043,165.781250 482.319031,143.448807   C482.236023,134.745163 480.299591,126.607292 475.231262,119.422882   C470.913330,113.302124 464.942780,109.781784 457.416168,110.330681   C452.061096,110.721237 446.789368,112.254723 441.120911,113.347427   C441.120911,108.328941 441.239502,102.924538 441.098358,97.526909   C440.699036,82.256126 431.135406,70.477806 415.480865,66.225212   C412.411560,65.488777 409.371735,64.289886 406.268127,64.092316   C388.528656,62.963089 370.783020,61.828236 353.021942,61.169277   C335.517944,60.519859 319.522736,56.128792 306.096985,44.354610   C302.719025,41.392178 299.423676,38.335445 296.092377,35.319851   C282.018829,22.580015 266.077698,22.348160 249.467041,28.867760   C240.262894,32.480343 234.698807,39.576370 233.660904,49.593575   C233.221954,53.830101 233.587692,58.150002 233.587692,62.610378   C232.975723,62.725842 232.339264,62.973549 231.715500,62.944836   C218.203171,62.322819 205.634796,65.843552 193.875153,72.140724   C182.347107,78.313889 173.066940,86.660263 170.669632,100.396988   C168.629272,112.088318 173.549255,121.850281 179.646027,131.229294   C181.073914,133.425888 182.421585,135.674622 183.296204,138.373993   C175.000458,155.085083 176.210373,172.468964 179.687897,189.995651   C183.075455,207.068848 186.524124,224.129913 189.271225,241.051056   C186.755371,242.148407 184.771561,243.550186 185.169525,246.791351   C173.273697,248.609070 164.264618,257.152588 163.157883,269.160767   C161.464630,287.532562 165.748184,304.527435 177.853378,318.856689   C183.770096,325.860504 191.388596,329.934174 201.803238,328.788910   C203.207169,331.919373 204.991501,334.937225 205.956726,338.197571   C216.713623,374.532104 233.508789,406.851196 265.745758,429.944641   C265.568298,435.126923 265.390839,440.309174 264.400726,445.448212   C261.926605,444.699982 259.452454,443.951752 256.203339,443.029297   C255.539566,444.823273 254.453262,446.576904 254.277664,448.417419   C252.615158,465.844574 249.393982,482.790253 239.942612,497.995117   C239.942612,497.995117 239.923294,497.896362 239.393692,498.203278   C239.176086,498.746887 238.958496,499.290497 238.843933,499.904846   C238.843933,499.904846 238.810837,499.784302 238.252121,499.871368   C238.100113,500.200470 237.948105,500.529572 237.900375,500.916992  z"/>
<path fill="#e9efff" opacity="1.000000" stroke="none" d=" M100.948318,556.903809   C124.580376,541.190613 150.766006,531.254944 177.718521,523.100952   C186.453766,520.458191 195.294418,518.163940 204.625092,516.014465   C205.930649,517.188110 206.587692,518.196472 207.481674,518.906433   C224.707993,532.587158 244.156113,541.999084 265.213226,547.940186   C286.648956,553.988037 308.529968,557.154114 330.861847,554.951416   C343.003448,553.753723 355.280212,552.835205 367.153198,550.229004   C393.448639,544.456970 417.123260,532.757507 438.168274,515.874756   C472.178467,524.834167 505.482483,535.574707 535.777466,555.118408   C526.048950,590.500671 523.256653,626.196533 521.661438,661.913330   C518.664856,659.137695 515.951721,656.536865 513.259033,653.955688   C501.127289,663.560364 489.443756,672.810181 477.187042,682.513794   C467.602570,672.819214 458.385651,663.496460 448.981995,653.984741   C437.815155,663.398682 426.795837,672.688293 415.033508,682.604309   C405.470276,672.975342 396.125153,663.565918 386.564697,653.939697   C376.465820,663.427002 366.450592,672.835754 356.297363,682.374146   C347.457062,674.418762 339.002533,666.935486 330.694763,659.292603   C324.673096,653.752869 324.761597,653.660645 318.646179,658.835938   C316.742004,660.447449 314.829315,662.048889 312.913818,663.646973   C305.552826,669.788208 298.189148,675.926270 289.937317,682.806885   C280.423340,673.162964 271.114655,663.727112 261.651642,654.134827   C251.725723,663.470886 241.819366,672.788574 231.728882,682.279419   C220.935440,672.660889 210.538208,663.395447 199.842590,653.864075   C188.595612,663.432800 177.514801,672.860107 165.377045,683.186707   C155.729858,673.218018 146.428329,663.606567 137.200989,654.071777   C129.613205,661.000854 122.374687,667.611023 115.091095,673.740601   C115.034782,648.067871 113.539505,622.941406 109.791618,598.050476   C107.706863,584.204956 103.951027,570.611084 100.948318,556.903809  z"/>
<path fill="#FFAD9F" opacity="1.000000" stroke="none" d=" M265.743530,429.032227   C233.508789,406.851196 216.713623,374.532104 205.956726,338.197571   C204.991501,334.937225 203.207169,331.919373 201.673523,328.472504   C201.792221,326.901611 202.390732,325.602112 202.236038,324.399506   C200.233994,308.836151 198.124832,293.286560 196.470139,277.784851   C199.752533,278.189972 202.607483,278.543823 206.244888,278.994629   C206.244888,273.033539 206.244888,267.525116 206.546188,262.146362   C212.640396,265.633545 215.954819,269.534241 216.546738,277.307404   C218.324341,300.651154 237.084106,320.572327 264.239288,320.462463   C289.890015,320.358704 308.113983,302.436371 311.225922,279.832031   C312.434967,271.049652 317.629730,266.797333 324.315613,263.245544   C330.583771,259.915619 335.580475,260.900330 341.090820,266.303650   C342.114624,278.574310 342.231445,290.571716 344.541931,302.130615   C346.318237,311.017090 344.734589,316.728943 336.880737,321.243317   C333.786072,323.022186 331.585144,326.355896 328.826843,329.036163   C328.789856,329.067444 328.903259,329.044159 329.375427,328.982117   C334.930664,326.079773 340.105682,323.176361 345.328705,320.362030   C352.857544,316.305145 352.686249,316.018555 351.478119,307.561737   C350.660980,301.841827 351.029388,295.952606 350.971893,290.477295   C363.146729,319.952148 399.235779,329.697815 423.804169,310.858765   C429.450378,306.529205 433.630341,300.287537 438.976624,295.005920   C442.286957,295.169159 445.105713,295.252289 447.945648,295.750671   C447.432281,300.231201 446.965454,304.306793 446.348022,308.359436   C445.310547,315.168915 444.177277,321.963776 443.084259,328.764801   C441.388611,333.916382 439.641449,339.051666 438.005981,344.222260   C429.638519,370.676239 417.392303,394.955475 397.477020,414.694794   C392.096649,420.027618 385.602600,424.222839 379.818176,429.172150   C378.407562,430.379059 377.780273,432.501495 376.495178,434.327393   C375.739990,431.207581 374.041595,432.561890 372.369110,433.354736   C368.180206,435.340576 364.042206,437.476898 359.725250,439.141724   C347.068726,444.022675 333.790863,443.764648 320.473297,444.199860   C300.483643,444.853119 282.433868,439.691040 265.743530,429.032227  M297.330627,367.229950   C330.854431,380.583313 365.298126,369.584381 373.653900,356.434998   C342.474762,356.434998 310.741699,356.434998 279.008606,356.434998   C278.908386,357.069519 278.808167,357.704071 278.707947,358.338593   C284.670624,361.220459 290.633301,364.102325 297.330627,367.229950  z"/>
<path fill="#FF6B58" opacity="1.000000" stroke="none" d=" M183.806152,137.899384   C182.421585,135.674622 181.073914,133.425888 179.646027,131.229294   C173.549255,121.850281 168.629272,112.088318 170.669632,100.396988   C173.066940,86.660263 182.347107,78.313889 193.875153,72.140724   C205.634796,65.843552 218.203171,62.322819 231.715500,62.944836   C232.339264,62.973549 232.975723,62.725842 233.587692,62.610378   C233.587692,58.150002 233.221954,53.830101 233.660904,49.593575   C234.698807,39.576370 240.262894,32.480343 249.467041,28.867760   C266.077698,22.348160 282.018829,22.580015 296.092377,35.319851   C299.423676,38.335445 302.719025,41.392178 306.096985,44.354610   C319.522736,56.128792 335.517944,60.519859 353.021942,61.169277   C370.783020,61.828236 388.528656,62.963089 406.268127,64.092316   C409.371735,64.289886 412.411560,65.488777 415.759186,66.849182   C415.707611,68.920601 415.281189,70.353622 415.062317,71.817665   C412.063629,91.875862 406.694794,111.193550 396.925964,129.090622   C393.475006,135.413025 389.680847,141.548096 385.730774,147.968216   C357.819763,160.676529 329.536835,170.971878 299.324677,175.187958   C280.291779,177.844009 261.303253,178.455338 242.462204,174.018631   C235.564072,172.394241 228.833527,170.058212 221.829163,167.764297   C210.528000,161.957977 200.611984,154.851791 192.151016,145.720062   C189.566452,142.930588 186.598511,140.496323 183.806152,137.899384  z"/>
<path fill="#bbcafa" opacity="1.000000" stroke="none" d=" M437.920044,515.606445   C417.123260,532.757507 393.448639,544.456970 367.153198,550.229004   C355.280212,552.835205 343.003448,553.753723 330.861847,554.951416   C308.529968,557.154114 286.648956,553.988037 265.213226,547.940186   C244.156113,541.999084 224.707993,532.587158 207.481674,518.906433   C206.587692,518.196472 205.930649,517.188110 205.029358,515.977966   C207.417267,514.805908 209.939133,513.974548 213.143127,513.251465   C218.557602,511.548370 223.289963,509.737061 228.022308,507.925720   C228.022308,507.925720 228.245773,507.791931 228.678406,507.789307   C229.399353,507.493622 229.687668,507.200592 229.976013,506.907593   C229.976013,506.907593 229.977768,506.983887 230.263885,506.957794   C231.010910,506.560699 231.471802,506.189667 231.932678,505.818634   C231.932678,505.818634 231.930191,505.910553 232.218384,505.908020   C232.946869,505.509735 233.387161,505.113953 233.827454,504.718201   C233.827469,504.718201 233.886917,504.814514 234.104309,504.764130   C234.495804,504.404541 234.669907,504.095367 234.844025,503.786194   C234.844040,503.786194 234.915894,503.885712 235.125885,503.805054   C235.513016,503.417786 235.690155,503.111176 235.867294,502.804596   C235.867294,502.804596 235.912354,502.899689 236.127518,502.814758   C236.517654,502.422729 236.692627,502.115601 236.867584,501.808502   C236.867599,501.808502 236.913620,501.907013 237.127914,501.818268   C237.513962,501.421509 237.685715,501.113495 237.857468,500.805481   C237.857468,500.805481 237.900375,500.916992 238.116928,500.820862   C238.492599,500.411255 238.651718,500.097778 238.810852,499.784302   C238.810837,499.784302 238.843933,499.904846 239.101776,499.776215   C239.547501,499.063843 239.735382,498.480103 239.923279,497.896362   C239.923294,497.896362 239.942612,497.995117 240.271698,497.953735   C241.510696,497.045654 242.815491,496.346771 243.266663,495.285126   C246.287018,488.178131 249.971283,481.204102 251.815872,473.783142   C254.302261,463.780243 255.326584,453.413910 256.978333,443.203552   C259.452454,443.951752 261.926605,444.699982 265.051453,445.670837   C281.862427,451.722260 298.738495,453.944305 315.717804,454.825287   C326.426788,455.380920 337.271454,454.854034 347.959839,453.823486   C357.757263,452.878845 367.426727,450.606995 377.152557,448.919922   C379.546478,448.321960 382.009094,447.914062 384.317749,447.080109   C387.529907,445.919861 388.866180,446.321503 389.515503,450.210571   C391.257751,460.645630 393.051178,471.137024 395.887177,481.309753   C400.418945,497.565369 410.756287,508.399658 427.733459,512.176331   C431.113434,512.928223 434.362427,514.268921 437.920044,515.606445  z"/>
<path fill="#e9efff" opacity="1.000000" stroke="none" d=" M528.000610,743.042114   C494.703156,743.089539 461.405670,743.174377 428.108215,743.177551   C322.047455,743.187683 215.986664,743.167603 109.471817,742.687500   C109.347687,740.108887 109.741585,738.009705 109.996124,735.893799   C110.915344,728.252625 111.787659,720.605835 112.782173,713.262695   C113.714798,713.463379 114.818481,713.669861 115.327835,713.213318   C119.663368,709.326782 123.901138,705.330688 128.147415,701.345276   C131.140076,698.536560 134.100388,695.693359 138.216019,691.781067   C147.793228,701.910278 156.897827,711.539673 165.980850,721.146240   C167.674591,719.899292 168.944168,719.089050 170.071716,718.114502   C178.378128,710.935303 186.871857,703.951721 194.849625,696.422302   C198.674118,692.812744 201.072510,692.884399 204.510559,696.711792   C207.939224,700.528809 212.060455,703.725708 215.895233,707.175476   C221.061447,711.822937 226.244064,716.452148 231.712601,721.351685   C241.909790,711.740112 251.901535,702.322205 262.566437,692.269836   C272.185486,702.029236 281.487244,711.466736 290.774750,720.889771   C300.643768,712.568542 310.531006,704.696350 319.823822,696.175903   C323.727234,692.596924 325.852936,693.392639 329.187988,696.555115   C337.968689,704.881531 347.064850,712.875183 356.355621,721.291504   C366.492859,711.775574 376.410217,702.466125 386.501099,692.993774   C387.897247,694.314636 389.120392,695.419678 390.285675,696.582642   C397.715820,703.998535 405.184601,711.377014 412.521576,718.884155   C414.553680,720.963379 416.020233,721.329651 418.269226,719.091797   C421.802124,715.576355 425.619629,712.338440 429.410645,709.092834   C435.814148,703.610657 442.291260,698.214417 449.349945,692.265869   C459.016663,702.089539 468.319061,711.542969 477.520782,720.894104   C489.453094,711.325745 501.077911,702.003906 512.851501,692.562866   C516.523315,695.997986 519.779785,699.044556 523.045166,702.506714   C523.369202,705.861633 523.638977,708.806641 524.007812,711.739197   C525.320557,722.175781 526.666992,732.608093 528.000610,743.042114  z"/>
<path fill="#bbcafa" opacity="1.000000" stroke="none" d=" M112.677689,712.961121   C111.787659,720.605835 110.915344,728.252625 109.996124,735.893799   C109.741585,738.009705 109.347687,740.108887 109.004974,742.635010   C101.725380,743.195007 94.458633,743.450012 87.191727,743.454346   C67.016052,743.466431 46.840313,743.374207 26.331562,742.797852   C25.517101,740.331055 24.799393,738.412354 24.609365,736.442810   C24.320730,733.451172 24.593351,730.403198 24.270626,727.417664   C23.874151,723.750000 20.793083,719.587830 26.734177,717.458008   C27.287540,717.259644 27.975706,715.655945 27.802547,715.476807   C24.691509,712.258362 28.046003,709.247437 28.007126,706.163513   C27.977184,703.788391 28.206583,701.494324 24.902882,700.811646   C24.120432,700.650024 23.000750,697.860107 23.267382,697.614197   C24.467304,696.507629 26.110462,695.881653 28.335529,694.682800   C26.944853,692.589783 25.566212,690.514893 24.978899,689.630981   C25.480692,684.807739 25.768660,681.055603 26.288467,677.335938   C26.754953,673.997803 27.982943,670.693787 27.972919,667.377441   C27.955572,661.637939 28.966061,657.050293 37.564911,656.841553   C34.314648,654.415161 32.681942,653.196350 30.515324,651.578918   C31.809601,649.259949 32.668495,646.721985 34.341393,644.954468   C36.945770,642.202698 38.055771,636.416016 35.990303,632.981506   C44.224785,611.265808 57.433365,592.871704 74.419426,577.305481   C82.466995,569.930603 91.615730,563.757385 100.606949,556.971802   C103.951027,570.611084 107.706863,584.204956 109.791618,598.050476   C113.539505,622.941406 115.034782,648.067871 115.014221,674.151001   C114.910591,676.735657 114.838737,678.429321 114.517365,680.431335   C114.166809,688.476440 114.065796,696.213074 113.828140,704.330078   C113.353569,707.460571 113.015625,710.210876 112.677689,712.961121  z"/>
<path fill="#bbcafa" opacity="1.000000" stroke="none" d=" M528.337280,743.153381   C526.666992,732.608093 525.320557,722.175781 524.007812,711.739197   C523.638977,708.806641 523.369202,705.861633 523.096924,702.225464   C523.175415,701.341614 523.211060,701.154724 523.424194,700.806885   C523.459717,700.103760 523.317688,699.561523 523.118835,698.588867   C522.981628,695.858704 522.901306,693.559021 522.873779,690.810486   C522.612183,682.891357 522.297729,675.421021 522.006836,667.531128   C522.001953,665.437012 521.973450,663.762573 521.944885,662.088135   C523.256653,626.196533 526.048950,590.500671 536.018677,555.354858   C559.682922,569.233093 578.482666,588.320862 592.554138,612.070679   C603.773193,631.006104 610.327454,651.582581 613.448364,673.617065   C612.536865,675.441895 611.736450,676.827942 611.650757,678.256714   C611.376709,682.830017 612.662659,688.044434 610.847412,691.804993   C609.386108,694.832153 610.043640,696.298157 610.797668,698.745789   C611.834045,702.109802 612.599060,705.631653 612.889160,709.134827   C613.395142,715.245972 613.020203,721.450623 613.813232,727.511597   C614.632629,733.774292 611.720764,737.911682 605.219788,737.979797   C597.238098,738.063477 589.252625,738.119507 581.272766,737.973206   C567.844482,737.727112 554.405579,737.571838 540.998413,736.861938   C533.935242,736.487976 533.961365,735.994629 534.050781,743.152710   C532.258484,743.190063 530.466187,743.227356 528.337280,743.153381  z"/>
<path fill="#F35450" opacity="1.000000" stroke="none" d=" M386.043396,147.768707   C389.680847,141.548096 393.475006,135.413025 396.925964,129.090622   C406.694794,111.193550 412.063629,91.875862 415.062317,71.817665   C415.281189,70.353622 415.707611,68.920601 416.075012,67.030632   C431.135406,70.477806 440.699036,82.256126 441.098358,97.526909   C441.239502,102.924538 441.120911,108.328941 441.120911,113.347427   C446.789368,112.254723 452.061096,110.721237 457.416168,110.330681   C464.942780,109.781784 470.913330,113.302124 475.231262,119.422882   C480.299591,126.607292 482.236023,134.745163 482.319031,143.448807   C482.532043,165.781250 477.676514,187.366165 472.508087,208.868347   C469.450592,221.588394 465.691315,234.139771 462.095398,247.437744   C455.974884,253.783020 450.006622,259.457550 443.705322,265.448669   C441.629364,259.809631 439.813416,254.876724 438.031189,249.481308   C438.064972,232.784027 438.064972,216.549255 438.064972,200.388290   C418.863251,198.904495 411.145203,192.340866 407.912292,174.215500   C406.551361,166.585327 406.389923,158.728531 405.898376,150.961151   C405.642181,146.912857 405.853241,142.834991 405.853241,138.333252   C398.831451,141.677734 392.437439,144.723221 386.043396,147.768707  z"/>
<path fill="#81606C" opacity="1.000000" stroke="none" d=" M437.997437,249.943817   C439.813416,254.876724 441.629364,259.809631 443.705322,265.448669   C450.006622,259.457550 455.974884,253.783020 462.080383,247.845459   C463.318420,246.859924 464.419281,246.137421 466.217926,244.956940   C467.090973,246.766098 467.920410,248.484833 468.269928,250.631378   C464.524323,254.089844 461.258575,257.120483 457.745605,260.291107   C457.317047,260.950592 457.135742,261.470123 456.980103,261.986542   C457.005829,261.983398 456.965912,261.950439 456.621094,261.964569   C453.457031,264.516998 450.547272,266.963684 447.851013,269.626556   C446.118317,271.337769 443.938324,273.136383 443.283508,275.297241   C441.333069,281.733765 440.036896,288.368530 438.485046,294.925842   C433.630341,300.287537 429.450378,306.529205 423.804169,310.858765   C399.235779,329.697815 363.146729,319.952148 350.899689,290.104645   C349.753174,285.581207 348.518524,281.812378 347.879578,277.945129   C347.065857,273.020264 345.242188,268.839142 341.127960,265.841705   C335.580475,260.900330 330.583771,259.915619 324.315613,263.245544   C317.629730,266.797333 312.434967,271.049652 311.225922,279.832031   C308.113983,302.436371 289.890015,320.358704 264.239288,320.462463   C237.084106,320.572327 218.324341,300.651154 216.546738,277.307404   C215.954819,269.534241 212.640396,265.633545 206.342972,261.858459   C201.221405,257.945099 196.604355,254.449310 191.791046,250.689911   C189.726715,249.212387 187.858643,247.998489 185.990570,246.784576   C184.771561,243.550186 186.755371,242.148407 189.790131,241.394623   C195.772415,245.885483 201.235779,250.032806 206.901917,254.455170   C210.208893,257.163757 213.313095,259.597290 216.822586,262.348602   C224.050827,238.378372 239.842026,224.519119 264.197327,224.702881   C289.457520,224.893478 305.227844,239.524338 311.745331,264.713684   C320.563782,257.003937 329.857849,253.155426 341.188477,258.023438   C342.592865,258.859467 343.726349,259.494202 344.873901,260.127014   C344.887970,260.125092 344.893494,260.097260 344.964386,260.344910   C345.286072,260.823395 345.536865,261.054230 345.940277,261.554993   C346.613831,262.404999 347.134766,262.985107 347.973785,263.919373   C348.421936,262.515289 348.755096,261.612885 348.998962,260.687012   C355.855469,234.657425 381.379333,219.536850 407.472321,226.128357   C421.117096,229.575226 430.814148,238.170273 437.997437,249.943817  M398.070038,314.695160   C399.050171,314.506226 400.022552,314.244659 401.011566,314.139008   C423.344727,311.753845 439.918884,289.998962 437.236206,267.712982   C434.645142,246.188126 415.212708,229.064453 393.921387,230.179779   C371.412781,231.358871 353.314728,249.976562 353.136810,272.135376   C352.945679,295.940216 372.658417,315.023376 398.070038,314.695160  M278.381989,312.043671   C283.732697,308.491028 289.796204,305.667267 294.307007,301.255798   C311.132629,284.800812 309.899384,258.355530 292.046356,241.241043   C276.208344,226.058212 248.540207,227.047592 233.525467,243.333679   C219.916702,258.094696 218.040207,278.944489 228.973373,295.814789   C238.124542,309.935333 257.938904,319.379303 278.381989,312.043671  z"/>
<path fill="#F35451" opacity="1.000000" stroke="none" d=" M206.699142,254.180145   C201.235779,250.032806 195.772415,245.885483 190.127502,241.467239   C186.524124,224.129913 183.075455,207.068848 179.687897,189.995651   C176.210373,172.468964 175.000458,155.085083 183.551178,138.136688   C186.598511,140.496323 189.566452,142.930588 192.151016,145.720062   C200.611984,154.851791 210.528000,161.957977 221.763184,168.118713   C219.916885,174.194366 217.583817,179.533310 216.023788,185.089325   C209.684158,207.667572 207.465195,230.832916 206.699142,254.180145  z"/>
<path fill="#E28980" opacity="1.000000" stroke="none" d=" M185.580048,246.787964   C187.858643,247.998489 189.726715,249.212387 191.796234,251.110931   C193.346008,260.441559 194.694366,269.087555 196.042709,277.733521   C198.124832,293.286560 200.233994,308.836151 202.236038,324.399506   C202.390732,325.602112 201.792221,326.901611 201.293274,328.368591   C191.388596,329.934174 183.770096,325.860504 177.853378,318.856689   C165.748184,304.527435 161.464630,287.532562 163.157883,269.160767   C164.264618,257.152588 173.273697,248.609070 185.580048,246.787964  z"/>
<path fill="#E28A80" opacity="1.000000" stroke="none" d=" M457.992859,260.151154   C461.258575,257.120483 464.524323,254.089844 468.084259,250.982513   C475.430084,255.250092 479.226105,261.813751 479.858704,269.813141   C481.262054,287.559601 477.121277,303.939392 465.862701,318.007874   C460.349548,324.896912 453.149841,329.133270 443.501831,328.833862   C444.177277,321.963776 445.310547,315.168915 446.348022,308.359436   C446.965454,304.306793 447.432281,300.231201 448.216278,295.457336   C451.299133,283.815979 454.132538,272.883209 456.965942,261.950439   C456.965912,261.950439 457.005829,261.983398 457.230469,261.850647   C457.634338,261.195648 457.813599,260.673401 457.992859,260.151154  z"/>
<path fill="#E2897F" opacity="1.000000" stroke="none" d=" M377.110443,448.500580   C367.426727,450.606995 357.757263,452.878845 347.959839,453.823486   C337.271454,454.854034 326.426788,455.380920 315.717804,454.825287   C298.738495,453.944305 281.862427,451.722260 265.457764,445.692444   C265.390839,440.309174 265.568298,435.126923 265.744629,429.488434   C282.433868,439.691040 300.483643,444.853119 320.473297,444.199860   C333.790863,443.764648 347.068726,444.022675 359.725250,439.141724   C364.042206,437.476898 368.180206,435.340576 372.369110,433.354736   C374.041595,432.561890 375.739990,431.207581 376.369812,434.706482   C376.583313,435.716370 376.624512,436.471588 376.501343,437.720764   C376.221405,438.549255 376.310730,438.823883 376.604980,439.038666   C376.672394,439.769836 376.739777,440.500977 376.638000,441.709991   C376.563477,442.468567 376.658173,442.749268 376.752838,443.029999   C376.858002,444.713745 376.963165,446.397461 377.110443,448.500580  z"/>
<path fill="#bbcafa" opacity="1.000000" stroke="none" d=" M534.512573,743.212097   C533.961365,735.994629 533.935242,736.487976 540.998413,736.861938   C554.405579,737.571838 567.844482,737.727112 581.272766,737.973206   C589.252625,738.119507 597.238098,738.063477 605.219788,737.979797   C611.720764,737.911682 614.632629,733.774292 613.813232,727.511597   C613.020203,721.450623 613.395142,715.245972 612.889160,709.134827   C612.599060,705.631653 611.834045,702.109802 610.797668,698.745789   C610.043640,696.298157 609.386108,694.832153 610.847412,691.804993   C612.662659,688.044434 611.376709,682.830017 611.650757,678.256714   C611.736450,676.827942 612.536865,675.441895 613.388000,674.020752   C617.198242,691.932617 617.483826,710.011780 616.375610,728.158081   C616.142639,731.972900 615.894104,735.786804 615.681335,739.602783   C615.511292,742.652405 614.118774,743.773804 610.903259,743.740906   C585.594666,743.481873 560.284302,743.404724 534.512573,743.212097  z"/>
<path fill="#bbcafa" opacity="1.000000" stroke="none" d=" M35.730579,633.215210   C38.055771,636.416016 36.945770,642.202698 34.341393,644.954468   C32.668495,646.721985 31.809601,649.259949 30.515324,651.578918   C32.681942,653.196350 34.314648,654.415161 37.564911,656.841553   C28.966061,657.050293 27.955572,661.637939 27.972919,667.377441   C27.982943,670.693787 26.754953,673.997803 26.288467,677.335938   C25.768660,681.055603 25.480692,684.807739 24.978899,689.630981   C25.566212,690.514893 26.944853,692.589783 28.335529,694.682800   C26.110462,695.881653 24.467304,696.507629 23.267382,697.614197   C23.000750,697.860107 24.120432,700.650024 24.902882,700.811646   C28.206583,701.494324 27.977184,703.788391 28.007126,706.163513   C28.046003,709.247437 24.691509,712.258362 27.802547,715.476807   C27.975706,715.655945 27.287540,717.259644 26.734177,717.458008   C20.793083,719.587830 23.874151,723.750000 24.270626,727.417664   C24.593351,730.403198 24.320730,733.451172 24.609365,736.442810   C24.799393,738.412354 25.517101,740.331055 26.000628,742.663086   C23.660662,744.016479 22.643034,743.181030 22.441944,740.701233   C19.470568,704.058655 21.009037,667.970947 35.730579,633.215210  z"/>
<path fill="#F3975B" opacity="1.000000" stroke="none" d=" M256.590820,443.116425   C255.326584,453.413910 254.302261,463.780243 251.815872,473.783142   C249.971283,481.204102 246.287018,488.178131 243.266663,495.285126   C242.815491,496.346771 241.510696,497.045654 240.237793,497.916565   C249.393982,482.790253 252.615158,465.844574 254.277664,448.417419   C254.453262,446.576904 255.539566,444.823273 256.590820,443.116425  z"/>
<path fill="#F3975B" opacity="1.000000" stroke="none" d=" M227.637238,507.966248   C223.289963,509.737061 218.557602,511.548370 213.519257,513.236450   C217.892899,511.411072 222.572525,509.708893 227.637238,507.966248  z"/>
<path fill="#F3975B" opacity="1.000000" stroke="none" d=" M233.516373,504.706299   C233.387161,505.113953 232.946869,505.509735 232.177658,505.886688   C232.300934,505.476715 232.753113,505.085571 233.516373,504.706299  z"/>
<path fill="#F3975B" opacity="1.000000" stroke="none" d=" M231.632431,505.855499   C231.471802,506.189667 231.010910,506.560699 230.231262,506.938049   C230.385727,506.593719 230.858948,506.243042 231.632431,505.855499  z"/>
<path fill="#F3975B" opacity="1.000000" stroke="none" d=" M239.658478,498.049805   C239.735382,498.480103 239.547501,499.063843 239.050262,499.740845   C238.958496,499.290497 239.176086,498.746887 239.658478,498.049805  z"/>
<path fill="#F3975B" opacity="1.000000" stroke="none" d=" M234.560791,503.827759   C234.669907,504.095367 234.495804,504.404541 234.047729,504.765564   C233.941727,504.501373 234.109650,504.185333 234.560791,503.827759  z"/>
<path fill="#F3975B" opacity="1.000000" stroke="none" d=" M229.670776,506.973206   C229.687668,507.200592 229.399353,507.493622 228.795746,507.845734   C228.775497,507.616150 229.070526,507.327484 229.670776,506.973206  z"/>
<path fill="#F3975B" opacity="1.000000" stroke="none" d=" M235.589005,502.857269   C235.690155,503.111176 235.513016,503.417786 235.066788,503.788513   C234.968689,503.538452 235.139694,503.224213 235.589005,502.857269  z"/>
<path fill="#F3975B" opacity="1.000000" stroke="none" d=" M236.591156,501.864258   C236.692627,502.115601 236.517654,502.422729 236.076508,502.801819   C235.978485,502.555878 236.146606,502.237915 236.591156,501.864258  z"/>
<path fill="#F3975B" opacity="1.000000" stroke="none" d=" M237.581543,500.860687   C237.685715,501.113495 237.513962,501.421509 237.076263,501.801270   C236.975418,501.553986 237.140518,501.234924 237.581543,500.860687  z"/>
<path fill="#F3975B" opacity="1.000000" stroke="none" d=" M238.531494,499.827820   C238.651718,500.097778 238.492599,500.411255 238.064789,500.791687   C237.948105,500.529572 238.100113,500.200470 238.531494,499.827820  z"/>
<path fill="#FFAD9F" opacity="1.000000" stroke="none" d=" M376.805420,442.762177   C376.658173,442.749268 376.563477,442.468567 376.596588,442.076477   C376.768890,442.141541 376.813446,442.317932 376.805420,442.762177  z"/>
<path fill="#FFAD9F" opacity="1.000000" stroke="none" d=" M376.665527,438.767517   C376.310730,438.823883 376.221405,438.549255 376.437683,438.094055   C376.600952,438.147736 376.663513,438.322052 376.665527,438.767517  z"/>
<path fill="#836069" opacity="1.000000" stroke="none" d=" M521.661438,661.913330   C521.973450,663.762573 522.001953,665.437012 521.703796,667.402222   C518.637878,665.093567 515.898682,662.494080 512.796326,659.549927   C501.188477,669.098755 489.884644,678.397522 477.779572,688.355408   C468.959259,679.516602 459.101868,669.638611 449.136993,659.652893   C442.778503,664.924683 436.857971,669.740234 431.046539,674.683960   C427.123230,678.021484 422.878632,681.148621 419.640991,685.080627   C415.960632,689.550354 416.134613,689.508118 412.147095,685.523315   C403.709839,677.091919 394.779053,669.154480 385.705872,660.692810   C376.101105,669.773499 365.697754,679.609192 355.045441,689.680237   C353.108643,686.856140 352.034302,684.513855 350.292969,682.884338   C342.643921,675.726318 334.786102,668.791870 327.041290,661.735352   C325.088531,659.956116 323.579529,660.024780 321.513580,661.851562   C315.662598,667.025269 309.445435,671.787598 303.642548,677.011963   C300.133667,680.170898 297.038879,683.810913 293.928223,687.382996   C292.113617,689.466858 289.457947,688.852234 287.306641,686.434326   C279.212372,677.337097 270.892975,668.440247 262.505096,659.301880   C260.449615,661.212280 259.231628,662.319397 258.040741,663.455078   C249.852127,671.263916 241.641129,679.049744 233.501404,686.909302   C231.025497,689.300049 229.090546,690.133728 227.899734,685.893677   C227.728958,685.285583 227.344147,684.651611 226.879211,684.224854   C217.966309,676.044006 209.026566,667.892334 199.950531,659.605042   C196.203568,662.710205 192.829651,665.387695 189.588531,668.217163   C183.083542,673.895935 176.301910,679.319641 170.312408,685.505127   C166.368240,689.578369 166.514938,689.685669 162.759048,685.778564   C154.388000,677.070618 145.511780,668.848267 136.876221,660.461792   C129.603683,666.929016 122.185280,673.526001 114.766884,680.122925   C114.838737,678.429321 114.910591,676.735657 115.059311,674.631592   C122.374687,667.611023 129.613205,661.000854 137.200989,654.071777   C146.428329,663.606567 155.729858,673.218018 165.377045,683.186707   C177.514801,672.860107 188.595612,663.432800 199.842590,653.864075   C210.538208,663.395447 220.935440,672.660889 231.728882,682.279419   C241.819366,672.788574 251.725723,663.470886 261.651642,654.134827   C271.114655,663.727112 280.423340,673.162964 289.937317,682.806885   C298.189148,675.926270 305.552826,669.788208 312.913818,663.646973   C314.829315,662.048889 316.742004,660.447449 318.646179,658.835938   C324.761597,653.660645 324.673096,653.752869 330.694763,659.292603   C339.002533,666.935486 347.457062,674.418762 356.297363,682.374146   C366.450592,672.835754 376.465820,663.427002 386.564697,653.939697   C396.125153,663.565918 405.470276,672.975342 415.033508,682.604309   C426.795837,672.688293 437.815155,663.398682 448.981995,653.984741   C458.385651,663.496460 467.602570,672.819214 477.187042,682.513794   C489.443756,672.810181 501.127289,663.560364 513.259033,653.955688   C515.951721,656.536865 518.664856,659.137695 521.661438,661.913330  z"/>
<path fill="#FFFDFD" opacity="1.000000" stroke="none" d=" M296.963318,367.107056   C290.633301,364.102325 284.670624,361.220459 278.707947,358.338593   C278.808167,357.704071 278.908386,357.069519 279.008606,356.434998   C310.741699,356.434998 342.474762,356.434998 373.653900,356.434998   C365.298126,369.584381 330.854431,380.583313 296.963318,367.107056  z"/>
<path fill="#E28A80" opacity="1.000000" stroke="none" d=" M341.090820,266.303650   C345.242188,268.839142 347.065857,273.020264 347.879578,277.945129   C348.518524,281.812378 349.753174,285.581207 350.795380,289.766418   C351.029388,295.952606 350.660980,301.841827 351.478119,307.561737   C352.686249,316.018555 352.857544,316.305145 345.328705,320.362030   C340.105682,323.176361 334.930664,326.079773 329.366577,328.971405   C328.998962,328.999420 328.977234,328.981567 328.977234,328.981567   C331.585144,326.355896 333.786072,323.022186 336.880737,321.243317   C344.734589,316.728943 346.318237,311.017090 344.541931,302.130615   C342.231445,290.571716 342.114624,278.574310 341.090820,266.303650  z"/>
<path fill="#F0544F" opacity="1.000000" stroke="none" d=" M456.621124,261.964569   C454.132538,272.883209 451.299133,283.815979 448.195099,295.042084   C445.105713,295.252289 442.286957,295.169159 438.976624,295.005920   C440.036896,288.368530 441.333069,281.733765 443.283508,275.297241   C443.938324,273.136383 446.118317,271.337769 447.851013,269.626556   C450.547272,266.963684 453.457031,264.516998 456.621124,261.964569  z"/>
<path fill="#F15450" opacity="1.000000" stroke="none" d=" M196.470139,277.784851   C194.694366,269.087555 193.346008,260.441559 191.992493,251.374557   C196.604355,254.449310 201.221405,257.945099 206.041672,261.728790   C206.244888,267.525116 206.244888,273.033539 206.244888,278.994629   C202.607483,278.543823 199.752533,278.189972 196.470139,277.784851  z"/>
<path fill="#E28A80" opacity="1.000000" stroke="none" d=" M329.007812,329.010132   C328.903259,329.044159 328.789856,329.067444 328.826843,329.036163   C328.977234,328.981567 328.998962,328.999420 329.007812,329.010132  z"/>
<path fill="#FEAD9E" opacity="1.000000" stroke="none" d=" M206.901917,254.455170   C207.465195,230.832916 209.684158,207.667572 216.023788,185.089325   C217.583817,179.533310 219.916885,174.194366 221.960541,168.401215   C228.833527,170.058212 235.564072,172.394241 242.462204,174.018631   C261.303253,178.455338 280.291779,177.844009 299.324677,175.187958   C329.536835,170.971878 357.819763,160.676529 385.730774,147.968231   C392.437439,144.723221 398.831451,141.677734 405.853241,138.333252   C405.853241,142.834991 405.642181,146.912857 405.898376,150.961151   C406.389923,158.728531 406.551361,166.585327 407.912292,174.215500   C411.145203,192.340866 418.863251,198.904495 438.064972,200.388290   C438.064972,216.549255 438.064972,232.784027 438.031189,249.481308   C430.814148,238.170273 421.117096,229.575226 407.472321,226.128357   C381.379333,219.536850 355.855469,234.657425 348.998962,260.687012   C348.755096,261.612885 348.421936,262.515289 347.973785,263.919373   C347.134766,262.985107 346.613831,262.404999 345.913879,261.279724   C345.454437,260.522125 345.173950,260.309692 344.893494,260.097260   C344.893494,260.097260 344.887970,260.125092 344.930115,259.686005   C343.882141,253.065979 342.792053,246.885040 341.701996,240.704102   C341.051575,240.792465 340.401184,240.880844 339.750793,240.969223   C340.139709,246.586838 340.528656,252.204468 340.917572,257.822083   C329.857849,253.155426 320.563782,257.003937 311.745331,264.713684   C305.227844,239.524338 289.457520,224.893478 264.197327,224.702881   C239.842026,224.519119 224.050827,238.378372 216.822586,262.348602   C213.313095,259.597290 210.208893,257.163757 206.901917,254.455170  M232.156036,216.688995   C230.423309,219.414062 228.690598,222.139130 226.957886,224.864197   C227.116089,225.395493 227.274292,225.926773 227.432495,226.458069   C249.408951,209.518616 270.491608,215.276779 292.083130,229.420410   C281.332855,205.245880 250.929626,195.527908 232.156036,216.688995  M388.317444,204.940887   C372.687653,204.841339 357.902954,214.439514 356.463409,226.474014   C378.179840,209.398529 399.080872,215.413315 419.868683,228.082489   C413.482117,214.786835 403.599243,206.869736 388.317444,204.940887  z"/>
<path fill="#815F69" opacity="1.000000" stroke="none" d=" M523.246643,700.967834   C523.211060,701.154724 523.175415,701.341614 523.088013,701.809814   C519.779785,699.044556 516.523315,695.997986 512.851501,692.562866   C501.077911,702.003906 489.453094,711.325745 477.520782,720.894104   C468.319061,711.542969 459.016663,702.089539 449.349945,692.265869   C442.291260,698.214417 435.814148,703.610657 429.410645,709.092834   C425.619629,712.338440 421.802124,715.576355 418.269226,719.091797   C416.020233,721.329651 414.553680,720.963379 412.521576,718.884155   C405.184601,711.377014 397.715820,703.998535 390.285675,696.582642   C389.120392,695.419678 387.897247,694.314636 386.501099,692.993774   C376.410217,702.466125 366.492859,711.775574 356.355621,721.291504   C347.064850,712.875183 337.968689,704.881531 329.187988,696.555115   C325.852936,693.392639 323.727234,692.596924 319.823822,696.175903   C310.531006,704.696350 300.643768,712.568542 290.774750,720.889771   C281.487244,711.466736 272.185486,702.029236 262.566437,692.269836   C251.901535,702.322205 241.909790,711.740112 231.712601,721.351685   C226.244064,716.452148 221.061447,711.822937 215.895233,707.175476   C212.060455,703.725708 207.939224,700.528809 204.510559,696.711792   C201.072510,692.884399 198.674118,692.812744 194.849625,696.422302   C186.871857,703.951721 178.378128,710.935303 170.071716,718.114502   C168.944168,719.089050 167.674591,719.899292 165.980850,721.146240   C156.897827,711.539673 147.793228,701.910278 138.216019,691.781067   C134.100388,695.693359 131.140076,698.536560 128.147415,701.345276   C123.901138,705.330688 119.663368,709.326782 115.327835,713.213318   C114.818481,713.669861 113.714798,713.463379 112.782166,713.262695   C113.015625,710.210876 113.353569,707.460571 114.130524,704.191406   C122.172485,696.546753 129.775421,689.420959 137.624008,682.064941   C146.405655,690.884583 154.907928,699.320129 163.269287,707.893066   C165.393295,710.070862 166.907669,710.577515 169.458054,708.322449   C178.300003,700.504395 187.436081,693.018921 196.276550,685.199219   C198.738617,683.021423 200.294769,682.659485 202.888489,685.070740   C211.045273,692.653625 219.598770,699.811829 227.701721,707.449463   C230.697891,710.273560 232.480530,710.291870 235.390305,707.369812   C242.784256,699.944580 250.565750,692.906738 258.113617,685.632385   C261.010895,682.840088 263.184082,682.500122 266.271088,685.832764   C273.169922,693.280579 280.679230,700.160034 287.664185,707.532166   C290.264282,710.276428 292.050262,710.039856 294.664703,707.773804   C303.460052,700.150635 312.492798,692.799316 321.217957,685.098511   C323.810303,682.810547 325.362122,682.895691 327.817383,685.212463   C335.195068,692.173889 342.599579,699.138123 350.400879,705.610352   C357.400238,711.417175 355.083649,712.048096 362.053528,705.489563   C370.242828,697.783691 378.419861,690.064758 386.787994,682.176392   C395.082642,690.459473 403.352356,698.205261 410.971313,706.545532   C414.690247,710.616577 417.167999,709.879150 420.675140,706.750610   C428.738800,699.557312 437.104736,692.701843 445.137878,685.475708   C448.310272,682.622070 450.402283,682.744507 453.353088,685.877625   C460.315216,693.270081 467.745056,700.220398 474.779022,707.547852   C477.095978,709.961548 478.779144,710.252686 481.401825,708.059937   C488.543793,702.089111 495.908875,696.386108 503.111633,690.486694   C513.208740,682.216614 513.180054,682.182068 522.414978,690.968933   C522.534363,691.082458 522.684937,691.163269 522.820984,691.259338   C522.901306,693.559021 522.981628,695.858704 523.055115,698.913574   C523.114380,700.101807 523.180542,700.534790 523.246643,700.967834  z"/>
<path fill="#ff7383" opacity="1.000000" stroke="none" d=" M522.873779,690.810486   C522.684937,691.163269 522.534363,691.082458 522.414978,690.968933   C513.180054,682.182068 513.208740,682.216614 503.111633,690.486694   C495.908875,696.386108 488.543793,702.089111 481.401825,708.059937   C478.779144,710.252686 477.095978,709.961548 474.779022,707.547852   C467.745056,700.220398 460.315216,693.270081 453.353088,685.877625   C450.402283,682.744507 448.310272,682.622070 445.137878,685.475708   C437.104736,692.701843 428.738800,699.557312 420.675140,706.750610   C417.167999,709.879150 414.690247,710.616577 410.971313,706.545532   C403.352356,698.205261 395.082642,690.459473 386.787994,682.176392   C378.419861,690.064758 370.242828,697.783691 362.053528,705.489563   C355.083649,712.048096 357.400238,711.417175 350.400879,705.610352   C342.599579,699.138123 335.195068,692.173889 327.817383,685.212463   C325.362122,682.895691 323.810303,682.810547 321.217957,685.098511   C312.492798,692.799316 303.460052,700.150635 294.664703,707.773804   C292.050262,710.039856 290.264282,710.276428 287.664185,707.532166   C280.679230,700.160034 273.169922,693.280579 266.271088,685.832764   C263.184082,682.500122 261.010895,682.840088 258.113617,685.632385   C250.565750,692.906738 242.784256,699.944580 235.390305,707.369812   C232.480530,710.291870 230.697891,710.273560 227.701721,707.449463   C219.598770,699.811829 211.045273,692.653625 202.888489,685.070740   C200.294769,682.659485 198.738617,683.021423 196.276550,685.199219   C187.436081,693.018921 178.300003,700.504395 169.458054,708.322449   C166.907669,710.577515 165.393295,710.070862 163.269287,707.893066   C154.907928,699.320129 146.405655,690.884583 137.624008,682.064941   C129.775421,689.420959 122.172485,696.546753 114.267159,703.811157   C114.065796,696.213074 114.166809,688.476440 114.517349,680.431335   C122.185280,673.526001 129.603683,666.929016 136.876221,660.461792   C145.511780,668.848267 154.388000,677.070618 162.759048,685.778564   C166.514938,689.685669 166.368240,689.578369 170.312408,685.505127   C176.301910,679.319641 183.083542,673.895935 189.588531,668.217163   C192.829651,665.387695 196.203568,662.710205 199.950531,659.605042   C209.026566,667.892334 217.966309,676.044006 226.879211,684.224854   C227.344147,684.651611 227.728958,685.285583 227.899734,685.893677   C229.090546,690.133728 231.025497,689.300049 233.501404,686.909302   C241.641129,679.049744 249.852127,671.263916 258.040741,663.455078   C259.231628,662.319397 260.449615,661.212280 262.505096,659.301880   C270.892975,668.440247 279.212372,677.337097 287.306641,686.434326   C289.457947,688.852234 292.113617,689.466858 293.928223,687.382996   C297.038879,683.810913 300.133667,680.170898 303.642548,677.011963   C309.445435,671.787598 315.662598,667.025269 321.513580,661.851562   C323.579529,660.024780 325.088531,659.956116 327.041290,661.735352   C334.786102,668.791870 342.643921,675.726318 350.292969,682.884338   C352.034302,684.513855 353.108643,686.856140 355.045441,689.680237   C365.697754,679.609192 376.101105,669.773499 385.705872,660.692810   C394.779053,669.154480 403.709839,677.091919 412.147095,685.523315   C416.134613,689.508118 415.960632,689.550354 419.640991,685.080627   C422.878632,681.148621 427.123230,678.021484 431.046539,674.683960   C436.857971,669.740234 442.778503,664.924683 449.136993,659.652893   C459.101868,669.638611 468.959259,679.516602 477.779572,688.355408   C489.884644,678.397522 501.188477,669.098755 512.796326,659.549927   C515.898682,662.494080 518.637878,665.093567 521.680176,667.821899   C522.297729,675.421021 522.612183,682.891357 522.873779,690.810486  z"/>
<path fill="#e9efff" opacity="1.000000" stroke="none" d=" M523.424194,700.806885   C523.180542,700.534790 523.114380,700.101807 523.112000,699.344055   C523.317688,699.561523 523.459717,700.103760 523.424194,700.806885  z"/>
<path fill="#9BC7DB" opacity="1.000000" stroke="none" d=" M397.633118,314.741394   C372.658417,315.023376 352.945679,295.940216 353.136810,272.135376   C353.314728,249.976562 371.412781,231.358871 393.921387,230.179779   C415.212708,229.064453 434.645142,246.188126 437.236206,267.712982   C439.918884,289.998962 423.344727,311.753845 401.011566,314.139008   C400.022552,314.244659 399.050171,314.506226 397.633118,314.741394  M376.625031,254.773331   C391.231659,252.016525 397.732666,261.331451 402.678162,272.962982   C402.986176,262.656372 397.856873,254.189056 389.863770,250.797684   C382.124786,247.514145 372.436096,249.098480 367.074219,254.602676   C361.480194,260.345215 360.866943,267.305969 362.010437,274.689728   C364.289703,266.411041 365.949615,257.870178 376.625031,254.773331  z"/>
<path fill="#9BC7DB" opacity="1.000000" stroke="none" d=" M278.007050,312.171143   C257.938904,319.379303 238.124542,309.935333 228.973373,295.814789   C218.040207,278.944489 219.916702,258.094696 233.525467,243.333679   C248.540207,227.047592 276.208344,226.058212 292.046356,241.241043   C309.899384,258.355530 311.132629,284.800812 294.307007,301.255798   C289.796204,305.667267 283.732697,308.491028 278.007050,312.171143  M270.622162,251.563995   C253.418549,249.279404 241.457581,261.730865 246.693710,276.571075   C248.769379,267.410645 250.798233,257.945129 262.211548,256.432098   C277.050507,254.464951 282.893341,264.647522 287.287170,277.386871   C288.377228,264.990662 282.136047,255.451660 270.622162,251.563995  z"/>
<path fill="#E48C82" opacity="1.000000" stroke="none" d=" M341.188477,258.023438   C340.528656,252.204468 340.139709,246.586838 339.750793,240.969223   C340.401184,240.880844 341.051575,240.792465 341.701996,240.704102   C342.792053,246.885040 343.882141,253.065979 344.916016,259.687927   C343.726349,259.494202 342.592865,258.859467 341.188477,258.023438  z"/>
<path fill="#F0544F" opacity="1.000000" stroke="none" d=" M457.745605,260.291107   C457.813599,260.673401 457.634338,261.195648 457.204742,261.853790   C457.135742,261.470123 457.317047,260.950592 457.745605,260.291107  z"/>
<path fill="#E48C82" opacity="1.000000" stroke="none" d=" M344.964386,260.344910   C345.173950,260.309692 345.454437,260.522125 345.761292,261.009796   C345.536865,261.054230 345.286072,260.823395 344.964386,260.344910  z"/>
<path fill="#3C2B39" opacity="1.000000" stroke="none" d=" M232.396484,216.426666   C250.929626,195.527908 281.332855,205.245880 292.083130,229.420410   C270.491608,215.276779 249.408951,209.518616 227.432495,226.458069   C227.274292,225.926773 227.116089,225.395493 226.957886,224.864197   C228.690598,222.139130 230.423309,219.414062 232.396484,216.426666  z"/>
<path fill="#3B2B38" opacity="1.000000" stroke="none" d=" M388.774658,204.988876   C403.599243,206.869736 413.482117,214.786835 419.868683,228.082489   C399.080872,215.413315 378.179840,209.398529 356.463409,226.474014   C357.902954,214.439514 372.687653,204.841339 388.774658,204.988876  z"/>
<path fill="#3B313F" opacity="1.000000" stroke="none" d=" M376.241180,254.879852   C365.949615,257.870178 364.289703,266.411041 362.010437,274.689728   C360.866943,267.305969 361.480194,260.345215 367.074219,254.602676   C372.436096,249.098480 382.124786,247.514145 389.863770,250.797684   C397.856873,254.189056 402.986176,262.656372 402.678162,272.962982   C397.732666,261.331451 391.231659,252.016525 376.241180,254.879852  z"/>
<path fill="#3C3140" opacity="1.000000" stroke="none" d=" M271.019043,251.682129   C282.136047,255.451660 288.377228,264.990662 287.287170,277.386871   C282.893341,264.647522 277.050507,254.464951 262.211548,256.432098   C250.798233,257.945129 248.769379,267.410645 246.693710,276.571075   C241.457581,261.730865 253.418549,249.279404 271.019043,251.682129  z"/>
</svg>