<svg xmlns="http://www.w3.org/2000/svg" xmlns:xlink="http://www.w3.org/1999/xlink" version="1.1" id="Layer_1" x="0px" y="0px" width="100%" viewBox="0 0 669 808" enable-background="new 0 0 669 808" xml:space="preserve">
<path fill="#FFFFFF" opacity="1.000000" stroke="none" d=" M1.000000,327.000000   C1.000000,218.000000 1.000000,109.500000 1.000000,1.000000   C224.000000,1.000000 447.000000,1.000000 670.000000,1.000000   C670.000000,270.333344 670.000000,539.666687 670.000000,809.000000   C447.000000,809.000000 224.000000,809.000000 1.000000,809.000000   C1.000000,648.500000 1.000000,488.000000 1.000000,327.000000  M286.847290,471.767517   C286.875061,472.837158 286.902863,473.906830 286.734192,475.825439   C286.640442,476.985718 286.546692,478.145996 286.055786,479.918701   C283.998657,489.624237 281.941528,499.329773 279.438141,509.569702   C274.639679,523.529785 265.720978,533.140320 251.044998,536.921265   C241.261230,539.441956 231.555450,542.265381 221.538666,545.036621   C221.262192,545.193420 221.149506,545.429016 221.533722,546.326355   C221.580246,546.545227 221.626785,546.764099 221.016113,546.778442   C219.566360,541.993225 216.456970,541.133179 212.143051,542.971985   C210.967300,543.473145 209.715958,543.797058 208.046280,543.768494   C204.235580,541.551270 200.594742,537.888428 196.578949,537.416565   C188.109497,536.421387 179.198517,535.792114 170.908096,537.350403   C151.891159,540.924805 137.532059,551.020630 131.729568,570.652832   C131.125198,572.697693 130.472824,574.728271 129.176300,576.971802   C94.009727,598.025940 67.779572,626.725708 53.734409,665.692139   C41.875702,698.592529 40.214401,732.476074 43.863197,766.874695   C46.060303,767.059814 47.543285,767.184814 49.693367,767.775879   C51.350945,767.857666 53.008518,768.010864 54.666100,768.010986   C246.987869,768.024414 439.309631,768.028381 631.631409,768.001282   C633.411621,768.001038 635.191772,767.578247 637.811523,767.195923   C641.609192,767.753784 642.591064,765.684509 642.837402,762.322693   C644.374756,741.346191 644.397827,720.445007 641.006836,699.597839   C631.916992,643.714722 601.943359,602.628845 552.649536,574.281433   C551.378479,571.060059 550.273865,567.760803 548.809021,564.630127   C540.056946,545.924744 524.000793,538.174377 504.640686,536.151917   C494.179810,535.058960 483.630371,535.327271 474.209778,542.991394   C470.522552,541.919617 466.834625,540.844299 463.393311,544.815002   C453.008026,541.869568 442.624878,538.916748 432.236938,535.980774   C421.046631,532.817993 413.277954,525.556274 408.984131,515.046448   C405.801666,507.256775 403.803314,498.983307 401.376495,490.049591   C400.278809,478.705627 399.181122,467.361633 398.522644,455.517426   C404.558411,450.841187 411.013855,446.612366 416.558197,441.412170   C442.253357,417.312042 455.970764,386.660431 464.890717,352.899933   C473.091766,353.396698 480.182526,350.422760 485.488678,344.533295   C499.092926,329.433563 504.303772,311.334503 501.345093,291.422150   C499.374634,278.160583 489.464569,271.235107 473.037018,268.663971   C473.342438,265.364136 473.700012,262.068176 473.944275,258.763824   C475.034088,244.021835 476.147522,229.281250 477.147766,214.533035   C478.677368,191.978912 480.638580,169.357040 476.856293,146.893600   C473.736969,128.367706 466.089233,112.618439 446.860840,105.410637   C445.601288,104.938507 444.362915,102.998779 444.080322,101.552963   C441.641785,89.077164 435.520599,79.038895 424.683929,71.194382   C420.980164,68.403542 417.458038,65.322144 413.540588,62.873142   C398.192596,53.278427 381.395264,46.915977 364.020447,42.314960   C351.086975,38.890060 337.905670,36.245636 324.703766,34.036377   C312.967255,32.072338 301.080841,30.583714 289.205231,29.987406   C276.822693,29.365643 264.367096,29.879007 251.960434,30.346762   C249.660004,30.433493 245.874008,32.362385 245.568939,33.971127   C245.162979,36.112049 246.981644,39.256859 248.741104,41.126938   C256.931580,49.832382 267.948853,54.061054 278.474304,58.963875   C285.640564,62.301964 293.008392,65.207283 300.979614,68.601418   C299.669708,68.797661 299.162720,69.010345 298.716553,68.920624   C284.766266,66.115173 270.884460,62.909195 256.860535,60.545605   C240.065262,57.714939 223.244568,54.778847 206.015869,56.932236   C196.943283,58.066200 191.183960,62.530357 193.321503,69.027527   C194.707565,73.240547 198.066193,77.587807 201.748734,80.114883   C212.691711,87.624268 225.599228,88.542763 238.433334,88.984818   C243.875916,89.172287 249.330353,89.016090 254.779419,89.016090   C244.740128,91.743355 234.652206,93.614288 224.797073,96.329941   C212.781647,99.640869 200.967667,103.634155 190.702133,111.140465   C180.848267,118.345734 177.913681,129.370499 184.543411,138.530441   C188.574936,144.100571 194.157425,148.533646 198.888870,153.621017   C200.219315,155.051544 201.840637,156.954926 201.913589,158.700546   C203.084991,186.733948 203.868149,214.783981 205.110413,242.813797   C205.527222,252.218353 206.980728,261.576965 207.157578,270.827515   C194.913925,272.669983 185.986130,281.692108 184.980530,294.137939   C183.654602,310.548157 187.501007,325.811157 196.994675,339.376068   C202.116928,346.694946 208.867783,351.905365 218.149902,352.814911   C220.737427,353.068420 223.366928,352.893524 225.932388,353.738800   C226.971054,357.759094 227.849121,361.828979 229.073532,365.791870   C239.879990,400.768555 256.701935,431.716553 287.753571,453.707397   C287.813202,454.144531 287.872864,454.581665 287.718933,455.739624   C287.780975,456.481537 287.843048,457.223419 287.721344,458.647644   C287.504700,462.761749 287.288025,466.875885 286.847290,471.767517  z"/>
<path fill="#ffad9f" opacity="1.000000" stroke="none" d=" M464.027100,353.023804   C455.970764,386.660431 442.253357,417.312042 416.558197,441.412170   C411.013855,446.612366 404.558411,450.841187 397.936005,455.794617   C386.078308,461.382263 374.775879,466.845428 362.068909,467.389709   C350.626160,467.879791 339.117126,468.245636 327.701263,467.576111   C313.668884,466.753082 301.204742,460.584961 288.895874,453.740784   C288.428467,453.363708 288.115204,453.203033 287.801941,453.042358   C256.701935,431.716553 239.879990,400.768555 229.073532,365.791870   C227.849121,361.828979 226.971054,357.759094 225.755280,353.008240   C224.024078,344.110352 222.469971,335.943054 221.306671,327.618652   C224.359573,327.491028 224.882065,326.144775 224.749603,323.635895   C223.435699,298.750549 222.279465,273.856934 220.984650,248.970551   C220.849533,246.373520 221.417221,244.974457 223.901138,243.496155   C227.378937,241.426361 231.191254,238.828415 233.116989,235.459763   C237.624344,227.575073 242.062851,219.400528 244.758972,210.789078   C248.904724,197.547531 251.565491,183.841064 254.941559,169.981964   C280.569427,169.707550 305.749512,164.443298 331.767944,155.456314   C326.297852,160.850021 321.781616,165.336914 325.617126,172.047577   C328.749603,177.528229 332.883881,181.983551 340.343323,182.118576   C342.672546,182.584045 344.629181,183.061798 346.588409,183.072968   C363.405823,183.168945 379.435272,178.751801 395.415283,174.238968   C403.032776,172.087738 410.505157,169.422699 418.271027,166.916885   C418.610718,168.053467 418.862274,168.809189 419.062683,169.578247   C424.015411,188.581741 429.432068,207.423965 438.930420,224.783997   C442.793335,231.844147 447.038361,238.923584 454.392853,242.634888   C458.957092,244.938141 459.394928,247.844681 459.171509,252.101852   C457.952545,275.328644 456.898254,298.564117 455.809570,321.797638   C455.720490,323.698517 455.797821,325.607239 455.797821,327.587646   C459.916016,327.587646 463.170929,327.587646 466.597076,327.587646   C466.774567,326.515198 466.917358,325.726593 467.034302,324.934174   C468.016876,318.276733 468.994751,311.618591 470.279938,305.242432   C470.719574,307.500031 471.230194,309.535828 470.926849,311.442108   C468.718872,325.317291 466.347076,339.166443 464.027100,353.023804  M357.707825,397.120972   C374.282501,395.540405 391.482269,387.883850 396.112823,380.377472   C364.619537,380.377472 332.835266,380.377472 301.050964,380.377472   C301.000122,380.883636 300.949249,381.389801 300.898407,381.895996   C317.913696,392.707550 336.367218,398.443787 357.707825,397.120972  M256.562805,238.057465   C253.936722,241.629379 251.310638,245.201294 248.684555,248.773209   C249.027481,249.340134 249.370407,249.907043 249.713333,250.473953   C271.218201,233.824814 292.125427,239.294388 312.831451,252.211700   C304.573456,230.912338 275.953186,220.025070 256.562805,238.057465  M435.366760,249.082901   C437.347351,250.086197 439.327942,251.089493 441.899048,252.391937   C437.722687,239.402084 423.004913,229.143967 409.312775,228.936447   C394.926483,228.718414 382.747620,236.499161 378.192719,249.512100   C380.767365,248.310440 382.821930,247.459900 384.776154,246.420593   C393.128479,241.978561 401.943787,238.119858 411.419861,240.275803   C419.409363,242.093536 426.955139,245.861694 435.366760,249.082901  M353.149658,352.409180   C358.790039,349.256409 364.341248,345.927338 370.103058,343.014801   C373.760468,341.165985 374.377991,338.384491 373.948792,334.807739   C372.275208,320.859741 370.873566,306.874603 368.925659,292.965607   C367.589325,283.423645 365.517517,273.984711 363.774506,264.499756   C363.301849,264.513977 362.829224,264.528198 362.356598,264.542450   C362.246368,266.064972 361.969208,267.596680 362.052673,269.108521   C362.646362,279.858917 363.105774,290.622955 364.016663,301.347931   C364.911774,311.887207 366.032501,322.423920 367.597931,332.880371   C368.126068,336.408203 367.395966,338.590454 364.730316,340.585236   C360.752533,343.561920 356.804169,346.585571 352.991272,349.766602   C352.423767,350.239990 352.664062,351.681610 353.149658,352.409180  M418.068268,285.501251   C420.361786,289.531616 422.655334,293.561981 425.367950,298.328766   C424.914246,285.853546 419.444763,277.231842 410.633514,274.170715   C402.338043,271.288818 393.216888,273.537323 387.829407,279.792389   C383.487793,284.833221 381.838074,293.578247 384.339020,298.294708   C390.999084,277.135162 404.327728,271.791901 418.068268,285.501251  M280.000885,276.164398   C270.970306,278.177429 265.035187,292.238312 268.699432,300.599640   C271.065735,289.338837 274.796478,279.472229 288.434723,280.168121   C300.802979,280.799194 305.240204,290.522247 309.338531,300.328339   C310.319794,282.934601 296.744354,271.645477 280.000885,276.164398  M349.489685,353.601990   C349.489685,353.601990 349.414642,353.481140 349.489685,353.601990  z"/>
<path fill="#000000" opacity="1.000000" stroke="none" d=" M339.971924,181.914551   C332.883881,181.983551 328.749603,177.528229 325.617126,172.047577   C321.781616,165.336914 326.297852,160.850021 331.767944,155.456314   C305.749512,164.443298 280.569427,169.707550 254.941559,169.981964   C251.565491,183.841064 248.904724,197.547531 244.758972,210.789078   C242.062851,219.400528 237.624344,227.575073 233.116989,235.459763   C231.191254,238.828415 227.378937,241.426361 223.901138,243.496155   C221.417221,244.974457 220.849533,246.373520 220.984650,248.970551   C222.279465,273.856934 223.435699,298.750549 224.749603,323.635895   C224.882065,326.144775 224.359573,327.491028 220.881119,327.469482   C218.115906,327.355621 216.167068,327.233856 213.526932,327.068878   C211.658325,308.232788 209.809357,289.594696 207.960388,270.956604   C206.980728,261.576965 205.527222,252.218353 205.110413,242.813797   C203.868149,214.783981 203.084991,186.733948 201.913589,158.700546   C201.840637,156.954926 200.219315,155.051544 198.888870,153.621017   C194.157425,148.533646 188.574936,144.100571 184.543411,138.530441   C177.913681,129.370499 180.848267,118.345734 190.702133,111.140465   C200.967667,103.634155 212.781647,99.640869 224.797073,96.329941   C234.652206,93.614288 244.740128,91.743355 254.779419,89.016090   C249.330353,89.016090 243.875916,89.172287 238.433334,88.984818   C225.599228,88.542763 212.691711,87.624268 201.748734,80.114883   C198.066193,77.587807 194.707565,73.240547 193.321503,69.027527   C191.183960,62.530357 196.943283,58.066200 206.015869,56.932236   C223.244568,54.778847 240.065262,57.714939 256.860535,60.545605   C270.884460,62.909195 284.766266,66.115173 298.716553,68.920624   C299.162720,69.010345 299.669708,68.797661 300.979614,68.601418   C293.008392,65.207283 285.640564,62.301964 278.474304,58.963875   C267.948853,54.061054 256.931580,49.832382 248.741104,41.126938   C246.981644,39.256859 245.162979,36.112049 245.568939,33.971127   C245.874008,32.362385 249.660004,30.433493 251.960434,30.346762   C264.367096,29.879007 276.822693,29.365643 289.205231,29.987406   C301.080841,30.583714 312.967255,32.072338 324.703766,34.036377   C337.905670,36.245636 351.086975,38.890060 364.020447,42.314960   C381.395264,46.915977 398.192596,53.278427 413.540588,62.873142   C417.458038,65.322144 420.980164,68.403542 424.841370,71.910263   C423.298553,80.043083 422.284698,87.700829 419.781525,94.836098   C407.676666,129.340515 384.970459,155.130402 353.700653,173.660767   C349.107147,176.382874 344.547333,179.161880 339.971924,181.914551  z"/>
<path fill="#FFEEEF" opacity="1.000000" stroke="none" d=" M464.158203,544.952759   C466.834625,540.844299 470.522552,541.919617 474.473816,543.395996   C474.541321,545.766174 474.177094,547.731323 474.172974,549.697327   C474.095337,586.799927 474.060303,623.902527 473.641815,661.044556   C454.303528,667.065491 435.371155,673.148682 416.368530,679.003906   C390.391205,687.008240 364.396027,694.958557 338.343903,702.715027   C303.872681,712.978027 269.352386,723.077087 234.822815,733.142395   C226.246231,735.642456 217.552750,737.741638 208.875397,739.555298   C208.826950,676.114624 208.818909,613.143738 208.792465,550.172852   C208.791626,548.182617 208.601303,546.192505 208.499298,544.202332   C209.715958,543.797058 210.967300,543.473145 212.143051,542.971985   C216.456970,541.133179 219.566360,541.993225 221.575226,547.160889   C229.770050,563.933716 240.213760,578.285278 254.049728,589.930359   C286.269470,617.048035 323.599426,627.503418 364.919281,620.759888   C409.502899,613.483704 442.891022,589.704895 463.200745,548.721008   C463.763397,547.585571 463.849762,546.214111 464.158203,544.952759  z"/>
<path fill="#ffad9f" opacity="1.000000" stroke="none" d=" M463.775757,544.883911   C463.849762,546.214111 463.763397,547.585571 463.200745,548.721008   C442.891022,589.704895 409.502899,613.483704 364.919281,620.759888   C323.599426,627.503418 286.269470,617.048035 254.049728,589.930359   C240.213760,578.285278 229.770050,563.933716 221.903839,547.263184   C221.626785,546.764099 221.580246,546.545227 221.551498,545.861328   C221.651108,545.248657 221.732925,545.100952 221.814758,544.953247   C231.555450,542.265381 241.261230,539.441956 251.044998,536.921265   C265.720978,533.140320 274.639679,523.529785 280.122620,509.307068   C296.520477,506.970459 312.273438,505.155945 327.937988,502.762665   C352.415955,499.022858 376.834015,494.891052 401.277466,490.925323   C403.803314,498.983307 405.801666,507.256775 408.984131,515.046448   C413.277954,525.556274 421.046631,532.817993 432.236938,535.980774   C442.624878,538.916748 453.008026,541.869568 463.775757,544.883911  z"/>
<path fill="#ff7383" opacity="1.000000" stroke="none" d=" M553.024048,574.875427   C601.943359,602.628845 631.916992,643.714722 641.006836,699.597839   C644.397827,720.445007 644.374756,741.346191 642.837402,762.322693   C642.591064,765.684509 641.609192,767.753784 636.934937,767.175415   C583.786072,767.154907 531.513794,767.154907 478.914429,767.154907   C478.826630,765.158997 478.762390,763.698792 478.787720,761.836426   C479.404327,759.710144 479.654694,757.834412 480.502716,756.286072   C486.567566,745.213257 493.332916,734.484985 498.788025,723.125000   C512.449646,694.675110 526.129456,666.205139 538.638611,637.240784   C546.714233,618.542297 553.369141,599.102295 552.081482,578.064880   C552.017822,577.024841 552.692932,575.939575 553.024048,574.875427  z"/>
<path fill="#ff7383" opacity="1.000000" stroke="none" d=" M49.026272,767.309753   C47.543285,767.184814 46.060303,767.059814 43.863197,766.874695   C40.214401,732.476074 41.875702,698.592529 53.734409,665.692139   C67.779572,626.725708 94.009727,598.025940 129.735748,577.153931   C130.654572,583.755615 129.884796,590.493652 131.588394,596.534058   C136.394135,613.573730 141.220947,630.728577 147.837448,647.111877   C163.027695,684.724854 181.883652,720.606323 201.842682,755.905457   C203.739777,759.260620 204.680099,763.156677 205.601318,766.902222   C158.248886,767.025085 111.359756,767.040161 64.470642,767.079773   C59.322456,767.084106 54.174393,767.229675 49.026272,767.309753  z"/>
<path fill="#EFDADB" opacity="1.000000" stroke="none" d=" M49.359818,767.542847   C54.174393,767.229675 59.322456,767.084106 64.470642,767.079773   C111.359756,767.040161 158.248886,767.025085 205.995972,766.900208   C207.516739,765.415161 208.713867,764.047729 208.753220,762.647827   C208.965134,755.111389 208.889435,747.566833 208.912994,740.025085   C217.552750,737.741638 226.246231,735.642456 234.822815,733.142395   C269.352386,723.077087 303.872681,712.978027 338.343903,702.715027   C364.396027,694.958557 390.391205,687.008240 416.368530,679.003906   C435.371155,673.148682 454.303528,667.065491 473.681549,661.511353   C474.095856,696.630127 474.095856,731.321472 474.095856,767.497437   C475.467773,765.390747 475.886993,764.511658 476.523254,763.837280   C477.130676,763.193481 477.964081,762.762878 478.698120,762.238525   C478.762390,763.698792 478.826630,765.158997 478.914429,767.154907   C531.513794,767.154907 583.786072,767.154907 636.515198,767.253784   C635.191772,767.578247 633.411621,768.001038 631.631409,768.001282   C439.309631,768.028381 246.987869,768.024414 54.666100,768.010986   C53.008518,768.010864 51.350945,767.857666 49.359818,767.542847  z"/>
<path fill="#ff7383" opacity="1.000000" stroke="none" d=" M208.875397,739.555298   C208.889435,747.566833 208.965134,755.111389 208.753220,762.647827   C208.713867,764.047729 207.516739,765.415161 206.459290,766.799622   C204.680099,763.156677 203.739777,759.260620 201.842682,755.905457   C181.883652,720.606323 163.027695,684.724854 147.837448,647.111877   C141.220947,630.728577 136.394135,613.573730 131.588394,596.534058   C129.884796,590.493652 130.654572,583.755615 130.068970,577.050781   C130.472824,574.728271 131.125198,572.697693 131.729568,570.652832   C137.532059,551.020630 151.891159,540.924805 170.908096,537.350403   C179.198517,535.792114 188.109497,536.421387 196.578949,537.416565   C200.594742,537.888428 204.235580,541.551270 208.272797,543.985413   C208.601303,546.192505 208.791626,548.182617 208.792465,550.172852   C208.818909,613.143738 208.826950,676.114624 208.875397,739.555298  z"/>
<path fill="#ff7383" opacity="1.000000" stroke="none" d=" M478.787720,761.836426   C477.964081,762.762878 477.130676,763.193481 476.523254,763.837280   C475.886993,764.511658 475.467773,765.390747 474.095856,767.497437   C474.095856,731.321472 474.095856,696.630127 474.056122,661.472046   C474.060303,623.902527 474.095337,586.799927 474.172974,549.697327   C474.177094,547.731323 474.541321,545.766174 474.877258,543.411194   C483.630371,535.327271 494.179810,535.058960 504.640686,536.151917   C524.000793,538.174377 540.056946,545.924744 548.809021,564.630127   C550.273865,567.760803 551.378479,571.060059 552.836792,574.578430   C552.692932,575.939575 552.017822,577.024841 552.081482,578.064880   C553.369141,599.102295 546.714233,618.542297 538.638611,637.240784   C526.129456,666.205139 512.449646,694.675110 498.788025,723.125000   C493.332916,734.484985 486.567566,745.213257 480.502716,756.286072   C479.654694,757.834412 479.404327,759.710144 478.787720,761.836426  z"/>
<path fill="#000000" opacity="1.000000" stroke="none" d=" M340.343323,182.118576   C344.547333,179.161880 349.107147,176.382874 353.700653,173.660767   C384.970459,155.130402 407.676666,129.340515 419.781525,94.836098   C422.284698,87.700829 423.298553,80.043083 425.018585,72.184334   C435.520599,79.038895 441.641785,89.077164 444.080322,101.552963   C444.362915,102.998779 445.601288,104.938507 446.860840,105.410637   C466.089233,112.618439 473.736969,128.367706 476.856293,146.893600   C480.638580,169.357040 478.677368,191.978912 477.147766,214.533035   C476.147522,229.281250 475.034088,244.021835 473.944275,258.763824   C473.700012,262.068176 473.342438,265.364136 472.961212,269.535339   C472.556213,275.554260 472.227020,280.701782 471.666382,286.193604   C471.022888,291.715240 470.610779,296.892548 470.137146,302.428284   C470.041748,303.511353 470.007904,304.236023 469.974060,304.960663   C468.994751,311.618591 468.016876,318.276733 467.034302,324.934174   C466.917358,325.726593 466.774567,326.515198 466.597076,327.587646   C463.170929,327.587646 459.916016,327.587646 455.797821,327.587646   C455.797821,325.607239 455.720490,323.698517 455.809570,321.797638   C456.898254,298.564117 457.952545,275.328644 459.171509,252.101852   C459.394928,247.844681 458.957092,244.938141 454.392853,242.634888   C447.038361,238.923584 442.793335,231.844147 438.930420,224.783997   C429.432068,207.423965 424.015411,188.581741 419.062683,169.578247   C418.862274,168.809189 418.610718,168.053467 418.271027,166.916885   C410.505157,169.422699 403.032776,172.087738 395.415283,174.238968   C379.435272,178.751801 363.405823,183.168945 346.588409,183.072968   C344.629181,183.061798 342.672546,182.584045 340.343323,182.118576  z"/>
<path fill="#ffad9f" opacity="1.000000" stroke="none" d=" M401.326965,490.487457   C376.834015,494.891052 352.415955,499.022858 327.937988,502.762665   C312.273438,505.155945 296.520477,506.970459 280.345764,509.039856   C281.941528,499.329773 283.998657,489.624237 286.591492,479.402588   C287.061707,477.583130 286.996185,476.279785 286.930634,474.976471   C286.902863,473.906830 286.875061,472.837158 287.347260,471.284912   C287.866516,466.523315 287.885803,462.244324 287.905090,457.965332   C287.843048,457.223419 287.780975,456.481537 288.067444,455.268311   C288.627319,454.517090 288.838654,454.237183 289.049988,453.957275   C301.204742,460.584961 313.668884,466.753082 327.701263,467.576111   C339.117126,468.245636 350.626160,467.879791 362.068909,467.389709   C374.775879,466.845428 386.078308,461.382263 397.716400,456.044739   C399.181122,467.361633 400.278809,478.705627 401.326965,490.487457  z"/>
<path fill="#ffad9f" opacity="1.000000" stroke="none" d=" M471.897797,285.849335   C472.227020,280.701782 472.556213,275.554260 472.941986,269.933838   C489.464569,271.235107 499.374634,278.160583 501.345093,291.422150   C504.303772,311.334503 499.092926,329.433563 485.488678,344.533295   C480.182526,350.422760 473.091766,353.396698 464.458893,352.961853   C466.347076,339.166443 468.718872,325.317291 470.926849,311.442108   C471.230194,309.535828 470.719574,307.500031 470.279938,305.242432   C470.007904,304.236023 470.041748,303.511353 470.510864,302.302856   C471.263367,296.495758 471.580566,291.172546 471.897797,285.849335  z"/>
<path fill="#ffad9f" opacity="1.000000" stroke="none" d=" M207.558990,270.892059   C209.809357,289.594696 211.658325,308.232788 213.526932,327.068878   C216.167068,327.233856 218.115906,327.355621 220.490295,327.626587   C222.469971,335.943054 224.024078,344.110352 225.777679,352.596405   C223.366928,352.893524 220.737427,353.068420 218.149902,352.814911   C208.867783,351.905365 202.116928,346.694946 196.994675,339.376068   C187.501007,325.811157 183.654602,310.548157 184.980530,294.137939   C185.986130,281.692108 194.913925,272.669983 207.558990,270.892059  z"/>
<path fill="#ffad9f" opacity="1.000000" stroke="none" d=" M287.813232,458.306488   C287.885803,462.244324 287.866516,466.523315 287.459290,470.896149   C287.288025,466.875885 287.504700,462.761749 287.813232,458.306488  z"/>
<path fill="#ffad9f" opacity="1.000000" stroke="none" d=" M286.832397,475.400940   C286.996185,476.279785 287.061707,477.583130 286.790070,479.096375   C286.546692,478.145996 286.640442,476.985718 286.832397,475.400940  z"/>
<path fill="#ffad9f" opacity="1.000000" stroke="none" d=" M288.895874,453.740814   C288.838654,454.237183 288.627319,454.517090 288.174255,454.907898   C287.872864,454.581665 287.813202,454.144531 287.777771,453.374878   C288.115204,453.203033 288.428467,453.363708 288.895874,453.740814  z"/>
<path fill="#FFEEEF" opacity="1.000000" stroke="none" d=" M221.676712,544.994934   C221.732925,545.100952 221.651108,545.248657 221.384933,545.569946   C221.149506,545.429016 221.262192,545.193420 221.676712,544.994934  z"/>
<path fill="#FCFAFA" opacity="1.000000" stroke="none" d=" M357.262573,397.127716   C336.367218,398.443787 317.913696,392.707550 300.898407,381.895996   C300.949249,381.389801 301.000122,380.883636 301.050964,380.377472   C332.835266,380.377472 364.619537,380.377472 396.112823,380.377472   C391.482269,387.883850 374.282501,395.540405 357.262573,397.127716  z"/>
<path fill="#000000" opacity="1.000000" stroke="none" d=" M256.808411,237.794006   C275.953186,220.025070 304.573456,230.912338 312.831451,252.211700   C292.125427,239.294388 271.218201,233.824814 249.713333,250.473953   C249.370407,249.907043 249.027481,249.340134 248.684555,248.773209   C251.310638,245.201294 253.936722,241.629379 256.808411,237.794006  z"/>
<path fill="#000000" opacity="1.000000" stroke="none" d=" M435.032043,248.924713   C426.955139,245.861694 419.409363,242.093536 411.419861,240.275803   C401.943787,238.119858 393.128479,241.978561 384.776154,246.420593   C382.821930,247.459900 380.767365,248.310440 378.192719,249.512100   C382.747620,236.499161 394.926483,228.718414 409.312775,228.936447   C423.004913,229.143967 437.722687,239.402084 441.899048,252.391937   C439.327942,251.089493 437.347351,250.086197 435.032043,248.924713  z"/>
<path fill="#ffad9f" opacity="1.000000" stroke="none" d=" M352.840149,352.542236   C352.664062,351.681610 352.423767,350.239990 352.991272,349.766602   C356.804169,346.585571 360.752533,343.561920 364.730316,340.585236   C367.395966,338.590454 368.126068,336.408203 367.597931,332.880371   C366.032501,322.423920 364.911774,311.887207 364.016663,301.347931   C363.105774,290.622955 362.646362,279.858917 362.052673,269.108521   C361.969208,267.596680 362.246368,266.064972 362.356598,264.542450   C362.829224,264.528198 363.301849,264.513977 363.774506,264.499756   C365.517517,273.984711 367.589325,283.423645 368.925659,292.965607   C370.873566,306.874603 372.275208,320.859741 373.948792,334.807739   C374.377991,338.384491 373.760468,341.165985 370.103058,343.014801   C364.341248,345.927338 358.790039,349.256409 352.840149,352.542236  z"/>
<path fill="#000000" opacity="1.000000" stroke="none" d=" M417.822266,285.235779   C404.327728,271.791901 390.999084,277.135162 384.339020,298.294708   C381.838074,293.578247 383.487793,284.833221 387.829407,279.792389   C393.216888,273.537323 402.338043,271.288818 410.633514,274.170715   C419.444763,277.231842 424.914246,285.853546 425.367950,298.328766   C422.655334,293.561981 420.361786,289.531616 417.822266,285.235779  z"/>
<path fill="#000000" opacity="1.000000" stroke="none" d=" M280.394775,276.069214   C296.744354,271.645477 310.319794,282.934601 309.338531,300.328339   C305.240204,290.522247 300.802979,280.799194 288.434723,280.168121   C274.796478,279.472229 271.065735,289.338837 268.699432,300.599640   C265.035187,292.238312 270.970306,278.177429 280.394775,276.069214  z"/>
<path fill="#ffad9f" opacity="1.000000" stroke="none" d=" M349.452148,353.541565   C349.414642,353.481140 349.489685,353.601990 349.452148,353.541565  z"/>
<path fill="#ffad9f" opacity="1.000000" stroke="none" d=" M471.666382,286.193604   C471.580566,291.172546 471.263367,296.495758 470.572418,301.944427   C470.610779,296.892548 471.022888,291.715240 471.666382,286.193604  z"/>
</svg>